<svg xmlns="http://www.w3.org/2000/svg" style="display: none;">
  <symbol id="icon-swipe" viewBox="0 0 73.25 94">
    <title>Swipe</title>
    <path d="M64.2 45.84a5.71 5.71 0 0 0-5.7 5.71v-7.08a5.71 5.71 0 1 0-11.41 0v-7.09a5.71 5.71 0 1 0-11.41 0v-22a5.71 5.71 0 0 0-11.41 0v36.1C15.21 41.63 7 44.92 7 48.51l11.77 34.11c4.05 10.94 3.86 9.41 8 9.58h36a7.08 7.08 0 0 0 7.09-7.09V51.55a5.71 5.71 0 0 0-5.66-5.71zM48.71 16.83a1.35 1.35 0 0 0 1.94 0l6.15-6.14a1.38 1.38 0 0 0 0-1.94L50.65 2.6a1.38 1.38 0 0 0-1.94 1.95l3.79 3.79h-10a1.38 1.38 0 1 0 0 2.75h10l-3.79 3.8a1.36 1.36 0 0 0 0 1.94zm-39.1.41a1.38 1.38 0 0 0 1-2.35l-3.79-3.8h10a1.38 1.38 0 1 0 0-2.75h-10l3.79-3.8A1.37 1.37 0 0 0 8.64 2.6L2.5 8.75a1.36 1.36 0 0 0 0 1.94l6.14 6.14a1.37 1.37 0 0 0 .97.41z"
    />
  </symbol>
</svg>
