<svg xmlns="http://www.w3.org/2000/svg" style="display: none;">
  <symbol id="icon-cart" viewBox="0 0 33 30">
    <title>Shopping Cart</title>
    <path d="M25.366 21.872c-.95 0-1.77.34-2.46 1.02-.675.707-1.013 1.524-1.013 2.452 0 .955.338 1.766 1.014 2.433.69.706 1.51 1.06 2.46 1.06.935 0 1.735-.354 2.4-1.06.688-.667 1.033-1.478 1.033-2.433 0-.928-.345-1.745-1.034-2.452-.664-.68-1.464-1.02-2.4-1.02zM9.97 25.344c0 .955.34 1.766 1.015 2.433.69.706 1.51 1.06 2.46 1.06.948 0 1.755-.354 2.418-1.06.703-.667 1.054-1.478 1.054-2.433 0-.928-.35-1.745-1.054-2.452-.663-.68-1.47-1.02-2.42-1.02s-1.768.34-2.458 1.02c-.676.707-1.014 1.524-1.014 2.452zM9.463 19.763H29.21L32.237 4.59l-.98-.196-2.867 14.37H10.244L5.504-.285H-.13v1h4.85"/>
  </symbol>
  <symbol id="icon-ok" viewBox="0 0 50 50">
    <title>OK</title>
    <g>
      <circle class="a" cx="25" cy="25" r="25" fill="#63b20b" />
      <path stroke="#FFF" class="b" d="M9.5 27.5l9.413 8.413M19.175 35.825L40.83 14.17" />
    </g>
  </symbol>
  <symbol id="icon-cancel" viewBox="0 0 50 50">
    <title>OK</title>
    <g>
      <circle fill="#ce0505" class="a" cx="25" cy="25" r="25" />
      <path stroke="#FFF" class="b" d="M14.175 14.175L35.83 35.83M14.175 35.825L35.83 14.17" />
    </g>
  </symbol>
  <symbol id="icon-arrow-down" viewBox="0 0 21.59 11.41">
    <title>Open</title>
    <path d="M.01.71L.715.005 11.422 10.71l-.708.706z" />
    <path d="M10.18 10.708L20.886.002l.707.707-10.706 10.705z" />
  </symbol>
  <symbol id="icon-custom" viewBox="0 0 30 30">
    <title>
      Customise
    </title>
      <path fill="#e62943" d="M0 0h10v10H0z" />
      <path fill="#f9ae0b" d="M10 0h10v10H10z" />
      <path fill="#f1e500" d="M20 0h10v10H20z" />
      <path fill="#7d4c99" d="M0 10h10v10H0z" />
      <path fill="#c34090" d="M10 10h10v10H10z" />
      <path fill="#b6ce2d" d="M20 10h10v10H20z" />
      <path fill="#354597" d="M0 20h10v10H0z" />
      <path fill="#0089c7" d="M10 20h10v10H10z" />
      <path fill="#6ac3c3" d="M20 20h10v10H20z" />
  </symbol>
</svg>

