<?xml version="1.0" standalone="no"?>
<!DOCTYPE svg PUBLIC "-//W3C//DTD SVG 1.1//EN" "http://www.w3.org/Graphics/SVG/1.1/DTD/svg11.dtd" >
<svg xmlns="http://www.w3.org/2000/svg" xmlns:xlink="http://www.w3.org/1999/xlink" version="1.1">
<metadata>
Created by FontForge 20201107 at Wed Sep 25 08:13:15 2024
 By 
(c) 2020 Typodermic Fonts Inc.
</metadata>
<defs>
<font id="GravtracCpRg-Bold" horiz-adv-x="749" >
  <font-face 
    font-family="Gravtrac Cp Rg"
    font-weight="700"
    font-stretch="condensed"
    units-per-em="2048"
    panose-1="2 6 8 6 3 2 2 2 2 4"
    ascent="1710"
    descent="-338"
    x-height="1227"
    cap-height="1780"
    bbox="-588 -338 1276 2398"
    underline-thickness="102"
    underline-position="-204"
    unicode-range="U+0017-F739"
  />
<missing-glyph horiz-adv-x="1052" 
d="M113 -199v2173h825v-2173h-825zM193 1884v-1988h665v1988h-665z" />
    <glyph glyph-name=".notdef" horiz-adv-x="1052" 
d="M113 -199v2173h825v-2173h-825zM193 1884v-1988h665v1988h-665z" />
    <glyph glyph-name=".null" horiz-adv-x="0" 
 />
    <glyph glyph-name="nonmarkingreturn" horiz-adv-x="682" 
 />
    <glyph glyph-name="uni0017" horiz-adv-x="401" 
 />
    <glyph glyph-name="space" unicode=" " horiz-adv-x="401" 
 />
    <glyph glyph-name="exclam" unicode="!" horiz-adv-x="364" 
d="M76 0v246h213v-246h-213zM98 414l-65 1366h299l-68 -1366h-166z" />
    <glyph glyph-name="quotedbl" unicode="&#x22;" horiz-adv-x="589" 
d="M70 1255l-39 525h231l-37 -525h-155zM365 1255l-39 525h231l-37 -525h-155z" />
    <glyph glyph-name="numbersign" unicode="#" horiz-adv-x="741" 
d="M434 1509h162v-284h117v-164h-117v-338h117v-162h-117v-287h-162v287h-127v-287h-164v287h-114v162h114v338h-114v164h114v284h164v-284h127v284zM307 1061v-338h127v338h-127z" />
    <glyph glyph-name="dollar" unicode="$" horiz-adv-x="686" 
d="M309 -172v172q-57 22 -82 70v-70h-172v637h181v-320q0 -89 14.5 -120t58.5 -35v643l-135 106q-78 61 -106.5 133.5t-28.5 206.5v293q0 142 45.5 197t173.5 55q9 0 26 -1t25 -1v133h70v-147q49 -18 74 -66v66h180v-549h-180v242q0 80 -16 108t-58 33v-553l139 -113
q77 -64 105 -135t28 -211v-332q0 -165 -45.5 -225.5t-171.5 -60.5q-39 0 -55 2v-158h-70zM455 612q0 43 -17.5 74.5t-58.5 65.5v-590q46 4 61 35.5t15 119.5v295zM233 1509v-243q0 -56 16 -85t60 -65v498q-47 -3 -61.5 -23.5t-14.5 -81.5z" />
    <glyph glyph-name="percent" unicode="%" horiz-adv-x="980" 
d="M70 0l718 1780h121l-719 -1780h-120zM178 1620v-657q0 -34 6.5 -44t26.5 -10q21 0 28 10t7 44v657q0 34 -7 42.5t-28 8.5q-20 0 -26.5 -8.5t-6.5 -42.5zM41 915v750q0 74 35.5 99.5t134.5 25.5q100 0 135 -25t35 -100v-750q0 -73 -35 -98.5t-135 -25.5q-99 0 -134.5 25.5
t-35.5 98.5zM735 819v-657q0 -34 6.5 -43.5t26.5 -9.5q21 0 28 9.5t7 43.5v657q0 34 -7 42.5t-28 8.5q-20 0 -26.5 -8.5t-6.5 -42.5zM598 115v749q0 74 35.5 99.5t134.5 25.5q100 0 135 -25t35 -100v-749q0 -73 -35 -99t-135 -26q-99 0 -134.5 26t-35.5 99z" />
    <glyph glyph-name="ampersand" unicode="&#x26;" horiz-adv-x="860" 
d="M379 1796q138 0 190 -43t52 -123v-174q0 -77 -19.5 -142t-85.5 -177l-61 -111l86 -221l80 242h221v-181h-109l-98 -303l219 -563h-246l-84 227l-32 -104q-30 -84 -79 -111.5t-139 -27.5q-132 0 -185.5 44.5t-53.5 166.5v307q0 110 25 190.5t98 196.5l80 133l-31 86
q-24 68 -33.5 96.5t-20 80.5t-10.5 101v21v201q0 99 49 143.5t187 44.5zM295 195q25 0 40 13.5t27 49.5l72 221l-110 305q-48 -81 -61 -128.5t-13 -118.5v-265q0 -46 9.5 -61.5t35.5 -15.5zM332 1413q0 -79 37 -168q43 68 57 104.5t14 80.5v126q0 37 -11.5 52.5t-43.5 15.5
q-31 0 -42 -16t-11 -56v-139z" />
    <glyph glyph-name="quotesingle" unicode="'" horiz-adv-x="294" 
d="M70 1255l-39 525h231l-37 -525h-155z" />
    <glyph glyph-name="parenleft" unicode="(" horiz-adv-x="495" 
d="M131 428v922q0 238 55 448t133 318h175q-91 -119 -146 -325t-55 -441v-922q0 -235 55 -442t146 -324h-175q-79 110 -133.5 318t-54.5 448z" />
    <glyph glyph-name="parenright" unicode=")" horiz-adv-x="495" 
d="M365 1352v-922q0 -237 -55.5 -447.5t-133.5 -318.5h-174q91 119 146 325t55 441v922q0 235 -55 442t-146 324h174q79 -110 134 -318.5t55 -447.5z" />
    <glyph glyph-name="asterisk" unicode="*" horiz-adv-x="700" 
d="M686 1489l-47 -152l-229 99l18 -256h-154l19 256l-232 -99l-47 152l242 59l-158 195l121 94l131 -219l133 219l123 -94l-162 -195z" />
    <glyph glyph-name="plus" unicode="+" horiz-adv-x="741" 
d="M31 809v162h258v258h162v-258h260v-162h-260v-256h-162v256h-258z" />
    <glyph glyph-name="comma" unicode="," horiz-adv-x="272" 
d="M84 -211v92h27q18 0 24 8t6 29v82h-110v254h211v-324q0 -70 -25.5 -105.5t-95.5 -35.5h-37z" />
    <glyph glyph-name="hyphen" unicode="-" horiz-adv-x="364" 
d="M342 854v-170h-319v170h319z" />
    <glyph glyph-name="hyphen" unicode="&#x2010;" horiz-adv-x="364" 
d="M342 854v-170h-319v170h319z" />
    <glyph glyph-name="hyphen" unicode="&#xad;" horiz-adv-x="364" 
d="M342 854v-170h-319v170h319z" />
    <glyph glyph-name="period" unicode="." horiz-adv-x="272" 
d="M31 0v246h211v-246h-211z" />
    <glyph glyph-name="slash" unicode="/" horiz-adv-x="505" 
d="M0 -197l342 2171h164l-344 -2171h-162z" />
    <glyph glyph-name="zero" unicode="0" horiz-adv-x="669" 
d="M274 1518v-1256q0 -63 12.5 -81.5t47.5 -18.5q38 0 49.5 18t11.5 82v1256q0 64 -11.5 81t-49.5 17q-36 0 -48 -17.5t-12 -80.5zM43 209v1360q0 136 59 181.5t232 45.5q174 0 233.5 -45.5t59.5 -181.5v-1360q0 -134 -59.5 -179.5t-233.5 -45.5q-173 0 -232 45.5t-59 179.5
z" />
    <glyph glyph-name="one" unicode="1" horiz-adv-x="387" 
d="M319 180h56v-180h-350v180h59v1422h-59v178h294v-1600z" />
    <glyph glyph-name="two" unicode="2" horiz-adv-x="630" 
d="M362 1272v190q0 93 -12 123.5t-49 30.5q-33 0 -43 -28t-10 -124v-233h-207v237q0 193 54.5 260.5t213.5 67.5q156 0 216.5 -62.5t60.5 -232.5v-215q0 -101 -23 -168t-88 -157l-119 -162q-48 -66 -65 -116.5t-17 -139.5v-363h119v457h199v-637h-551v535q0 131 21 203
t85 161l152 211q37 52 50 82.5t13 79.5z" />
    <glyph glyph-name="three" unicode="3" horiz-adv-x="622" 
d="M362 1106v362q0 93 -11.5 120.5t-47.5 27.5q-34 0 -44.5 -27.5t-10.5 -124.5v-233h-217v237q0 99 13 161t46.5 100t84.5 52.5t134 14.5q160 0 216.5 -62.5t56.5 -236.5v-350q0 -162 -86 -201v-6q90 -41 90 -203v-399q0 -109 -13.5 -176.5t-47.5 -108t-84 -55t-132 -14.5
q-112 0 -170 29t-84 104.5t-26 220.5v299h217v-295q0 -80 5.5 -117.5t16.5 -50t35 -12.5q25 0 36.5 12.5t17 50t5.5 117.5v434q0 43 -11.5 59.5t-39.5 16.5h-151v182h151q28 0 39.5 15.5t11.5 56.5z" />
    <glyph glyph-name="four" unicode="4" horiz-adv-x="657" 
d="M16 440v172l242 1168h297v-1159h90v-181h-90v-260h63v-180h-358v180h74v260h-318zM324 1276l-125 -655h135v655h-10z" />
    <glyph glyph-name="five" unicode="5" horiz-adv-x="618" 
d="M41 809v971h537v-549h-189v373h-153v-564q60 74 167 74q94 0 135.5 -64.5t41.5 -228.5v-483q0 -109 -13.5 -177t-47 -108t-82 -54.5t-126.5 -14.5q-107 0 -163.5 30t-81.5 105t-25 219v299h201v-295q0 -79 5.5 -117.5t17 -50.5t34.5 -12t35 12t18 51t6 117v430
q0 70 -6 105t-18 46t-35 11q-31 0 -44 -18t-13 -62v-45h-201z" />
    <glyph glyph-name="six" unicode="6" horiz-adv-x="628" 
d="M258 1468v-411q60 63 158 63q94 0 134 -62.5t40 -228.5v-491q0 -90 -7 -147.5t-23.5 -100.5t-49 -64.5t-78.5 -31.5t-117 -10q-72 0 -118.5 10t-79 31.5t-49 64.5t-23 100t-6.5 148v1159q0 174 56 236.5t214 62.5q163 0 221 -67t58 -261v-231h-215v227q0 95 -12 123.5
t-46 28.5q-36 0 -46.5 -27t-10.5 -121zM258 786v-444q0 -118 10 -149t47 -31q24 0 35.5 12t17 50t5.5 118v428q0 76 -6 113t-17.5 48t-34.5 11q-34 0 -45.5 -29t-11.5 -127z" />
    <glyph glyph-name="seven" unicode="7" horiz-adv-x="616" 
d="M229 1602v-371h-200v549h565v-176l-221 -1604h-246l242 1602h-140z" />
    <glyph glyph-name="eight" unicode="8" horiz-adv-x="638" 
d="M319 852q-34 0 -46.5 -17.5t-12.5 -66.5v-440q0 -103 12.5 -134.5t46.5 -31.5t46 31.5t12 134.5v440q0 49 -12 66.5t-46 17.5zM319 -16q-112 0 -170.5 29t-84 101t-25.5 210v405q0 94 23.5 143t72.5 68v6q-49 19 -70.5 67t-21.5 138v352q0 170 56.5 231.5t219.5 61.5
t220 -61.5t57 -231.5v-352q0 -90 -21.5 -138t-70.5 -67v-6q49 -20 73.5 -69t24.5 -142v-405q0 -104 -13 -168t-47 -103.5t-86 -54t-137 -14.5zM319 1616q-34 0 -46.5 -27t-12.5 -114v-365q0 -42 12.5 -59t46.5 -17t45 16.5t11 59.5v365q0 89 -11 115t-45 26z" />
    <glyph glyph-name="nine" unicode="9" horiz-adv-x="628" 
d="M371 311v504q-60 -65 -158 -65q-93 0 -133.5 63t-40.5 229v400q0 91 6.5 148t23 100t49 64.5t78 31.5t117.5 10q90 0 141.5 -14t83 -56t42 -106.5t10.5 -177.5v-1159q0 -174 -56 -236.5t-215 -62.5q-162 0 -218 66t-56 259v322h211v-316q0 -96 11 -124.5t46 -28.5
t46.5 28t11.5 121zM371 1085v351q0 81 -5 118.5t-16.5 49.5t-36.5 12t-36 -12t-16 -49t-5 -119v-336q0 -76 5 -111.5t16 -47t34 -11.5t35 10t18.5 43.5t6.5 101.5z" />
    <glyph glyph-name="colon" unicode=":" horiz-adv-x="307" 
d="M45 889v246h211v-246h-211zM45 332v246h211v-246h-211z" />
    <glyph glyph-name="semicolon" unicode=";" horiz-adv-x="307" 
d="M100 121v92h27q18 0 24.5 8t6.5 29v82h-111v254h211v-324q0 -70 -25.5 -105.5t-95.5 -35.5h-37zM47 889v246h211v-246h-211z" />
    <glyph glyph-name="less" unicode="&#x3c;" horiz-adv-x="741" 
d="M29 807v164l684 278v-172l-475 -184v-8l475 -187v-166z" />
    <glyph glyph-name="equal" unicode="=" horiz-adv-x="741" 
d="M29 1010v159h684v-159h-684zM29 604v162h684v-162h-684z" />
    <glyph glyph-name="greater" unicode="&#x3e;" horiz-adv-x="741" 
d="M713 971v-164l-684 -275v166l477 187v10l-477 182v172z" />
    <glyph glyph-name="question" unicode="?" horiz-adv-x="612" 
d="M186 0v246h211v-246h-211zM301 1796q150 0 207 -56.5t57 -201.5v-258q0 -82 -13.5 -137t-51.5 -133l-84 -174q-24 -48 -32 -81.5t-7 -78.5v-23v-239h-168v239q0 97 11 161t42 124l53 104q23 45 32 85t9 104v250q0 84 -12.5 113.5t-46.5 29.5q-32 0 -42.5 -29.5
t-10.5 -124.5v-239h-197v237q0 194 51 261t203 67z" />
    <glyph glyph-name="at" unicode="@" horiz-adv-x="815" 
d="M541 893q-31 0 -44.5 -17t-13.5 -59v-448q0 -44 10.5 -61t41.5 -17q46 0 59 35v538q-13 29 -53 29zM399 1503q104 0 170 -11.5t114 -43.5t68.5 -88.5t20.5 -145.5v-1062h-172v45q-13 -28 -54 -44t-93 -16q-73 0 -111.5 44t-38.5 157v500q0 113 38.5 154.5t115.5 41.5
q43 0 82.5 -8t54.5 -20v204q0 56 -13.5 82t-54.5 38.5t-127 12.5q-65 0 -101 -5.5t-54.5 -23t-22.5 -39t-4 -65.5v-1243q0 -72 40 -95.5t157 -23.5q190 0 358 43v-178q-133 -45 -375 -45q-112 0 -179.5 14t-108.5 52.5t-55.5 97t-14.5 156.5v1226q0 90 18.5 145.5t63.5 88
t109.5 44t168.5 11.5z" />
    <glyph glyph-name="A" unicode="A" 
d="M125 1602v178h498v-178h-62l115 -1422h59v-180h-332v180h41l-18 301h-113l-16 -301h39v-180h-324v180h62l114 1422h-63zM367 1434l-45 -783h96l-43 783h-8z" />
    <glyph glyph-name="A" unicode="&#x410;" 
d="M125 1602v178h498v-178h-62l115 -1422h59v-180h-332v180h41l-18 301h-113l-16 -301h39v-180h-324v180h62l114 1422h-63zM367 1434l-45 -783h96l-43 783h-8z" />
    <glyph glyph-name="A" unicode="&#x391;" 
d="M125 1602v178h498v-178h-62l115 -1422h59v-180h-332v180h41l-18 301h-113l-16 -301h39v-180h-324v180h62l114 1422h-63zM367 1434l-45 -783h96l-43 783h-8z" />
    <glyph glyph-name="B" unicode="B" horiz-adv-x="722" 
d="M324 1034h73q27 0 38 16t11 58v414q0 45 -12.5 62.5t-44.5 17.5h-65v-568zM84 180v1422h-59v178h421q124 0 179 -56t55 -184v-389q0 -164 -84 -199v-10q90 -41 90 -201v-499q0 -130 -55.5 -186t-179.5 -56h-426v180h59zM397 860h-73v-680h65q32 0 44.5 17t12.5 61v528
q0 41 -11 57.5t-38 16.5z" />
    <glyph glyph-name="B" unicode="&#x412;" horiz-adv-x="722" 
d="M324 1034h73q27 0 38 16t11 58v414q0 45 -12.5 62.5t-44.5 17.5h-65v-568zM84 180v1422h-59v178h421q124 0 179 -56t55 -184v-389q0 -164 -84 -199v-10q90 -41 90 -201v-499q0 -130 -55.5 -186t-179.5 -56h-426v180h59zM397 860h-73v-680h65q32 0 44.5 17t12.5 61v528
q0 41 -11 57.5t-38 16.5z" />
    <glyph glyph-name="B" unicode="&#x392;" horiz-adv-x="722" 
d="M324 1034h73q27 0 38 16t11 58v414q0 45 -12.5 62.5t-44.5 17.5h-65v-568zM84 180v1422h-59v178h421q124 0 179 -56t55 -184v-389q0 -164 -84 -199v-10q90 -41 90 -201v-499q0 -130 -55.5 -186t-179.5 -56h-426v180h59zM397 860h-73v-680h65q32 0 44.5 17t12.5 61v528
q0 41 -11 57.5t-38 16.5z" />
    <glyph glyph-name="C" unicode="C" horiz-adv-x="622" 
d="M233 1796q115 0 164 -82v66h197v-549h-199v250q-2 66 -9 99t-18 42.5t-32 9.5q-25 0 -36.5 -10.5t-17.5 -47t-6 -112.5v-1136q0 -79 6 -117.5t18 -51t36 -12.5t35.5 12.5t17.5 51t6 117.5v311h199v-299q0 -146 -26 -221t-83.5 -104t-169.5 -29q-110 0 -167 29t-83 104.5
t-26 220.5v1165q0 165 47 229t147 64z" />
    <glyph glyph-name="C" unicode="&#x421;" horiz-adv-x="622" 
d="M233 1796q115 0 164 -82v66h197v-549h-199v250q-2 66 -9 99t-18 42.5t-32 9.5q-25 0 -36.5 -10.5t-17.5 -47t-6 -112.5v-1136q0 -79 6 -117.5t18 -51t36 -12.5t35.5 12.5t17.5 51t6 117.5v311h199v-299q0 -146 -26 -221t-83.5 -104t-169.5 -29q-110 0 -167 29t-83 104.5
t-26 220.5v1165q0 165 47 229t147 64z" />
    <glyph glyph-name="D" unicode="D" horiz-adv-x="722" 
d="M324 1602v-1422h63q34 0 46.5 21t12.5 82v1214q0 60 -12.5 82.5t-46.5 22.5h-63zM25 1780h395q149 0 207.5 -67.5t58.5 -250.5v-1149q0 -123 -26.5 -191t-82.5 -95t-157 -27h-395v180h59v1422h-59v178z" />
    <glyph glyph-name="E" unicode="E" horiz-adv-x="677" 
d="M442 1231v371h-118v-568h231v-180h-231v-674h118v457h201v-637h-618v180h59v1422h-59v178h618v-549h-201z" />
    <glyph glyph-name="E" unicode="&#x415;" horiz-adv-x="677" 
d="M442 1231v371h-118v-568h231v-180h-231v-674h118v457h201v-637h-618v180h59v1422h-59v178h618v-549h-201z" />
    <glyph glyph-name="E" unicode="&#x395;" horiz-adv-x="677" 
d="M442 1231v371h-118v-568h231v-180h-231v-674h118v457h201v-637h-618v180h59v1422h-59v178h618v-549h-201z" />
    <glyph glyph-name="F" unicode="F" horiz-adv-x="671" 
d="M442 1231v371h-118v-580h231v-178h-231v-664h73v-180h-372v180h59v1422h-59v178h618v-549h-201z" />
    <glyph glyph-name="G" unicode="G" horiz-adv-x="653" 
d="M334 778v180h282v-958h-215v88q-24 -55 -61.5 -79.5t-103.5 -24.5q-50 0 -85 13.5t-61 46t-38.5 90t-12.5 142.5v1227q0 165 47 229t147 64q127 0 170 -82v66h197v-549h-203v233q0 66 -7 100t-18.5 43t-33.5 9q-25 0 -37 -10.5t-18.5 -47.5t-6.5 -112v-1114
q0 -74 6.5 -111t19 -48t36.5 -11q23 0 34.5 9.5t18.5 42.5t8 99v465h-65z" />
    <glyph glyph-name="H" unicode="H" horiz-adv-x="772" 
d="M324 180h28v-180h-327v180h59v1422h-59v178h327v-178h-28v-570h122v570h-28v178h330v-178h-62v-1422h62v-180h-330v180h28v672h-122v-672z" />
    <glyph glyph-name="H" unicode="&#x41d;" horiz-adv-x="772" 
d="M324 180h28v-180h-327v180h59v1422h-59v178h327v-178h-28v-570h122v570h-28v178h330v-178h-62v-1422h62v-180h-330v180h28v672h-122v-672z" />
    <glyph glyph-name="H" unicode="&#x397;" horiz-adv-x="772" 
d="M324 180h28v-180h-327v180h59v1422h-59v178h327v-178h-28v-570h122v570h-28v178h330v-178h-62v-1422h62v-180h-330v180h28v672h-122v-672z" />
    <glyph glyph-name="I" unicode="I" horiz-adv-x="409" 
d="M324 180h63v-180h-362v180h59v1422h-59v178h362v-178h-63v-1422z" />
    <glyph glyph-name="I" unicode="&#x4cf;" horiz-adv-x="409" 
d="M324 180h63v-180h-362v180h59v1422h-59v178h362v-178h-63v-1422z" />
    <glyph glyph-name="I" unicode="&#x4c0;" horiz-adv-x="409" 
d="M324 180h63v-180h-362v180h59v1422h-59v178h362v-178h-63v-1422z" />
    <glyph glyph-name="I" unicode="&#x406;" horiz-adv-x="409" 
d="M324 180h63v-180h-362v180h59v1422h-59v178h362v-178h-63v-1422z" />
    <glyph glyph-name="I" unicode="&#x399;" horiz-adv-x="409" 
d="M324 180h63v-180h-362v180h59v1422h-59v178h362v-178h-63v-1422z" />
    <glyph glyph-name="J" unicode="J" horiz-adv-x="651" 
d="M285 1780h354v-178h-53v-1264q0 -109 -13.5 -176.5t-47.5 -108t-84 -55t-132 -14.5q-112 0 -170 29t-84 104.5t-26 220.5v299h200v-295q0 -80 5.5 -118t17 -50t35.5 -12t35.5 12t17.5 50.5t6 117.5v1260h-61v178z" />
    <glyph glyph-name="J" unicode="&#x408;" horiz-adv-x="651" 
d="M285 1780h354v-178h-53v-1264q0 -109 -13.5 -176.5t-47.5 -108t-84 -55t-132 -14.5q-112 0 -170 29t-84 104.5t-26 220.5v299h200v-295q0 -80 5.5 -118t17 -50t35.5 -12t35.5 12t17.5 50.5t6 117.5v1260h-61v178z" />
    <glyph glyph-name="K" unicode="K" horiz-adv-x="782" 
d="M324 180h41v-180h-340v180h59v1422h-59v178h340v-178h-41v-576l155 576h-47v178h320v-178h-68l-168 -596l203 -826h53v-180h-338v180h49l-159 656v-656z" />
    <glyph glyph-name="K" unicode="&#x41a;" horiz-adv-x="782" 
d="M324 180h41v-180h-340v180h59v1422h-59v178h340v-178h-41v-576l155 576h-47v178h320v-178h-68l-168 -596l203 -826h53v-180h-338v180h49l-159 656v-656z" />
    <glyph glyph-name="K" unicode="&#x39a;" horiz-adv-x="782" 
d="M324 180h41v-180h-340v180h59v1422h-59v178h340v-178h-41v-576l155 576h-47v178h320v-178h-68l-168 -596l203 -826h53v-180h-338v180h49l-159 656v-656z" />
    <glyph glyph-name="L" unicode="L" horiz-adv-x="671" 
d="M397 1780v-178h-73v-1422h118v457h201v-637h-618v180h59v1422h-59v178h372z" />
    <glyph glyph-name="M" unicode="M" horiz-adv-x="964" 
d="M276 180h50v-180h-301v180h59v1422h-59v178h344l108 -953h8l107 953h350v-178h-61v-1422h61v-180h-313v180h49v932h-8l-131 -1112h-123l-131 1112h-9v-932z" />
    <glyph glyph-name="M" unicode="&#x41c;" horiz-adv-x="964" 
d="M276 180h50v-180h-301v180h59v1422h-59v178h344l108 -953h8l107 953h350v-178h-61v-1422h61v-180h-313v180h49v932h-8l-131 -1112h-123l-131 1112h-9v-932z" />
    <glyph glyph-name="M" unicode="&#x39c;" horiz-adv-x="964" 
d="M276 180h50v-180h-301v180h59v1422h-59v178h344l108 -953h8l107 953h350v-178h-61v-1422h61v-180h-313v180h49v932h-8l-131 -1112h-123l-131 1112h-9v-932z" />
    <glyph glyph-name="N" unicode="N" horiz-adv-x="782" 
d="M535 1602h-60v178h297v-178h-55v-1602h-197l-235 1063h-9v-883h70v-180h-321v180h57v1422h-57v178h321l178 -908h11v730z" />
    <glyph glyph-name="N" unicode="&#x39d;" horiz-adv-x="782" 
d="M535 1602h-60v178h297v-178h-55v-1602h-197l-235 1063h-9v-883h70v-180h-321v180h57v1422h-57v178h321l178 -908h11v730z" />
    <glyph glyph-name="O" unicode="O" horiz-adv-x="675" 
d="M276 1438v-1096q0 -78 6.5 -117t19 -51t36.5 -12q37 0 49 32.5t12 147.5v1096q0 80 -6 118.5t-18 50t-37 11.5t-37 -11.5t-18.5 -50.5t-6.5 -118zM338 1798q119 0 181.5 -29.5t91 -105.5t28.5 -221v-1104q0 -145 -28.5 -220.5t-91 -104.5t-181.5 -29t-181 29t-90 104.5
t-28 220.5v1104q0 145 28 221t90 105.5t181 29.5z" />
    <glyph glyph-name="O" unicode="&#x41e;" horiz-adv-x="675" 
d="M276 1438v-1096q0 -78 6.5 -117t19 -51t36.5 -12q37 0 49 32.5t12 147.5v1096q0 80 -6 118.5t-18 50t-37 11.5t-37 -11.5t-18.5 -50.5t-6.5 -118zM338 1798q119 0 181.5 -29.5t91 -105.5t28.5 -221v-1104q0 -145 -28.5 -220.5t-91 -104.5t-181.5 -29t-181 29t-90 104.5
t-28 220.5v1104q0 145 28 221t90 105.5t181 29.5z" />
    <glyph glyph-name="O" unicode="&#x39f;" horiz-adv-x="675" 
d="M276 1438v-1096q0 -78 6.5 -117t19 -51t36.5 -12q37 0 49 32.5t12 147.5v1096q0 80 -6 118.5t-18 50t-37 11.5t-37 -11.5t-18.5 -50.5t-6.5 -118zM338 1798q119 0 181.5 -29.5t91 -105.5t28.5 -221v-1104q0 -145 -28.5 -220.5t-91 -104.5t-181.5 -29t-181 29t-90 104.5
t-28 220.5v1104q0 145 28 221t90 105.5t181 29.5z" />
    <glyph glyph-name="P" unicode="P" horiz-adv-x="714" 
d="M324 737v-557h51v-180h-350v180h59v1422h-59v178h419q125 0 180.5 -56.5t55.5 -183.5v-561q0 -130 -55.5 -186t-180.5 -56h-120zM324 915h65q33 0 45 16.5t12 61.5v529q0 45 -12.5 62.5t-44.5 17.5h-65v-687z" />
    <glyph glyph-name="P" unicode="&#x420;" horiz-adv-x="714" 
d="M324 737v-557h51v-180h-350v180h59v1422h-59v178h419q125 0 180.5 -56.5t55.5 -183.5v-561q0 -130 -55.5 -186t-180.5 -56h-120zM324 915h65q33 0 45 16.5t12 61.5v529q0 45 -12.5 62.5t-44.5 17.5h-65v-687z" />
    <glyph glyph-name="P" unicode="&#x3a1;" horiz-adv-x="714" 
d="M324 737v-557h51v-180h-350v180h59v1422h-59v178h419q125 0 180.5 -56.5t55.5 -183.5v-561q0 -130 -55.5 -186t-180.5 -56h-120zM324 915h65q33 0 45 16.5t12 61.5v529q0 45 -12.5 62.5t-44.5 17.5h-65v-687z" />
    <glyph glyph-name="Q" unicode="Q" horiz-adv-x="675" 
d="M627 -197h-224l-63 197h-2q-119 0 -181 29t-90 105t-28 222v1086q0 145 28 220.5t90 104.5t181 29t181.5 -29t91 -104.5t28.5 -220.5v-1086q0 -132 -22 -206t-74 -109zM276 1436v-1076q0 -79 6.5 -118t18.5 -50.5t37 -11.5t37 11.5t18 50t6 118.5v1076q0 80 -6 118.5
t-18 50t-37 11.5t-37 -11.5t-18.5 -50.5t-6.5 -118z" />
    <glyph glyph-name="R" unicode="R" horiz-adv-x="757" 
d="M25 1780h426q123 0 179 -56.5t56 -183.5v-418q0 -168 -90 -204v-11q84 -37 90 -180l6 -508q0 -39 33 -39h20v-180h-122q-90 0 -129 47.5t-41 151.5l-7 553q0 41 -11 56t-42 15h-69v-643h51v-180h-350v180h59v1422h-59v178zM324 999h73q27 0 38 16t11 58v449
q0 45 -12.5 62.5t-44.5 17.5h-65v-603z" />
    <glyph glyph-name="S" unicode="S" horiz-adv-x="630" 
d="M276 1473v-211q0 -47 20 -88t66 -97l115 -139q68 -84 91.5 -148.5t23.5 -177.5v-342q0 -159 -47.5 -222.5t-147.5 -63.5q-126 0 -166 86v-70h-194v637h199v-320q0 -68 7 -102t18 -43.5t34 -9.5q35 0 47 28.5t12 126.5v271q0 80 -17 120t-71 107l-112 141
q-64 81 -87.5 145.5t-23.5 166.5v276q0 137 45.5 194.5t142.5 57.5q126 0 166 -82v66h197v-549h-199v242q0 63 -7 95t-18 40t-32 8q-25 0 -37 -8.5t-18.5 -39.5t-6.5 -95z" />
    <glyph glyph-name="S" unicode="&#x405;" horiz-adv-x="630" 
d="M276 1473v-211q0 -47 20 -88t66 -97l115 -139q68 -84 91.5 -148.5t23.5 -177.5v-342q0 -159 -47.5 -222.5t-147.5 -63.5q-126 0 -166 86v-70h-194v637h199v-320q0 -68 7 -102t18 -43.5t34 -9.5q35 0 47 28.5t12 126.5v271q0 80 -17 120t-71 107l-112 141
q-64 81 -87.5 145.5t-23.5 166.5v276q0 137 45.5 194.5t142.5 57.5q126 0 166 -82v66h197v-549h-199v242q0 63 -7 95t-18 40t-32 8q-25 0 -37 -8.5t-18.5 -39.5t-6.5 -95z" />
    <glyph glyph-name="T" unicode="T" horiz-adv-x="823" 
d="M215 1604v-373h-186v549h768v-549h-189v373h-78v-1424h74v-180h-383v180h74v1424h-80z" />
    <glyph glyph-name="T" unicode="&#x422;" horiz-adv-x="823" 
d="M215 1604v-373h-186v549h768v-549h-189v373h-78v-1424h74v-180h-383v180h74v1424h-80z" />
    <glyph glyph-name="T" unicode="&#x3a4;" horiz-adv-x="823" 
d="M215 1604v-373h-186v549h768v-549h-189v373h-78v-1424h74v-180h-383v180h74v1424h-80z" />
    <glyph glyph-name="U" unicode="U" horiz-adv-x="720" 
d="M399 1780h310v-178h-56v-1264q0 -145 -27.5 -220.5t-88.5 -104.5t-179 -29q-116 0 -176 29t-87 104.5t-27 220.5v1264h-56v178h320v-178h-25v-1260q0 -115 11.5 -147.5t48.5 -32.5q24 0 35.5 12t17.5 50.5t6 117.5v1260h-27v178z" />
    <glyph glyph-name="V" unicode="V" 
d="M346 1602h-43l70 -1164h10l68 1164h-41v178h325v-178h-61l-131 -1602h-338l-133 1602h-60v178h334v-178z" />
    <glyph glyph-name="W" unicode="W" horiz-adv-x="1142" 
d="M854 1602h-51v178h321v-178h-55l-113 -1602h-280l-101 1292h-10l-96 -1292h-287l-112 1602h-58v178h324v-178h-49l51 -1170h8l103 1348h243l103 -1348h8z" />
    <glyph glyph-name="X" unicode="X" horiz-adv-x="774" 
d="M463 180l-94 389l-93 -389h60v-180h-311v180h59l197 729l-207 693h-49v178h335v-178h-49l84 -351l84 351h-53v178h324v-178h-78l-189 -701l217 -721h50v-180h-347v180h60z" />
    <glyph glyph-name="X" unicode="&#x425;" horiz-adv-x="774" 
d="M463 180l-94 389l-93 -389h60v-180h-311v180h59l197 729l-207 693h-49v178h335v-178h-49l84 -351l84 351h-53v178h324v-178h-78l-189 -701l217 -721h50v-180h-347v180h60z" />
    <glyph glyph-name="X" unicode="&#x3a7;" horiz-adv-x="774" 
d="M463 180l-94 389l-93 -389h60v-180h-311v180h59l197 729l-207 693h-49v178h335v-178h-49l84 -351l84 351h-53v178h324v-178h-78l-189 -701l217 -721h50v-180h-347v180h60z" />
    <glyph glyph-name="Y" unicode="Y" 
d="M350 1602h-47l74 -498h10l76 498h-47v178h319v-178h-59l-180 -854v-568h73v-180h-381v180h74v584l-188 838h-62v178h338v-178z" />
    <glyph glyph-name="Y" unicode="&#x4ae;" 
d="M350 1602h-47l74 -498h10l76 498h-47v178h319v-178h-59l-180 -854v-568h73v-180h-381v180h74v584l-188 838h-62v178h338v-178z" />
    <glyph glyph-name="Y" unicode="&#x3a5;" 
d="M350 1602h-47l74 -498h10l76 498h-47v178h319v-178h-59l-180 -854v-568h73v-180h-381v180h74v584l-188 838h-62v178h338v-178z" />
    <glyph glyph-name="Z" unicode="Z" horiz-adv-x="698" 
d="M233 1602v-371h-202v549h637v-170l-396 -1430h195v457h201v-637h-637v193l389 1409h-187z" />
    <glyph glyph-name="Z" unicode="&#x396;" horiz-adv-x="698" 
d="M233 1602v-371h-202v549h637v-170l-396 -1430h195v457h201v-637h-637v193l389 1409h-187z" />
    <glyph glyph-name="bracketleft" unicode="[" horiz-adv-x="495" 
d="M131 -338v2454h338v-170h-176v-2114h176v-170h-338z" />
    <glyph glyph-name="backslash" unicode="\" horiz-adv-x="505" 
d="M162 1974l344 -2171h-164l-342 2171h162z" />
    <glyph glyph-name="bracketright" unicode="]" horiz-adv-x="495" 
d="M344 2118v-2454h-336v170h174v2114h-174v170h336z" />
    <glyph glyph-name="asciicircum" unicode="^" horiz-adv-x="741" 
d="M289 1780h162l256 -756h-166l-166 522h-8l-166 -522h-166z" />
    <glyph glyph-name="underscore" unicode="_" horiz-adv-x="581" 
d="M-4 -215v172h590v-172h-590z" />
    <glyph glyph-name="grave" unicode="`" horiz-adv-x="385" 
d="M236 1681l108 -344h-129l-172 344h193z" />
    <glyph glyph-name="a" unicode="a" horiz-adv-x="645" 
d="M578 928v-756h53v-172h-262v66q-36 -82 -164 -82q-85 0 -129.5 48.5t-44.5 172.5v309q0 125 45 171t137 46q111 0 147 -41v264q0 70 -12.5 94.5t-44.5 24.5q-31 0 -43 -20t-12 -74v-160h-211v207q0 116 61.5 167.5t225.5 51.5q55 0 93.5 -5.5t68 -21t46.5 -37.5t28 -59.5
t14.5 -82.5t3.5 -111zM297 580q-29 0 -40 -18t-11 -66v-260q0 -49 11 -67.5t40 -18.5q49 0 63 43v356q-19 31 -63 31z" />
    <glyph glyph-name="a" unicode="&#x430;" horiz-adv-x="645" 
d="M578 928v-756h53v-172h-262v66q-36 -82 -164 -82q-85 0 -129.5 48.5t-44.5 172.5v309q0 125 45 171t137 46q111 0 147 -41v264q0 70 -12.5 94.5t-44.5 24.5q-31 0 -43 -20t-12 -74v-160h-211v207q0 116 61.5 167.5t225.5 51.5q55 0 93.5 -5.5t68 -21t46.5 -37.5t28 -59.5
t14.5 -82.5t3.5 -111zM297 580q-29 0 -40 -18t-11 -66v-260q0 -49 11 -67.5t40 -18.5q49 0 63 43v356q-19 31 -63 31z" />
    <glyph glyph-name="b" unicode="b" horiz-adv-x="671" 
d="M84 172v1434h-59v174h276v-606q41 71 158 71q86 0 130 -51t44 -188v-785q0 -134 -44 -185.5t-128 -51.5q-131 0 -168 82v-66h-268v172h59zM301 1030v-833q15 -39 64 -39q30 0 40.5 17.5t10.5 68.5v741q0 50 -11 69t-40 19q-47 0 -64 -43z" />
    <glyph glyph-name="c" unicode="c" horiz-adv-x="569" 
d="M211 1245q111 0 151 -88v70h181v-408h-178v123q0 80 -11.5 105.5t-44.5 25.5q-32 0 -43.5 -26.5t-11.5 -112.5v-637q0 -89 11 -114t44 -25t44.5 25t11.5 114v176h178v-197q0 -119 -25 -181.5t-77 -86.5t-150 -24q-73 0 -118 12t-76.5 44.5t-44.5 88.5t-13 147v685
q0 82 12 138.5t35.5 87.5t53.5 44.5t71 13.5z" />
    <glyph glyph-name="c" unicode="&#x441;" horiz-adv-x="569" 
d="M211 1245q111 0 151 -88v70h181v-408h-178v123q0 80 -11.5 105.5t-44.5 25.5q-32 0 -43.5 -26.5t-11.5 -112.5v-637q0 -89 11 -114t44 -25t44.5 25t11.5 114v176h178v-197q0 -119 -25 -181.5t-77 -86.5t-150 -24q-73 0 -118 12t-76.5 44.5t-44.5 88.5t-13 147v685
q0 82 12 138.5t35.5 87.5t53.5 44.5t71 13.5z" />
    <glyph glyph-name="d" unicode="d" horiz-adv-x="651" 
d="M369 197v833q-17 43 -62 43q-31 0 -42 -19t-11 -69v-741q0 -51 11 -68.5t42 -17.5q47 0 62 39zM369 1174v432h-62v174h279v-1608h53v-172h-264v66q-31 -82 -162 -82q-86 0 -130 50.5t-44 186.5v785q0 137 44 188t130 51q116 0 156 -71z" />
    <glyph glyph-name="e" unicode="e" horiz-adv-x="581" 
d="M543 569h-295v-272q0 -90 11.5 -114.5t47.5 -24.5q24 0 35 8.5t17 38t6 90.5v139h178v-160q0 -172 -52.5 -231t-201.5 -59q-72 0 -116.5 12t-76 44.5t-44.5 89t-13 146.5v674q0 120 25.5 184t77.5 87.5t147 23.5q148 0 201 -60.5t53 -234.5v-381zM248 932v-211h117v211
q0 89 -12 115t-46 26q-24 0 -35.5 -9t-17.5 -39t-6 -93z" />
    <glyph glyph-name="e" unicode="&#x435;" horiz-adv-x="581" 
d="M543 569h-295v-272q0 -90 11.5 -114.5t47.5 -24.5q24 0 35 8.5t17 38t6 90.5v139h178v-160q0 -172 -52.5 -231t-201.5 -59q-72 0 -116.5 12t-76 44.5t-44.5 89t-13 146.5v674q0 120 25.5 184t77.5 87.5t147 23.5q148 0 201 -60.5t53 -234.5v-381zM248 932v-211h117v211
q0 89 -12 115t-46 26q-24 0 -35.5 -9t-17.5 -39t-6 -93z" />
    <glyph glyph-name="f" unicode="f" horiz-adv-x="468" 
d="M25 1227h59v368q0 109 46.5 155t164.5 46q86 0 156 -29v-170q-37 19 -84 19q-39 0 -52.5 -18.5t-13.5 -77.5v-293h137v-170h-137v-885h68v-172h-344v172h59v885h-59v170z" />
    <glyph glyph-name="g" unicode="g" horiz-adv-x="643" 
d="M578 1057v-1069q0 -97 -11 -156t-42.5 -97.5t-83 -52.5t-136.5 -14q-167 0 -264 45v178q93 -43 201 -43q70 0 94 23.5t24 95.5v103q-42 -68 -155 -68q-87 0 -131.5 52t-44.5 188v764q0 137 44 188t130 51q128 0 166 -84v66h262v-170h-53zM360 219v811q-19 43 -63 43
q-29 0 -40 -19t-11 -69v-721q0 -49 11 -67.5t40 -18.5q44 0 63 41z" />
    <glyph glyph-name="h" unicode="h" horiz-adv-x="708" 
d="M301 1030v-858h45v-172h-321v172h59v1434h-59v174h276v-606q41 71 158 71q86 0 130 -51t44 -188v-834h53v-172h-270v985q0 50 -11 69t-40 19q-47 0 -64 -43z" />
    <glyph glyph-name="h" unicode="&#x4bb;" horiz-adv-x="708" 
d="M301 1030v-858h45v-172h-321v172h59v1434h-59v174h276v-606q41 71 158 71q86 0 130 -51t44 -188v-834h53v-172h-270v985q0 50 -11 69t-40 19q-47 0 -64 -43z" />
    <glyph glyph-name="i" unicode="i" horiz-adv-x="366" 
d="M25 1227h276v-1055h53v-172h-329v172h59v885h-59v170zM90 1391v217h193v-217h-193z" />
    <glyph glyph-name="i" unicode="&#x456;" horiz-adv-x="366" 
d="M25 1227h276v-1055h53v-172h-329v172h59v885h-59v170zM90 1391v217h193v-217h-193z" />
    <glyph glyph-name="j" unicode="j" horiz-adv-x="352" 
d="M90 -51v1108h-59v170h276v-1342q0 -122 -45 -169.5t-164 -47.5q-21 0 -40 1.5t-31 3.5t-28 6.5t-21.5 6t-20 7t-16.5 6.5v170q44 -21 86 -21q38 0 50.5 20t12.5 81zM96 1391v217h193v-217h-193z" />
    <glyph glyph-name="j" unicode="&#x458;" horiz-adv-x="352" 
d="M90 -51v1108h-59v170h276v-1342q0 -122 -45 -169.5t-164 -47.5q-21 0 -40 1.5t-31 3.5t-28 6.5t-21.5 6t-20 7t-16.5 6.5v170q44 -21 86 -21q38 0 50.5 20t12.5 81zM96 1391v217h193v-217h-193z" />
    <glyph glyph-name="k" unicode="k" horiz-adv-x="716" 
d="M686 1057h-78l-127 -359l160 -526h64v-172h-312v172h31l-123 397v-397h33v-172h-309v172h59v1434h-59v174h276v-1071l119 348h-53v170h319v-170z" />
    <glyph glyph-name="l" unicode="l" horiz-adv-x="366" 
d="M25 1780h276v-1608h53v-172h-329v172h59v1434h-59v174z" />
    <glyph glyph-name="m" unicode="m" horiz-adv-x="1009" 
d="M25 1227h268v-66q41 84 162 84q110 0 147 -90q34 48 71.5 69t98.5 21q87 0 129.5 -49.5t42.5 -183.5v-840h53v-172h-268v991q0 44 -11.5 63t-37.5 19q-31 0 -57 -26q0 -4 1 -14t1 -15v-846h43v-172h-262v997q0 40 -11 58t-37 18q-40 0 -57 -43v-858h45v-172h-321v172h59
v885h-59v170z" />
    <glyph glyph-name="n" unicode="n" horiz-adv-x="698" 
d="M25 1227h268v-66q41 84 166 84q86 0 130 -51t44 -188v-834h53v-172h-270v985q0 50 -11 69t-40 19q-47 0 -64 -43v-858h45v-172h-321v172h59v885h-59v170z" />
    <glyph glyph-name="o" unicode="o" horiz-adv-x="622" 
d="M311 1073q-34 0 -45.5 -25.5t-11.5 -115.5v-635q0 -90 11.5 -114.5t45.5 -24.5q24 0 35 8.5t17 38.5t6 92v635q0 90 -12 115.5t-46 25.5zM311 -16q-107 0 -163 23.5t-82.5 86t-26.5 182.5v674q0 91 13 147t46.5 89.5t83 46t129.5 12.5q107 0 164 -24.5t84 -87.5t27 -183
v-674q0 -119 -27 -182t-84 -86.5t-164 -23.5z" />
    <glyph glyph-name="o" unicode="&#x43e;" horiz-adv-x="622" 
d="M311 1073q-34 0 -45.5 -25.5t-11.5 -115.5v-635q0 -90 11.5 -114.5t45.5 -24.5q24 0 35 8.5t17 38.5t6 92v635q0 90 -12 115.5t-46 25.5zM311 -16q-107 0 -163 23.5t-82.5 86t-26.5 182.5v674q0 91 13 147t46.5 89.5t83 46t129.5 12.5q107 0 164 -24.5t84 -87.5t27 -183
v-674q0 -119 -27 -182t-84 -86.5t-164 -23.5z" />
    <glyph glyph-name="o" unicode="&#x3bf;" horiz-adv-x="622" 
d="M311 1073q-34 0 -45.5 -25.5t-11.5 -115.5v-635q0 -90 11.5 -114.5t45.5 -24.5q24 0 35 8.5t17 38.5t6 92v635q0 90 -12 115.5t-46 25.5zM311 -16q-107 0 -163 23.5t-82.5 86t-26.5 182.5v674q0 91 13 147t46.5 89.5t83 46t129.5 12.5q107 0 164 -24.5t84 -87.5t27 -183
v-674q0 -119 -27 -182t-84 -86.5t-164 -23.5z" />
    <glyph glyph-name="p" unicode="p" horiz-adv-x="659" 
d="M12 1227h262v-66q40 84 164 84q86 0 131 -51t45 -188v-783q0 -137 -44.5 -188t-129.5 -51q-118 0 -157 73v-200h61v-172h-340v172h64v1200h-56v170zM283 1030v-831q19 -43 63 -43q29 0 40 20t11 68v741q0 50 -11 69t-40 19q-44 0 -63 -43z" />
    <glyph glyph-name="p" unicode="&#x440;" horiz-adv-x="659" 
d="M12 1227h262v-66q40 84 164 84q86 0 131 -51t45 -188v-783q0 -137 -44.5 -188t-129.5 -51q-118 0 -157 73v-200h61v-172h-340v172h64v1200h-56v170zM283 1030v-831q19 -43 63 -43q29 0 40 20t11 68v741q0 50 -11 69t-40 19q-44 0 -63 -43z" />
    <glyph glyph-name="q" unicode="q" horiz-adv-x="651" 
d="M586 1057v-1200h61v-172h-340v172h62v200q-37 -73 -156 -73q-86 0 -130 51t-44 188v783q0 137 44 188t130 51q130 0 162 -84v66h264v-170h-53zM369 199v831q-17 43 -62 43q-31 0 -42 -19t-11 -69v-741q0 -48 11.5 -68t41.5 -20q45 0 62 43z" />
    <glyph glyph-name="r" unicode="r" horiz-adv-x="606" 
d="M25 1227h268v-66q32 84 149 84q71 0 109.5 -42.5t38.5 -155.5v-228h-178v174q0 45 -11 62.5t-36 17.5q-47 0 -64 -43v-858h47v-172h-323v172h59v885h-59v170z" />
    <glyph glyph-name="s" unicode="s" horiz-adv-x="577" 
d="M252 1001v-106q0 -36 20.5 -69t61.5 -76l104 -111q58 -63 81.5 -118t23.5 -142v-182q0 -118 -42.5 -165.5t-129.5 -47.5q-123 0 -162 77v-61h-172v424h176v-186q0 -50 12 -65t41 -15q31 0 44.5 16t13.5 64v135q0 52 -15.5 84t-60.5 80l-105 110q-58 59 -77.5 109.5
t-18.5 138.5v164q0 99 40 142.5t120 43.5q110 0 153 -80v62h181v-398h-179v175q0 41 -13 55t-40 14q-32 0 -44.5 -14t-12.5 -58z" />
    <glyph glyph-name="s" unicode="&#x455;" horiz-adv-x="577" 
d="M252 1001v-106q0 -36 20.5 -69t61.5 -76l104 -111q58 -63 81.5 -118t23.5 -142v-182q0 -118 -42.5 -165.5t-129.5 -47.5q-123 0 -162 77v-61h-172v424h176v-186q0 -50 12 -65t41 -15q31 0 44.5 16t13.5 64v135q0 52 -15.5 84t-60.5 80l-105 110q-58 59 -77.5 109.5
t-18.5 138.5v164q0 99 40 142.5t120 43.5q110 0 153 -80v62h181v-398h-179v175q0 41 -13 55t-40 14q-32 0 -44.5 -14t-12.5 -58z" />
    <glyph glyph-name="t" unicode="t" horiz-adv-x="464" 
d="M25 1227h59v282h217v-282h133v-170h-133v-801q0 -60 13.5 -79t52.5 -19q48 0 84 16v-164q-75 -26 -156 -26q-119 0 -165 45t-46 155v873h-59v170z" />
    <glyph glyph-name="u" unicode="u" horiz-adv-x="679" 
d="M670 0h-264v66q-36 -82 -164 -82q-87 0 -130.5 51.5t-43.5 187.5v834h-58v170h273v-983q0 -51 11 -68.5t42 -17.5q46 0 61 39v860h-43v170h260v-1055h56v-172z" />
    <glyph glyph-name="v" unicode="v" horiz-adv-x="710" 
d="M332 1057h-41l69 -791h9l65 791h-43v170h305v-170h-63l-125 -1057h-309l-125 1057h-62v170h320v-170z" />
    <glyph glyph-name="v" unicode="&#x3bd;" horiz-adv-x="710" 
d="M332 1057h-41l69 -791h9l65 791h-43v170h305v-170h-63l-125 -1057h-309l-125 1057h-62v170h320v-170z" />
    <glyph glyph-name="w" unicode="w" horiz-adv-x="1032" 
d="M770 1057h-47v170h293v-170h-49l-90 -1057h-273l-80 868h-10l-82 -868h-280l-91 1057h-49v170h303v-170h-49l41 -740h10l84 910h232l84 -910h8z" />
    <glyph glyph-name="x" unicode="x" horiz-adv-x="722" 
d="M403 172l-65 219l-66 -219h35v-172h-282v172h77l160 457l-166 428h-71v170h323v-170h-37l64 -209l69 209h-36v170h290v-170h-90l-155 -439l174 -446h71v-172h-331v172h36z" />
    <glyph glyph-name="x" unicode="&#x445;" horiz-adv-x="722" 
d="M403 172l-65 219l-66 -219h35v-172h-282v172h77l160 457l-166 428h-71v170h323v-170h-37l64 -209l69 209h-36v170h290v-170h-90l-155 -439l174 -446h71v-172h-331v172h36z" />
    <glyph glyph-name="x" unicode="&#x3c7;" horiz-adv-x="722" 
d="M403 172l-65 219l-66 -219h35v-172h-282v172h77l160 457l-166 428h-71v170h323v-170h-37l64 -209l69 209h-36v170h290v-170h-90l-155 -439l174 -446h71v-172h-331v172h36z" />
    <glyph glyph-name="y" unicode="y" horiz-adv-x="710" 
d="M12 1227h322v-170h-58l78 -533h8l87 533h-54v170h301v-170h-61l-195 -1125q-29 -147 -82.5 -205.5t-154.5 -58.5q-56 0 -146 29v170q42 -19 99 -19q45 0 69 26t37 103l14 84l-204 996h-60v170z" />
    <glyph glyph-name="y" unicode="&#x443;" horiz-adv-x="710" 
d="M12 1227h322v-170h-58l78 -533h8l87 533h-54v170h301v-170h-61l-195 -1125q-29 -147 -82.5 -205.5t-154.5 -58.5q-56 0 -146 29v170q42 -19 99 -19q45 0 69 26t37 103l14 84l-204 996h-60v170z" />
    <glyph glyph-name="z" unicode="z" horiz-adv-x="600" 
d="M209 1061v-217h-178v383h536v-152l-321 -907h145v240h176v-408h-536v162l319 899h-141z" />
    <glyph glyph-name="braceleft" unicode="{" horiz-adv-x="495" 
d="M227 893v-8q56 -13 81.5 -51.5t25.5 -108.5v-782q0 -111 94 -111h41v-170h-55q-133 0 -187.5 62t-54.5 208v768q0 53 -16 79t-56 26h-43v170h43q40 0 56 25t16 77v768q0 146 55 208.5t187 62.5h55v-170h-41q-94 0 -94 -109v-784q0 -70 -25.5 -108.5t-81.5 -51.5z" />
    <glyph glyph-name="bar" unicode="|" horiz-adv-x="423" 
d="M131 -186v2150h162v-2150h-162z" />
    <glyph glyph-name="braceright" unicode="}" horiz-adv-x="495" 
d="M268 885v10q-56 12 -81 50.5t-25 109.5v782q0 109 -94 109h-41v172h55q131 0 186.5 -63.5t55.5 -207.5v-770q0 -52 15.5 -77t55.5 -25h43v-170h-43q-40 0 -55.5 -25.5t-15.5 -77.5v-770q0 -143 -55.5 -205.5t-186.5 -62.5h-55v168h41q94 0 94 111v782q0 71 25 109.5
t81 50.5z" />
    <glyph glyph-name="asciitilde" unicode="~" horiz-adv-x="741" 
d="M569 772q-70 0 -202 53q-141 54 -193 54q-28 0 -40.5 -15.5t-12.5 -50.5v-41h-92v41q0 107 33 150t106 43q50 0 205.5 -53.5t193.5 -53.5q29 0 41.5 15.5t12.5 50.5v41h92v-41q0 -110 -34 -151.5t-110 -41.5z" />
    <glyph glyph-name="nbspace" unicode="&#xa0;" horiz-adv-x="401" 
 />
    <glyph glyph-name="exclamdown" unicode="&#xa1;" horiz-adv-x="364" 
d="M289 1462v-245h-211v245h211zM266 1051l66 -1368h-299l67 1368h166z" />
    <glyph glyph-name="cent" unicode="&#xa2;" horiz-adv-x="686" 
d="M39 285v1249q0 151 44 206.5t173 55.5q9 0 26 -1t25 -1v133h72v-149q50 -18 74 -64v66h180v-549h-180v250q0 72 -16.5 100t-57.5 33v-1450q44 6 59 40t15 128v305h180v-354q0 -169 -51.5 -230t-202.5 -67v-158h-72v156q-86 2 -137.5 17t-81.5 52.5t-39.5 89.5t-9.5 142z
M233 332q0 -97 14.5 -130.5t59.5 -39.5v1452q-45 -3 -59.5 -26.5t-14.5 -90.5v-1165z" />
    <glyph glyph-name="sterling" unicode="&#xa3;" horiz-adv-x="673" 
d="M25 860v172h59v465q0 174 56 236.5t214 62.5q163 0 221 -67t58 -261v-237h-215v233q0 95 -12 123.5t-46 28.5q-35 0 -46 -27.5t-11 -120.5v-436h213v-172h-213v-680h115v457h200v-637h-593v180h59v680h-59z" />
    <glyph glyph-name="currency" unicode="&#xa4;" horiz-adv-x="897" 
d="M750 424l-127 139q-70 -20 -183 -20q-112 0 -172 18l-123 -137l-114 123l104 119q-37 73 -37 231q0 148 35 219l-102 117l112 123l115 -129q77 22 186 22q118 0 191 -24l117 131l112 -123l-108 -125q30 -76 30 -211q0 -149 -36 -225l114 -125zM438 684q112 0 145 39.5
t33 173.5q0 70 -6 108t-27 61.5t-53 30.5t-92 7q-110 0 -139 -36.5t-29 -170.5q0 -135 29.5 -174t138.5 -39z" />
    <glyph glyph-name="yen" unicode="&#xa5;" 
d="M31 748v159h202l-159 695h-62v178h338v-178h-47l74 -472h10l76 472h-47v178h319v-178h-59l-154 -695h195v-159h-221v-170h221v-160h-221v-238h73v-180h-381v180h74v238h-231v160h231v170h-231z" />
    <glyph glyph-name="brokenbar" unicode="&#xa6;" horiz-adv-x="423" 
d="M131 1079v885h162v-885h-162zM131 -186v886h162v-886h-162z" />
    <glyph glyph-name="section" unicode="&#xa7;" horiz-adv-x="616" 
d="M348 -16v252q0 39 -17 75.5t-44 67.5t-59.5 63t-65.5 70t-60 81t-44 103.5t-17 130.5q0 142 74 260q-54 83 -54 183v268q0 146 56.5 202t206.5 56q154 0 205 -67t51 -261v-221h-197v223q0 94 -11 124t-44 30q-34 0 -47 -29.5t-13 -113.5v-234q0 -41 17 -78t44.5 -68
t60.5 -63t66 -70t60.5 -81t44.5 -104t17 -132q0 -142 -74 -260q53 -84 53 -176v-287q0 -146 -57 -203t-207 -57q-152 0 -203 67t-51 261v240h197v-242q0 -92 11 -122t42 -30q34 0 46.5 29.5t12.5 112.5zM256 936l-27 25q-20 -53 -20 -125q0 -54 12.5 -98.5t42 -84t51 -62
t64.5 -61.5l8 -8q23 61 23 125q0 94 -38.5 156t-115.5 133z" />
    <glyph glyph-name="dieresis" unicode="&#xa8;" horiz-adv-x="569" 
d="M338 1391v217h186v-217h-186zM49 1391v217h182v-217h-182z" />
    <glyph glyph-name="copyright" unicode="&#xa9;" horiz-adv-x="761" 
d="M379 1796q103 0 165.5 -14.5t104.5 -55t58 -107.5t16 -177v-1104q0 -110 -16 -177t-58 -107.5t-104.5 -55t-165.5 -14.5q-136 0 -206.5 29t-102 104t-31.5 221v1104q0 146 31.5 221t102 104t206.5 29zM379 1694q-135 0 -184.5 -56t-49.5 -213v-1071q0 -158 49.5 -213
t184.5 -55q136 0 185.5 55t49.5 213v1071q0 157 -49.5 213t-185.5 56zM344 1395q57 0 72 -29v23h90v-246h-76v94q0 49 -9 63.5t-34 14.5q-24 0 -33.5 -15t-9.5 -63v-745q0 -48 9.5 -62t33.5 -14q26 0 34.5 13.5t8.5 62.5v133h76v-136q0 -94 -25.5 -125.5t-99.5 -31.5
q-72 0 -97.5 31.5t-25.5 125.5v777q0 73 21 101t65 28z" />
    <glyph glyph-name="ordfeminine" unicode="&#xaa;" horiz-adv-x="489" 
d="M401 866v-153h-321v153h321zM399 1602v-488h35v-104h-166v30q-22 -43 -104 -43q-55 0 -83 31t-28 111v196q0 80 28.5 109t88.5 29q64 0 92 -19v168q0 44 -8.5 59t-28.5 15q-19 0 -25.5 -12t-6.5 -46v-110h-136v135q0 74 39 106.5t142 32.5q101 0 131 -39t30 -161z
M221 1378q-18 0 -24.5 -10.5t-6.5 -40.5v-174q0 -31 6 -41t25 -10q30 0 41 24v236q-11 16 -41 16z" />
    <glyph glyph-name="guillemotleft" unicode="&#xab;" horiz-adv-x="563" 
d="M145 0l-139 614l139 613h162l-139 -613l139 -614h-162zM395 0l-139 614l139 613h162l-139 -613l139 -614h-162z" />
    <glyph glyph-name="logicalnot" unicode="&#xac;" horiz-adv-x="741" 
d="M29 823v162h684v-637h-160v475h-524z" />
    <glyph glyph-name="registered" unicode="&#xae;" horiz-adv-x="538" 
d="M266 1796q136 0 184 -47.5t48 -189.5v-592q0 -143 -48 -190.5t-184 -47.5q-132 0 -178.5 47.5t-46.5 190.5v592q0 143 46.5 190t178.5 47zM268 1731q-90 0 -122.5 -38t-32.5 -143v-575q0 -105 32.5 -141.5t122.5 -36.5q92 0 125 36.5t33 141.5v575q0 105 -33.5 143
t-124.5 38zM188 1513h103q33 0 48 -15t15 -50v-115q0 -42 -22 -51v-8q22 -13 22 -45v-148q0 -8 11 -8h6v-47h-31q-27 0 -39 10t-12 37v160q0 16 -19 16h-16v-223h-66v487zM254 1300h18q17 0 17 19v125q0 18 -19 18h-16v-162z" />
    <glyph glyph-name="macron" unicode="&#xaf;" horiz-adv-x="550" 
d="M39 1409v166h475v-166h-475z" />
    <glyph glyph-name="degree" unicode="&#xb0;" horiz-adv-x="516" 
d="M258 1264q-125 0 -172 54.5t-47 211.5t47 211.5t174 54.5q126 0 173.5 -54.5t47.5 -211.5t-48 -211.5t-175 -54.5zM258 1364q70 0 91.5 31.5t21.5 134.5t-21.5 132.5t-91.5 29.5q-71 0 -89.5 -28.5t-18.5 -133.5q0 -106 18.5 -136t89.5 -30z" />
    <glyph glyph-name="plusminus" unicode="&#xb1;" horiz-adv-x="741" 
d="M31 809v162h258v258h162v-258h260v-162h-260v-256h-162v256h-258zM29 193v161h684v-161h-684z" />
    <glyph glyph-name="twosuperior" unicode="&#xb2;" horiz-adv-x="417" 
d="M233 1481v118q0 44 -6 58t-26 14q-19 0 -25 -14.5t-6 -63.5v-114h-121v131q0 106 31 143t123 37t127 -34.5t35 -127.5v-141q0 -51 -13.5 -84t-52.5 -78l-68 -78q-27 -31 -36 -56t-9 -69v-202h66v231h117v-350h-320v315q0 61 13 98.5t49 81.5l90 105q30 35 32 80z" />
    <glyph glyph-name="threesuperior" unicode="&#xb3;" horiz-adv-x="409" 
d="M233 1417v176q0 50 -5.5 64t-24.5 14q-21 0 -28 -14.5t-7 -65.5v-102h-125v123q0 105 34 141.5t128 36.5q92 0 124.5 -34t32.5 -128v-196q0 -91 -49 -109v-8q52 -23 52 -113v-217q0 -115 -34 -154.5t-128 -39.5q-93 0 -126.5 39t-33.5 155v156h125v-137q0 -60 7 -77.5
t28 -17.5q19 0 24.5 16.5t5.5 78.5v213q0 25 -5.5 34t-20.5 9h-86v118h86q15 0 20.5 8t5.5 31z" />
    <glyph glyph-name="acute" unicode="&#xb4;" horiz-adv-x="385" 
d="M150 1679h192l-172 -342h-127z" />
    <glyph glyph-name="paragraph" unicode="&#xb6;" horiz-adv-x="768" 
d="M205 1780h538v-174h-71v-1368q0 -64 51 -64h20v-174h-84q-145 0 -145 178v1428h-80v-1921h-158v1556h-71q-91 0 -130.5 36.5t-39.5 119.5v229q0 82 39.5 118t130.5 36z" />
    <glyph glyph-name="periodcentered" unicode="&#xb7;" horiz-adv-x="272" 
d="M31 645v246h211v-246h-211z" />
    <glyph glyph-name="cedilla" unicode="&#xb8;" horiz-adv-x="385" 
d="M287 -336h-193q88 85 88 191q0 41 -16 100h127q39 -79 39 -148q0 -76 -45 -143z" />
    <glyph glyph-name="onesuperior" unicode="&#xb9;" horiz-adv-x="276" 
d="M213 920h33v-119h-209v119h37v743h-37v117h176v-860z" />
    <glyph glyph-name="ordmasculine" unicode="&#xba;" horiz-adv-x="489" 
d="M242 1690q-22 0 -29.5 -16t-7.5 -72v-410q0 -56 7.5 -72t29.5 -16t29.5 16t7.5 72v410q0 56 -7.5 72t-29.5 16zM242 997q-99 0 -135.5 38t-36.5 149v426q0 110 36.5 148t135.5 38t137.5 -38t38.5 -148v-426q0 -110 -38.5 -148.5t-137.5 -38.5zM401 866v-153h-319v153h319
z" />
    <glyph glyph-name="guillemotright" unicode="&#xbb;" horiz-adv-x="563" 
d="M307 614l-139 -614h-162l139 614l-139 613h162zM557 614l-139 -614h-162l139 614l-139 613h162z" />
    <glyph glyph-name="onequarter" unicode="&#xbc;" horiz-adv-x="935" 
d="M45 0l719 1780h121l-719 -1780h-121zM299 920h33v-119h-209v119h37v743h-37v117h176v-860zM528 262v115l138 602h172v-600h55v-117h-55v-143h39v-119h-209v119h41v143h-181zM702 684l-67 -305h74v305h-7z" />
    <glyph glyph-name="onehalf" unicode="&#xbd;" horiz-adv-x="935" 
d="M45 0l719 1780h121l-719 -1780h-121zM299 920h33v-119h-209v119h37v743h-37v117h176v-860zM758 680v119q0 43 -6.5 57t-26.5 14q-19 0 -25 -14t-6 -63v-115h-121v131q0 106 31 143t123 37t127 -34.5t35 -127.5v-141q0 -51 -13.5 -84t-52.5 -78l-67 -78q-27 -31 -36 -55.5
t-9 -68.5v-203h65v231h117v-350h-320v315q0 61 13 99t49 82l90 104q31 36 33 80z" />
    <glyph glyph-name="threequarters" unicode="&#xbe;" horiz-adv-x="940" 
d="M53 0l719 1780h121l-719 -1780h-121zM530 262v115l138 602h172v-600h55v-117h-55v-143h39v-119h-209v119h41v143h-181zM705 684l-68 -305h74v305h-6zM233 1417v176q0 50 -5.5 64t-24.5 14q-21 0 -28 -14.5t-7 -65.5v-102h-125v123q0 105 34 141.5t128 36.5
q92 0 124.5 -34t32.5 -128v-196q0 -91 -49 -109v-8q52 -23 52 -113v-217q0 -115 -34 -154.5t-128 -39.5q-93 0 -126.5 39t-33.5 155v156h125v-137q0 -60 7 -77.5t28 -17.5q19 0 24.5 16.5t5.5 78.5v213q0 25 -5.5 34t-20.5 9h-86v118h86q15 0 20.5 8t5.5 31z" />
    <glyph glyph-name="questiondown" unicode="&#xbf;" horiz-adv-x="612" 
d="M426 1466v-247h-211v247h211zM311 -332q-149 0 -206.5 57t-57.5 201v260q0 81 13 137.5t51 133.5l86 174q24 50 31.5 85.5t7.5 94.5v242h167v-240q0 -94 -12 -158.5t-43 -128.5l-51 -104q-24 -44 -32.5 -82.5t-8.5 -103.5v-252q0 -83 12.5 -113.5t46.5 -30.5
q31 0 42.5 31t11.5 123v242h196v-240q0 -194 -51 -261t-203 -67z" />
    <glyph glyph-name="Agrave" unicode="&#xc0;" 
d="M125 1602v178h498v-178h-62l115 -1422h59v-180h-332v180h41l-18 301h-113l-16 -301h39v-180h-324v180h62l114 1422h-63zM367 1434l-45 -783h96l-43 783h-8zM336 1843l-146 275h193l84 -275h-131z" />
    <glyph glyph-name="Aacute" unicode="&#xc1;" 
d="M125 1602v178h498v-178h-62l115 -1422h59v-180h-332v180h41l-18 301h-113l-16 -301h39v-180h-324v180h62l114 1422h-63zM367 1434l-45 -783h96l-43 783h-8zM557 2118l-145 -275h-129l82 275h192z" />
    <glyph glyph-name="Acircumflex" unicode="&#xc2;" 
d="M125 1602v178h498v-178h-62l115 -1422h59v-180h-332v180h41l-18 301h-113l-16 -301h39v-180h-324v180h62l114 1422h-63zM367 1434l-45 -783h96l-43 783h-8zM455 1843l-80 146h-6l-78 -146h-119l104 275h193l104 -275h-118z" />
    <glyph glyph-name="Atilde" unicode="&#xc3;" 
d="M125 1602v178h498v-178h-62l115 -1422h59v-180h-332v180h41l-18 301h-113l-16 -301h39v-180h-324v180h62l114 1422h-63zM367 1434l-45 -783h96l-43 783h-8zM498 1884q-49 0 -125 39t-107 39q-23 0 -33 -12t-10 -41v-23h-94v76q0 71 32 108t93 37q46 0 120 -37.5
t111 -37.5q24 0 33.5 11t9.5 42v22h93v-75q0 -148 -123 -148z" />
    <glyph glyph-name="Adieresis" unicode="&#xc4;" 
d="M125 1602v178h498v-178h-62l115 -1422h59v-180h-332v180h41l-18 301h-113l-16 -301h39v-180h-324v180h62l114 1422h-63zM367 1434l-45 -783h96l-43 783h-8zM428 1903v188h184v-188h-184zM137 1903v188h185v-188h-185z" />
    <glyph glyph-name="Aring" unicode="&#xc5;" 
d="M125 1602v178h172q-55 10 -76.5 48.5t-21.5 117.5q0 102 37.5 138t138.5 36q99 0 137.5 -36.5t38.5 -137.5q0 -78 -23.5 -117t-78.5 -49h174v-178h-62l115 -1422h59v-180h-332v180h41l-18 301h-113l-16 -301h39v-180h-324v180h62l114 1422h-63zM367 1434l-45 -783h96
l-43 783h-8zM373 1853q39 0 51 18.5t12 74.5q0 58 -11.5 74t-51.5 16q-38 0 -49 -16t-11 -74q0 -57 11 -75t49 -18z" />
    <glyph glyph-name="AE" unicode="&#xc6;" horiz-adv-x="1019" 
d="M125 1780h858v-549h-201v371h-110v-570h223v-180h-223v-672h110v457h201v-637h-600v180h59v301h-127l-20 -301h41v-180h-324v180h60l116 1422h-63v178zM397 1602l-69 -951h114v951h-45z" />
    <glyph glyph-name="Ccedilla" unicode="&#xc7;" horiz-adv-x="622" 
d="M233 1796q115 0 164 -82v66h197v-549h-199v250q-2 66 -9 99t-18 42.5t-32 9.5q-25 0 -36.5 -10.5t-17.5 -47t-6 -112.5v-1136q0 -79 6 -117.5t18 -51t36 -12.5t35.5 12.5t17.5 51t6 117.5v311h199v-299q0 -146 -26 -221t-83.5 -104t-169.5 -29q-110 0 -167 29t-83 104.5
t-26 220.5v1165q0 165 47 229t147 64zM373 -336h-193q88 85 88 191q0 41 -16 100h127q39 -79 39 -148q0 -76 -45 -143z" />
    <glyph glyph-name="Egrave" unicode="&#xc8;" horiz-adv-x="677" 
d="M442 1231v371h-118v-568h231v-180h-231v-674h118v457h201v-637h-618v180h59v1422h-59v178h618v-549h-201zM301 1843l-145 275h192l84 -275h-131z" />
    <glyph glyph-name="Egrave" unicode="&#x400;" horiz-adv-x="677" 
d="M442 1231v371h-118v-568h231v-180h-231v-674h118v457h201v-637h-618v180h59v1422h-59v178h618v-549h-201zM301 1843l-145 275h192l84 -275h-131z" />
    <glyph glyph-name="Eacute" unicode="&#xc9;" horiz-adv-x="677" 
d="M442 1231v371h-118v-568h231v-180h-231v-674h118v457h201v-637h-618v180h59v1422h-59v178h618v-549h-201zM522 2118l-145 -275h-129l82 275h192z" />
    <glyph glyph-name="Ecircumflex" unicode="&#xca;" horiz-adv-x="677" 
d="M442 1231v371h-118v-568h231v-180h-231v-674h118v457h201v-637h-618v180h59v1422h-59v178h618v-549h-201zM422 1843l-80 146h-6l-78 -146h-119l105 275h192l105 -275h-119z" />
    <glyph glyph-name="Edieresis" unicode="&#xcb;" horiz-adv-x="677" 
d="M442 1231v371h-118v-568h231v-180h-231v-674h118v457h201v-637h-618v180h59v1422h-59v178h618v-549h-201zM393 1903v188h185v-188h-185zM102 1903v188h185v-188h-185z" />
    <glyph glyph-name="Edieresis" unicode="&#x401;" horiz-adv-x="677" 
d="M442 1231v371h-118v-568h231v-180h-231v-674h118v457h201v-637h-618v180h59v1422h-59v178h618v-549h-201zM393 1903v188h185v-188h-185zM102 1903v188h185v-188h-185z" />
    <glyph glyph-name="Igrave" unicode="&#xcc;" horiz-adv-x="409" 
d="M324 180h63v-180h-362v180h59v1422h-59v178h362v-178h-63v-1422zM168 1843l-145 275h192l84 -275h-131z" />
    <glyph glyph-name="Iacute" unicode="&#xcd;" horiz-adv-x="409" 
d="M324 180h63v-180h-362v180h59v1422h-59v178h362v-178h-63v-1422zM387 2118l-145 -275h-129l82 275h192z" />
    <glyph glyph-name="Icircumflex" unicode="&#xce;" horiz-adv-x="409" 
d="M324 180h63v-180h-362v180h59v1422h-59v178h362v-178h-63v-1422zM287 1843l-80 146h-6l-78 -146h-119l105 275h192l105 -275h-119z" />
    <glyph glyph-name="Idieresis" unicode="&#xcf;" horiz-adv-x="475" 
d="M356 180h64v-180h-363v180h60v1422h-60v178h363v-178h-64v-1422zM291 1903v188h184v-188h-184zM0 1903v188h184v-188h-184z" />
    <glyph glyph-name="Idieresis" unicode="&#x407;" horiz-adv-x="475" 
d="M356 180h64v-180h-363v180h60v1422h-60v178h363v-178h-64v-1422zM291 1903v188h184v-188h-184zM0 1903v188h184v-188h-184z" />
    <glyph glyph-name="Idieresis" unicode="&#x3aa;" horiz-adv-x="475" 
d="M356 180h64v-180h-363v180h60v1422h-60v178h363v-178h-64v-1422zM291 1903v188h184v-188h-184zM0 1903v188h184v-188h-184z" />
    <glyph glyph-name="Eth" unicode="&#xd0;" horiz-adv-x="722" 
d="M2 852v180h82v570h-59v178h395q149 0 207.5 -67.5t58.5 -250.5v-1149q0 -123 -26.5 -191t-82.5 -95t-157 -27h-395v180h59v672h-82zM324 1602v-570h77v-180h-77v-672h63q34 0 46.5 21t12.5 82v1214q0 60 -12.5 82.5t-46.5 22.5h-63z" />
    <glyph glyph-name="Eth" unicode="&#x110;" horiz-adv-x="722" 
d="M2 852v180h82v570h-59v178h395q149 0 207.5 -67.5t58.5 -250.5v-1149q0 -123 -26.5 -191t-82.5 -95t-157 -27h-395v180h59v672h-82zM324 1602v-570h77v-180h-77v-672h63q34 0 46.5 21t12.5 82v1214q0 60 -12.5 82.5t-46.5 22.5h-63z" />
    <glyph glyph-name="Ntilde" unicode="&#xd1;" horiz-adv-x="782" 
d="M535 1602h-60v178h297v-178h-55v-1602h-197l-235 1063h-9v-883h70v-180h-321v180h57v1422h-57v178h321l178 -908h11v730zM514 1884q-49 0 -124.5 39t-106.5 39q-23 0 -33 -12t-10 -41v-23h-95v76q0 71 32 108t93 37q46 0 121 -37.5t111 -37.5q24 0 33.5 11t9.5 42v22h92
v-75q0 -148 -123 -148z" />
    <glyph glyph-name="Ograve" unicode="&#xd2;" horiz-adv-x="675" 
d="M276 1438v-1096q0 -78 6.5 -117t19 -51t36.5 -12q37 0 49 32.5t12 147.5v1096q0 80 -6 118.5t-18 50t-37 11.5t-37 -11.5t-18.5 -50.5t-6.5 -118zM338 1798q119 0 181.5 -29.5t91 -105.5t28.5 -221v-1104q0 -145 -28.5 -220.5t-91 -104.5t-181.5 -29t-181 29t-90 104.5
t-28 220.5v1104q0 145 28 221t90 105.5t181 29.5zM301 1843l-145 275h192l84 -275h-131z" />
    <glyph glyph-name="Oacute" unicode="&#xd3;" horiz-adv-x="675" 
d="M276 1438v-1096q0 -78 6.5 -117t19 -51t36.5 -12q37 0 49 32.5t12 147.5v1096q0 80 -6 118.5t-18 50t-37 11.5t-37 -11.5t-18.5 -50.5t-6.5 -118zM338 1798q119 0 181.5 -29.5t91 -105.5t28.5 -221v-1104q0 -145 -28.5 -220.5t-91 -104.5t-181.5 -29t-181 29t-90 104.5
t-28 220.5v1104q0 145 28 221t90 105.5t181 29.5zM520 2118l-145 -275h-129l82 275h192z" />
    <glyph glyph-name="Ocircumflex" unicode="&#xd4;" horiz-adv-x="675" 
d="M276 1438v-1096q0 -78 6.5 -117t19 -51t36.5 -12q37 0 49 32.5t12 147.5v1096q0 80 -6 118.5t-18 50t-37 11.5t-37 -11.5t-18.5 -50.5t-6.5 -118zM338 1798q119 0 181.5 -29.5t91 -105.5t28.5 -221v-1104q0 -145 -28.5 -220.5t-91 -104.5t-181.5 -29t-181 29t-90 104.5
t-28 220.5v1104q0 145 28 221t90 105.5t181 29.5zM418 1843l-80 146h-6l-78 -146h-119l105 275h192l105 -275h-119z" />
    <glyph glyph-name="Otilde" unicode="&#xd5;" horiz-adv-x="675" 
d="M276 1438v-1096q0 -78 6.5 -117t19 -51t36.5 -12q37 0 49 32.5t12 147.5v1096q0 80 -6 118.5t-18 50t-37 11.5t-37 -11.5t-18.5 -50.5t-6.5 -118zM338 1798q119 0 181.5 -29.5t91 -105.5t28.5 -221v-1104q0 -145 -28.5 -220.5t-91 -104.5t-181.5 -29t-181 29t-90 104.5
t-28 220.5v1104q0 145 28 221t90 105.5t181 29.5zM461 1884q-49 0 -125 39t-107 39q-23 0 -33 -12t-10 -41v-23h-94v76q0 71 32 108t93 37q45 0 120 -37.5t112 -37.5q24 0 33.5 11t9.5 42v22h92v-75q0 -148 -123 -148z" />
    <glyph glyph-name="Odieresis" unicode="&#xd6;" horiz-adv-x="675" 
d="M276 1438v-1096q0 -78 6.5 -117t19 -51t36.5 -12q37 0 49 32.5t12 147.5v1096q0 80 -6 118.5t-18 50t-37 11.5t-37 -11.5t-18.5 -50.5t-6.5 -118zM338 1798q119 0 181.5 -29.5t91 -105.5t28.5 -221v-1104q0 -145 -28.5 -220.5t-91 -104.5t-181.5 -29t-181 29t-90 104.5
t-28 220.5v1104q0 145 28 221t90 105.5t181 29.5zM391 1903v188h184v-188h-184zM100 1903v188h185v-188h-185z" />
    <glyph glyph-name="multiply" unicode="&#xd7;" horiz-adv-x="741" 
d="M172 569l-115 119l199 199l-199 203l115 116l199 -202l198 202l115 -116l-199 -203l199 -199l-115 -119l-198 203z" />
    <glyph glyph-name="Oslash" unicode="&#xd8;" horiz-adv-x="675" 
d="M338 1798q119 0 180 -31l43 170h78l-55 -221q55 -78 55 -274v-1104q0 -145 -28.5 -220.5t-91 -104.5t-181.5 -29q-115 0 -180 26l-41 -168h-78l55 221q-55 71 -55 275v1104q0 145 28 221t90 105.5t181 29.5zM276 1438v-643l123 493v150q0 80 -6 118.5t-18 50t-37 11.5
t-37 -11.5t-18.5 -50.5t-6.5 -118zM338 162q37 0 49 32.5t12 147.5v633l-123 -492v-141q0 -78 6.5 -117t19 -51t36.5 -12z" />
    <glyph glyph-name="Ugrave" unicode="&#xd9;" horiz-adv-x="720" 
d="M399 1780h310v-178h-56v-1264q0 -145 -27.5 -220.5t-88.5 -104.5t-179 -29q-116 0 -176 29t-87 104.5t-27 220.5v1264h-56v178h320v-178h-25v-1260q0 -115 11.5 -147.5t48.5 -32.5q24 0 35.5 12t17.5 50.5t6 117.5v1260h-27v178zM322 1843l-146 275h193l84 -275h-131z
" />
    <glyph glyph-name="Uacute" unicode="&#xda;" horiz-adv-x="720" 
d="M399 1780h310v-178h-56v-1264q0 -145 -27.5 -220.5t-88.5 -104.5t-179 -29q-116 0 -176 29t-87 104.5t-27 220.5v1264h-56v178h320v-178h-25v-1260q0 -115 11.5 -147.5t48.5 -32.5q24 0 35.5 12t17.5 50.5t6 117.5v1260h-27v178zM543 2118l-146 -275h-129l82 275h193z
" />
    <glyph glyph-name="Ucircumflex" unicode="&#xdb;" horiz-adv-x="720" 
d="M399 1780h310v-178h-56v-1264q0 -145 -27.5 -220.5t-88.5 -104.5t-179 -29q-116 0 -176 29t-87 104.5t-27 220.5v1264h-56v178h320v-178h-25v-1260q0 -115 11.5 -147.5t48.5 -32.5q24 0 35.5 12t17.5 50.5t6 117.5v1260h-27v178zM442 1843l-80 146h-6l-77 -146h-119
l104 275h193l104 -275h-119z" />
    <glyph glyph-name="Udieresis" unicode="&#xdc;" horiz-adv-x="720" 
d="M399 1780h310v-178h-56v-1264q0 -145 -27.5 -220.5t-88.5 -104.5t-179 -29q-116 0 -176 29t-87 104.5t-27 220.5v1264h-56v178h320v-178h-25v-1260q0 -115 11.5 -147.5t48.5 -32.5q24 0 35.5 12t17.5 50.5t6 117.5v1260h-27v178zM412 1903v188h184v-188h-184zM121 1903
v188h184v-188h-184z" />
    <glyph glyph-name="Yacute" unicode="&#xdd;" 
d="M350 1602h-47l74 -498h10l76 498h-47v178h319v-178h-59l-180 -854v-568h73v-180h-381v180h74v584l-188 838h-62v178h338v-178zM565 2118l-145 -275h-129l82 275h192z" />
    <glyph glyph-name="Thorn" unicode="&#xde;" horiz-adv-x="716" 
d="M84 180v1419h-59v181h350v-181h-51v-174h120q125 0 180.5 -56t55.5 -185v-580q0 -130 -55.5 -186t-180.5 -56h-120v-182h51v-180h-350v180h59zM446 618v551q0 45 -12 61.5t-45 16.5h-65v-706h65q33 0 45 16t12 61z" />
    <glyph glyph-name="germandbls" unicode="&#xdf;" horiz-adv-x="673" 
d="M625 1503v-340q0 -87 -19 -133t-61 -65v-9q90 -38 90 -198v-412q0 -138 -24.5 -214t-71.5 -104t-131 -28h-80v172h30q22 0 32.5 12t16 49.5t5.5 114.5v451q0 40 -10.5 56.5t-34.5 16.5h-21v179h21q24 0 33.5 15t9.5 56v361q0 90 -12 115.5t-46 25.5t-45.5 -25.5
t-11.5 -115.5v-1483h-270v172h53v1331q0 174 58 233.5t214 59.5q107 0 164 -24t84 -87t27 -182z" />
    <glyph glyph-name="agrave" unicode="&#xe0;" horiz-adv-x="645" 
d="M578 928v-756h53v-172h-262v66q-36 -82 -164 -82q-85 0 -129.5 48.5t-44.5 172.5v309q0 125 45 171t137 46q111 0 147 -41v264q0 70 -12.5 94.5t-44.5 24.5q-31 0 -43 -20t-12 -74v-160h-211v207q0 116 61.5 167.5t225.5 51.5q55 0 93.5 -5.5t68 -21t46.5 -37.5t28 -59.5
t14.5 -82.5t3.5 -111zM297 580q-29 0 -40 -18t-11 -66v-260q0 -49 11 -67.5t40 -18.5q49 0 63 43v356q-19 31 -63 31zM305 1681l109 -344h-129l-172 344h192z" />
    <glyph glyph-name="aacute" unicode="&#xe1;" horiz-adv-x="645" 
d="M578 928v-756h53v-172h-262v66q-36 -82 -164 -82q-85 0 -129.5 48.5t-44.5 172.5v309q0 125 45 171t137 46q111 0 147 -41v264q0 70 -12.5 94.5t-44.5 24.5q-31 0 -43 -20t-12 -74v-160h-211v207q0 116 61.5 167.5t225.5 51.5q55 0 93.5 -5.5t68 -21t46.5 -37.5t28 -59.5
t14.5 -82.5t3.5 -111zM297 580q-29 0 -40 -18t-11 -66v-260q0 -49 11 -67.5t40 -18.5q49 0 63 43v356q-19 31 -63 31zM311 1679h193l-172 -342h-127z" />
    <glyph glyph-name="acircumflex" unicode="&#xe2;" horiz-adv-x="645" 
d="M578 928v-756h53v-172h-262v66q-36 -82 -164 -82q-85 0 -129.5 48.5t-44.5 172.5v309q0 125 45 171t137 46q111 0 147 -41v264q0 70 -12.5 94.5t-44.5 24.5q-31 0 -43 -20t-12 -74v-160h-211v207q0 116 61.5 167.5t225.5 51.5q55 0 93.5 -5.5t68 -21t46.5 -37.5t28 -59.5
t14.5 -82.5t3.5 -111zM297 580q-29 0 -40 -18t-11 -66v-260q0 -49 11 -67.5t40 -18.5q49 0 63 43v356q-19 31 -63 31zM389 1337l-80 195h-8l-76 -195h-119l103 342h192l107 -342h-119z" />
    <glyph glyph-name="atilde" unicode="&#xe3;" horiz-adv-x="645" 
d="M578 928v-756h53v-172h-262v66q-36 -82 -164 -82q-85 0 -129.5 48.5t-44.5 172.5v309q0 125 45 171t137 46q111 0 147 -41v264q0 70 -12.5 94.5t-44.5 24.5q-31 0 -43 -20t-12 -74v-160h-211v207q0 116 61.5 167.5t225.5 51.5q55 0 93.5 -5.5t68 -21t46.5 -37.5t28 -59.5
t14.5 -82.5t3.5 -111zM297 580q-29 0 -40 -18t-11 -66v-260q0 -49 11 -67.5t40 -18.5q49 0 63 43v356q-19 31 -63 31zM430 1364q-40 0 -83 21.5t-81.5 43t-66.5 21.5q-24 0 -34.5 -12.5t-10.5 -46.5v-27h-91v92q0 176 125 176q41 0 118.5 -45t111.5 -45q24 0 33.5 13t9.5 49
v26h94v-94q0 -172 -125 -172z" />
    <glyph glyph-name="adieresis" unicode="&#xe4;" horiz-adv-x="645" 
d="M578 928v-756h53v-172h-262v66q-36 -82 -164 -82q-85 0 -129.5 48.5t-44.5 172.5v309q0 125 45 171t137 46q111 0 147 -41v264q0 70 -12.5 94.5t-44.5 24.5q-31 0 -43 -20t-12 -74v-160h-211v207q0 116 61.5 167.5t225.5 51.5q55 0 93.5 -5.5t68 -21t46.5 -37.5t28 -59.5
t14.5 -82.5t3.5 -111zM297 580q-29 0 -40 -18t-11 -66v-260q0 -49 11 -67.5t40 -18.5q49 0 63 43v356q-19 31 -63 31zM360 1391v217h187v-217h-187zM72 1391v217h182v-217h-182z" />
    <glyph glyph-name="aring" unicode="&#xe5;" horiz-adv-x="645" 
d="M578 928v-756h53v-172h-262v66q-36 -82 -164 -82q-85 0 -129.5 48.5t-44.5 172.5v309q0 125 45 171t137 46q111 0 147 -41v264q0 70 -12.5 94.5t-44.5 24.5q-31 0 -43 -20t-12 -74v-160h-211v207q0 116 61.5 167.5t225.5 51.5q55 0 93.5 -5.5t68 -21t46.5 -37.5t28 -59.5
t14.5 -82.5t3.5 -111zM297 580q-29 0 -40 -18t-11 -66v-260q0 -49 11 -67.5t40 -18.5q49 0 63 43v356q-19 31 -63 31zM305 1321q-100 0 -137 44.5t-37 172.5q0 125 37 168t139 43q101 0 138.5 -43t37.5 -168q0 -128 -38 -172.5t-140 -44.5zM305 1413q40 0 52 23.5t12 101.5
q0 75 -12 97t-50 22q-39 0 -50 -21.5t-11 -97.5q0 -79 10.5 -102t48.5 -23z" />
    <glyph glyph-name="ae" unicode="&#xe6;" horiz-adv-x="913" 
d="M324 1245q104 0 153 -24q49 24 148 24q147 0 199.5 -60.5t52.5 -234.5v-381h-295v-272q0 -89 12 -114t47 -25q36 0 47.5 24t11.5 113v139h177v-160q0 -118 -23 -179t-75.5 -86t-153.5 -25q-133 0 -185 47q-77 -47 -225 -47q-94 0 -139 47t-45 174v309q0 125 45 171
t137 46q106 0 147 -41v264q0 70 -12.5 94.5t-44.5 24.5q-31 0 -43 -20t-12 -74v-160h-211v207q0 116 61.5 167.5t225.5 51.5zM297 580q-29 0 -40 -18t-11 -66v-260q0 -49 11 -67.5t40 -18.5q49 0 63 43v356q-19 31 -63 31zM582 932v-211h118v211q0 89 -12 115t-47 26
q-23 0 -34.5 -9t-18 -39.5t-6.5 -92.5z" />
    <glyph glyph-name="ccedilla" unicode="&#xe7;" horiz-adv-x="569" 
d="M211 1245q111 0 151 -88v70h181v-408h-178v123q0 80 -11.5 105.5t-44.5 25.5q-32 0 -43.5 -26.5t-11.5 -112.5v-637q0 -89 11 -114t44 -25t44.5 25t11.5 114v176h178v-197q0 -119 -25 -181.5t-77 -86.5t-150 -24q-73 0 -118 12t-76.5 44.5t-44.5 88.5t-13 147v685
q0 82 12 138.5t35.5 87.5t53.5 44.5t71 13.5zM348 -336h-192q88 85 88 191q0 37 -17 100h127q39 -79 39 -148q0 -76 -45 -143z" />
    <glyph glyph-name="egrave" unicode="&#xe8;" horiz-adv-x="581" 
d="M543 569h-295v-272q0 -90 11.5 -114.5t47.5 -24.5q24 0 35 8.5t17 38t6 90.5v139h178v-160q0 -172 -52.5 -231t-201.5 -59q-72 0 -116.5 12t-76 44.5t-44.5 89t-13 146.5v674q0 120 25.5 184t77.5 87.5t147 23.5q148 0 201 -60.5t53 -234.5v-381zM248 932v-211h117v211
q0 89 -12 115t-46 26q-24 0 -35.5 -9t-17.5 -39t-6 -93zM287 1681l108 -344h-129l-172 344h193z" />
    <glyph glyph-name="egrave" unicode="&#x450;" horiz-adv-x="581" 
d="M543 569h-295v-272q0 -90 11.5 -114.5t47.5 -24.5q24 0 35 8.5t17 38t6 90.5v139h178v-160q0 -172 -52.5 -231t-201.5 -59q-72 0 -116.5 12t-76 44.5t-44.5 89t-13 146.5v674q0 120 25.5 184t77.5 87.5t147 23.5q148 0 201 -60.5t53 -234.5v-381zM248 932v-211h117v211
q0 89 -12 115t-46 26q-24 0 -35.5 -9t-17.5 -39t-6 -93zM287 1681l108 -344h-129l-172 344h193z" />
    <glyph glyph-name="eacute" unicode="&#xe9;" horiz-adv-x="581" 
d="M543 569h-295v-272q0 -90 11.5 -114.5t47.5 -24.5q24 0 35 8.5t17 38t6 90.5v139h178v-160q0 -172 -52.5 -231t-201.5 -59q-72 0 -116.5 12t-76 44.5t-44.5 89t-13 146.5v674q0 120 25.5 184t77.5 87.5t147 23.5q148 0 201 -60.5t53 -234.5v-381zM248 932v-211h117v211
q0 89 -12 115t-46 26q-24 0 -35.5 -9t-17.5 -39t-6 -93zM293 1679h192l-172 -342h-127z" />
    <glyph glyph-name="ecircumflex" unicode="&#xea;" horiz-adv-x="581" 
d="M543 569h-295v-272q0 -90 11.5 -114.5t47.5 -24.5q24 0 35 8.5t17 38t6 90.5v139h178v-160q0 -172 -52.5 -231t-201.5 -59q-72 0 -116.5 12t-76 44.5t-44.5 89t-13 146.5v674q0 120 25.5 184t77.5 87.5t147 23.5q148 0 201 -60.5t53 -234.5v-381zM248 932v-211h117v211
q0 89 -12 115t-46 26q-24 0 -35.5 -9t-17.5 -39t-6 -93zM373 1337l-80 195h-8l-76 -195h-119l103 342h192l107 -342h-119z" />
    <glyph glyph-name="edieresis" unicode="&#xeb;" horiz-adv-x="581" 
d="M543 569h-295v-272q0 -90 11.5 -114.5t47.5 -24.5q24 0 35 8.5t17 38t6 90.5v139h178v-160q0 -172 -52.5 -231t-201.5 -59q-72 0 -116.5 12t-76 44.5t-44.5 89t-13 146.5v674q0 120 25.5 184t77.5 87.5t147 23.5q148 0 201 -60.5t53 -234.5v-381zM248 932v-211h117v211
q0 89 -12 115t-46 26q-24 0 -35.5 -9t-17.5 -39t-6 -93zM342 1391v217h186v-217h-186zM53 1391v217h183v-217h-183z" />
    <glyph glyph-name="edieresis" unicode="&#x451;" horiz-adv-x="581" 
d="M543 569h-295v-272q0 -90 11.5 -114.5t47.5 -24.5q24 0 35 8.5t17 38t6 90.5v139h178v-160q0 -172 -52.5 -231t-201.5 -59q-72 0 -116.5 12t-76 44.5t-44.5 89t-13 146.5v674q0 120 25.5 184t77.5 87.5t147 23.5q148 0 201 -60.5t53 -234.5v-381zM248 932v-211h117v211
q0 89 -12 115t-46 26q-24 0 -35.5 -9t-17.5 -39t-6 -93zM342 1391v217h186v-217h-186zM53 1391v217h183v-217h-183z" />
    <glyph glyph-name="igrave" unicode="&#xec;" horiz-adv-x="370" 
d="M193 1681l108 -344h-129l-172 344h193zM27 1227h276v-1055h53v-172h-329v172h59v885h-59v170z" />
    <glyph glyph-name="iacute" unicode="&#xed;" horiz-adv-x="368" 
d="M176 1679h193l-172 -342h-127zM25 1227h276v-1055h53v-172h-329v172h59v885h-59v170z" />
    <glyph glyph-name="icircumflex" unicode="&#xee;" horiz-adv-x="397" 
d="M39 1227h276v-1055h54v-172h-330v172h59v885h-59v170zM281 1337l-80 195h-8l-76 -195h-119l102 342h193l106 -342h-118z" />
    <glyph glyph-name="idieresis" unicode="&#xef;" horiz-adv-x="475" 
d="M289 1391v217h186v-217h-186zM0 1391v217h182v-217h-182zM78 1227h276v-1055h54v-172h-330v172h59v885h-59v170z" />
    <glyph glyph-name="idieresis" unicode="&#x457;" horiz-adv-x="475" 
d="M289 1391v217h186v-217h-186zM0 1391v217h182v-217h-182zM78 1227h276v-1055h54v-172h-330v172h59v885h-59v170z" />
    <glyph glyph-name="eth" unicode="&#xf0;" horiz-adv-x="622" 
d="M586 1741v-123l-90 -53q90 -266 90 -604v-685q0 -119 -27 -182t-84 -86.5t-164 -23.5t-163 23.5t-82.5 86t-26.5 182.5v674q0 152 40 223.5t142 71.5q82 0 133 -65h8q-21 151 -57 276l-178 -100v121l145 84q-47 127 -110 219h229q41 -62 64 -115zM311 1073
q-33 0 -45 -27.5t-12 -113.5v-635q0 -90 11.5 -114.5t45.5 -24.5q24 0 35 8.5t17 38.5t6 92v670q-6 60 -19 83t-39 23z" />
    <glyph glyph-name="ntilde" unicode="&#xf1;" horiz-adv-x="698" 
d="M25 1227h268v-66q41 84 166 84q86 0 130 -51t44 -188v-834h53v-172h-270v985q0 50 -11 69t-40 19q-47 0 -64 -43v-858h45v-172h-321v172h59v885h-59v170zM471 1364q-40 0 -83 21.5t-81.5 43t-66.5 21.5q-24 0 -34.5 -12.5t-10.5 -46.5v-27h-91v92q0 176 125 176
q41 0 118.5 -45t111.5 -45q24 0 33.5 13t9.5 49v26h94v-94q0 -172 -125 -172z" />
    <glyph glyph-name="ograve" unicode="&#xf2;" horiz-adv-x="622" 
d="M311 1073q-34 0 -45.5 -25.5t-11.5 -115.5v-635q0 -90 11.5 -114.5t45.5 -24.5q24 0 35 8.5t17 38.5t6 92v635q0 90 -12 115.5t-46 25.5zM311 -16q-107 0 -163 23.5t-82.5 86t-26.5 182.5v674q0 91 13 147t46.5 89.5t83 46t129.5 12.5q107 0 164 -24.5t84 -87.5t27 -183
v-674q0 -119 -27 -182t-84 -86.5t-164 -23.5zM307 1681l109 -344h-129l-172 344h192z" />
    <glyph glyph-name="oacute" unicode="&#xf3;" horiz-adv-x="622" 
d="M311 1073q-34 0 -45.5 -25.5t-11.5 -115.5v-635q0 -90 11.5 -114.5t45.5 -24.5q24 0 35 8.5t17 38.5t6 92v635q0 90 -12 115.5t-46 25.5zM311 -16q-107 0 -163 23.5t-82.5 86t-26.5 182.5v674q0 91 13 147t46.5 89.5t83 46t129.5 12.5q107 0 164 -24.5t84 -87.5t27 -183
v-674q0 -119 -27 -182t-84 -86.5t-164 -23.5zM313 1679h193l-172 -342h-127z" />
    <glyph glyph-name="ocircumflex" unicode="&#xf4;" horiz-adv-x="622" 
d="M311 1073q-34 0 -45.5 -25.5t-11.5 -115.5v-635q0 -90 11.5 -114.5t45.5 -24.5q24 0 35 8.5t17 38.5t6 92v635q0 90 -12 115.5t-46 25.5zM311 -16q-107 0 -163 23.5t-82.5 86t-26.5 182.5v674q0 91 13 147t46.5 89.5t83 46t129.5 12.5q107 0 164 -24.5t84 -87.5t27 -183
v-674q0 -119 -27 -182t-84 -86.5t-164 -23.5zM393 1337l-80 195h-8l-76 -195h-118l102 342h193l106 -342h-119z" />
    <glyph glyph-name="otilde" unicode="&#xf5;" horiz-adv-x="622" 
d="M311 1073q-34 0 -45.5 -25.5t-11.5 -115.5v-635q0 -90 11.5 -114.5t45.5 -24.5q24 0 35 8.5t17 38.5t6 92v635q0 90 -12 115.5t-46 25.5zM311 -16q-107 0 -163 23.5t-82.5 86t-26.5 182.5v674q0 91 13 147t46.5 89.5t83 46t129.5 12.5q107 0 164 -24.5t84 -87.5t27 -183
v-674q0 -119 -27 -182t-84 -86.5t-164 -23.5zM432 1364q-40 0 -83 21.5t-81.5 43t-66.5 21.5q-24 0 -34.5 -12.5t-10.5 -46.5v-27h-90v92q0 176 124 176q41 0 118.5 -45t111.5 -45q24 0 33.5 13t9.5 49v26h94v-94q0 -172 -125 -172z" />
    <glyph glyph-name="odieresis" unicode="&#xf6;" horiz-adv-x="622" 
d="M311 1073q-34 0 -45.5 -25.5t-11.5 -115.5v-635q0 -90 11.5 -114.5t45.5 -24.5q24 0 35 8.5t17 38.5t6 92v635q0 90 -12 115.5t-46 25.5zM311 -16q-107 0 -163 23.5t-82.5 86t-26.5 182.5v674q0 91 13 147t46.5 89.5t83 46t129.5 12.5q107 0 164 -24.5t84 -87.5t27 -183
v-674q0 -119 -27 -182t-84 -86.5t-164 -23.5zM362 1391v217h187v-217h-187zM74 1391v217h182v-217h-182z" />
    <glyph glyph-name="divide" unicode="&#xf7;" horiz-adv-x="741" 
d="M29 809v162h684v-162h-684zM264 1147v233h211v-233h-211zM264 397v236h211v-236h-211z" />
    <glyph glyph-name="oslash" unicode="&#xf8;" horiz-adv-x="622" 
d="M311 -16q-93 0 -151 18l-43 -141h-78l55 182q-55 63 -55 233v674q0 91 13 147t46.5 89.5t83 46t129.5 12.5q91 0 150 -18l45 147h80l-60 -190q60 -60 60 -234v-674q0 -119 -27 -182t-84 -86.5t-164 -23.5zM311 158q24 0 35 8.5t17 38.5t6 92v377l-115 -371v-6
q0 -90 11.5 -114.5t45.5 -24.5zM311 1073q-34 0 -45.5 -25.5t-11.5 -115.5v-375l115 375q0 90 -12 115.5t-46 25.5z" />
    <glyph glyph-name="ugrave" unicode="&#xf9;" horiz-adv-x="679" 
d="M670 0h-264v66q-36 -82 -164 -82q-87 0 -130.5 51.5t-43.5 187.5v834h-58v170h273v-983q0 -51 11 -68.5t42 -17.5q46 0 61 39v860h-43v170h260v-1055h56v-172zM324 1681l108 -344h-129l-172 344h193z" />
    <glyph glyph-name="uacute" unicode="&#xfa;" horiz-adv-x="679" 
d="M670 0h-264v66q-36 -82 -164 -82q-87 0 -130.5 51.5t-43.5 187.5v834h-58v170h273v-983q0 -51 11 -68.5t42 -17.5q46 0 61 39v860h-43v170h260v-1055h56v-172zM330 1679h192l-172 -342h-127z" />
    <glyph glyph-name="ucircumflex" unicode="&#xfb;" horiz-adv-x="679" 
d="M670 0h-264v66q-36 -82 -164 -82q-87 0 -130.5 51.5t-43.5 187.5v834h-58v170h273v-983q0 -51 11 -68.5t42 -17.5q46 0 61 39v860h-43v170h260v-1055h56v-172zM408 1337l-80 195h-9l-75 -195h-119l102 342h193l106 -342h-118z" />
    <glyph glyph-name="udieresis" unicode="&#xfc;" horiz-adv-x="679" 
d="M670 0h-264v66q-36 -82 -164 -82q-87 0 -130.5 51.5t-43.5 187.5v834h-58v170h273v-983q0 -51 11 -68.5t42 -17.5q46 0 61 39v860h-43v170h260v-1055h56v-172zM379 1391v217h186v-217h-186zM90 1391v217h182v-217h-182z" />
    <glyph glyph-name="yacute" unicode="&#xfd;" horiz-adv-x="710" 
d="M12 1227h322v-170h-58l78 -533h8l87 533h-54v170h301v-170h-61l-195 -1125q-29 -147 -82.5 -205.5t-154.5 -58.5q-56 0 -146 29v170q42 -19 99 -19q45 0 69 26t37 103l14 84l-204 996h-60v170zM365 1679h192l-172 -342h-127z" />
    <glyph glyph-name="thorn" unicode="&#xfe;" horiz-adv-x="671" 
d="M20 -143h64v1749h-59v174h276v-606q36 71 158 71q86 0 130 -51t44 -188v-783q0 -137 -45 -188t-131 -51q-124 0 -156 73v-200h59v-172h-340v172zM301 1030v-831q17 -43 64 -43q28 0 39.5 20.5t11.5 67.5v741q0 50 -11 69t-40 19q-47 0 -64 -43z" />
    <glyph glyph-name="ydieresis" unicode="&#xff;" horiz-adv-x="710" 
d="M12 1227h322v-170h-58l78 -533h8l87 533h-54v170h301v-170h-61l-195 -1125q-29 -147 -82.5 -205.5t-154.5 -58.5q-56 0 -146 29v170q42 -19 99 -19q45 0 69 26t37 103l14 84l-204 996h-60v170zM410 1391v217h186v-217h-186zM121 1391v217h182v-217h-182z" />
    <glyph glyph-name="Amacron" unicode="&#x100;" 
d="M125 1602v178h498v-178h-62l115 -1422h59v-180h-332v180h41l-18 301h-113l-16 -301h39v-180h-324v180h62l114 1422h-63zM367 1434l-45 -783h96l-43 783h-8zM135 1935v156h477v-156h-477z" />
    <glyph glyph-name="amacron" unicode="&#x101;" horiz-adv-x="645" 
d="M578 928v-756h53v-172h-262v66q-36 -82 -164 -82q-85 0 -129.5 48.5t-44.5 172.5v309q0 125 45 171t137 46q111 0 147 -41v264q0 70 -12.5 94.5t-44.5 24.5q-31 0 -43 -20t-12 -74v-160h-211v207q0 116 61.5 167.5t225.5 51.5q55 0 93.5 -5.5t68 -21t46.5 -37.5t28 -59.5
t14.5 -82.5t3.5 -111zM297 580q-29 0 -40 -18t-11 -66v-260q0 -49 11 -67.5t40 -18.5q49 0 63 43v356q-19 31 -63 31zM68 1409v166h475v-166h-475z" />
    <glyph glyph-name="Abreve" unicode="&#x102;" 
d="M125 1602v178h498v-178h-62l115 -1422h59v-180h-332v180h41l-18 301h-113l-16 -301h39v-180h-324v180h62l114 1422h-63zM367 1434l-45 -783h96l-43 783h-8zM375 1847q-134 0 -182 48t-48 173v33h91v-26q0 -53 27.5 -74t111.5 -21t110.5 21t26.5 74v26h92v-33
q0 -125 -48 -173t-181 -48z" />
    <glyph glyph-name="abreve" unicode="&#x103;" horiz-adv-x="645" 
d="M578 928v-756h53v-172h-262v66q-36 -82 -164 -82q-85 0 -129.5 48.5t-44.5 172.5v309q0 125 45 171t137 46q111 0 147 -41v264q0 70 -12.5 94.5t-44.5 24.5q-31 0 -43 -20t-12 -74v-160h-211v207q0 116 61.5 167.5t225.5 51.5q55 0 93.5 -5.5t68 -21t46.5 -37.5t28 -59.5
t14.5 -82.5t3.5 -111zM297 580q-29 0 -40 -18t-11 -66v-260q0 -49 11 -67.5t40 -18.5q49 0 63 43v356q-19 31 -63 31zM303 1341q-133 0 -181 56.5t-48 204.5v57h90v-53q0 -59 29 -88t110 -29q82 0 109.5 28.5t27.5 88.5v53h95v-57q0 -148 -48.5 -204.5t-183.5 -56.5z" />
    <glyph glyph-name="Aogonek" unicode="&#x104;" 
d="M643 -184q50 0 92 20v-145q-43 -29 -119 -29q-161 0 -161 139q0 117 127 168l75 31h-254v180h41l-18 301h-113l-16 -301h39v-180h-324v180h62l114 1422h-63v178h498v-178h-62l115 -1422h59v-180l-119 -63q-45 -33 -45 -72q0 -49 72 -49zM367 1434l-45 -783h96l-43 783h-8
z" />
    <glyph glyph-name="aogonek" unicode="&#x105;" horiz-adv-x="645" 
d="M537 -184q50 0 92 20v-145q-44 -29 -119 -29q-162 0 -162 139q0 117 127 168l76 31h-182v66q-36 -82 -164 -82q-85 0 -129.5 48.5t-44.5 172.5v309q0 125 45 171t137 46q111 0 147 -41v264q0 70 -12.5 94.5t-44.5 24.5q-31 0 -43 -20t-12 -74v-160h-211v207
q0 116 61.5 167.5t225.5 51.5q55 0 93.5 -5.5t68 -21t46.5 -37.5t28 -59.5t14.5 -82.5t3.5 -111v-756h53v-172l-121 -63q-45 -33 -45 -72q0 -49 72 -49zM297 580q-29 0 -40 -18t-11 -66v-260q0 -49 11 -67.5t40 -18.5q49 0 63 43v356q-19 31 -63 31z" />
    <glyph glyph-name="Cacute" unicode="&#x106;" horiz-adv-x="622" 
d="M233 1796q115 0 164 -82v66h197v-549h-199v250q-2 66 -9 99t-18 42.5t-32 9.5q-25 0 -36.5 -10.5t-17.5 -47t-6 -112.5v-1136q0 -79 6 -117.5t18 -51t36 -12.5t35.5 12.5t17.5 51t6 117.5v311h199v-299q0 -146 -26 -221t-83.5 -104t-169.5 -29q-110 0 -167 29t-83 104.5
t-26 220.5v1165q0 165 47 229t147 64zM508 2118l-146 -275h-129l82 275h193z" />
    <glyph glyph-name="cacute" unicode="&#x107;" horiz-adv-x="569" 
d="M211 1245q111 0 151 -88v70h181v-408h-178v123q0 80 -11.5 105.5t-44.5 25.5q-32 0 -43.5 -26.5t-11.5 -112.5v-637q0 -89 11 -114t44 -25t44.5 25t11.5 114v176h178v-197q0 -119 -25 -181.5t-77 -86.5t-150 -24q-73 0 -118 12t-76.5 44.5t-44.5 88.5t-13 147v685
q0 82 12 138.5t35.5 87.5t53.5 44.5t71 13.5zM285 1679h192l-172 -342h-127z" />
    <glyph glyph-name="Cdotaccent" unicode="&#x10a;" horiz-adv-x="622" 
d="M233 1796q115 0 164 -82v66h197v-549h-199v250q-2 66 -9 99t-18 42.5t-32 9.5q-25 0 -36.5 -10.5t-17.5 -47t-6 -112.5v-1136q0 -79 6 -117.5t18 -51t36 -12.5t35.5 12.5t17.5 51t6 117.5v311h199v-299q0 -146 -26 -221t-83.5 -104t-169.5 -29q-110 0 -167 29t-83 104.5
t-26 220.5v1165q0 165 47 229t147 64zM227 1907v188h195v-188h-195z" />
    <glyph glyph-name="cdotaccent" unicode="&#x10b;" horiz-adv-x="569" 
d="M211 1245q111 0 151 -88v70h181v-408h-178v123q0 80 -11.5 105.5t-44.5 25.5q-32 0 -43.5 -26.5t-11.5 -112.5v-637q0 -89 11 -114t44 -25t44.5 25t11.5 114v176h178v-197q0 -119 -25 -181.5t-77 -86.5t-150 -24q-73 0 -118 12t-76.5 44.5t-44.5 88.5t-13 147v685
q0 82 12 138.5t35.5 87.5t53.5 44.5t71 13.5zM201 1391v217h192v-217h-192z" />
    <glyph glyph-name="Ccaron" unicode="&#x10c;" horiz-adv-x="622" 
d="M233 1796q115 0 164 -82v66h197v-549h-199v250q-2 66 -9 99t-18 42.5t-32 9.5q-25 0 -36.5 -10.5t-17.5 -47t-6 -112.5v-1136q0 -79 6 -117.5t18 -51t36 -12.5t35.5 12.5t17.5 51t6 117.5v311h199v-299q0 -146 -26 -221t-83.5 -104t-169.5 -29q-110 0 -167 29t-83 104.5
t-26 220.5v1165q0 165 47 229t147 64zM242 2118l80 -144h6l78 144h120l-106 -275h-193l-104 275h119z" />
    <glyph glyph-name="ccaron" unicode="&#x10d;" horiz-adv-x="569" 
d="M211 1245q111 0 151 -88v70h181v-408h-178v123q0 80 -11.5 105.5t-44.5 25.5q-32 0 -43.5 -26.5t-11.5 -112.5v-637q0 -89 11 -114t44 -25t44.5 25t11.5 114v176h178v-197q0 -119 -25 -181.5t-77 -86.5t-150 -24q-73 0 -118 12t-76.5 44.5t-44.5 88.5t-13 147v685
q0 82 12 138.5t35.5 87.5t53.5 44.5t71 13.5zM213 1679l78 -194h8l78 194h119l-105 -342h-194l-103 342h119z" />
    <glyph glyph-name="Dcaron" unicode="&#x10e;" horiz-adv-x="722" 
d="M324 1602v-1422h63q34 0 46.5 21t12.5 82v1214q0 60 -12.5 82.5t-46.5 22.5h-63zM25 1780h395q149 0 207.5 -67.5t58.5 -250.5v-1149q0 -123 -26.5 -191t-82.5 -95t-157 -27h-395v180h59v1422h-59v178zM262 2118l80 -144h6l78 144h121l-107 -275h-192l-105 275h119z" />
    <glyph glyph-name="dcaron" unicode="&#x10f;" horiz-adv-x="831" 
d="M369 197v833q-17 43 -62 43q-31 0 -42 -19t-11 -69v-741q0 -51 11 -68.5t42 -17.5q47 0 62 39zM369 1174v432h-62v174h279v-1608h53v-172h-264v66q-31 -82 -162 -82q-86 0 -130 50.5t-44 186.5v785q0 137 44 188t130 51q116 0 156 -71zM672 1315v92h26q18 0 24.5 8
t6.5 29v82h-111v254h211v-324q0 -70 -25 -105.5t-95 -35.5h-37z" />
    <glyph glyph-name="dmacron" unicode="&#x111;" horiz-adv-x="651" 
d="M174 1409v166h195v31h-62v174h279v-205h63v-166h-63v-1237h53v-172h-264v66q-31 -82 -162 -82q-86 0 -130 50.5t-44 186.5v785q0 137 44 188t130 51q116 0 156 -71v235h-195zM369 197v833q-17 43 -62 43q-31 0 -42 -19t-11 -69v-741q0 -51 11 -68.5t42 -17.5q47 0 62 39z
" />
    <glyph glyph-name="dmacron" unicode="&#x20ab;" horiz-adv-x="651" 
d="M174 1409v166h195v31h-62v174h279v-205h63v-166h-63v-1237h53v-172h-264v66q-31 -82 -162 -82q-86 0 -130 50.5t-44 186.5v785q0 137 44 188t130 51q116 0 156 -71v235h-195zM369 197v833q-17 43 -62 43q-31 0 -42 -19t-11 -69v-741q0 -51 11 -68.5t42 -17.5q47 0 62 39z
" />
    <glyph glyph-name="Emacron" unicode="&#x112;" horiz-adv-x="677" 
d="M442 1231v371h-118v-568h231v-180h-231v-674h118v457h201v-637h-618v180h59v1422h-59v178h618v-549h-201zM102 1935v156h478v-156h-478z" />
    <glyph glyph-name="emacron" unicode="&#x113;" horiz-adv-x="581" 
d="M543 569h-295v-272q0 -90 11.5 -114.5t47.5 -24.5q24 0 35 8.5t17 38t6 90.5v139h178v-160q0 -172 -52.5 -231t-201.5 -59q-72 0 -116.5 12t-76 44.5t-44.5 89t-13 146.5v674q0 120 25.5 184t77.5 87.5t147 23.5q148 0 201 -60.5t53 -234.5v-381zM248 932v-211h117v211
q0 89 -12 115t-46 26q-24 0 -35.5 -9t-17.5 -39t-6 -93zM53 1409v166h475v-166h-475z" />
    <glyph glyph-name="Ebreve" unicode="&#x114;" horiz-adv-x="677" 
d="M442 1231v371h-118v-568h231v-180h-231v-674h118v457h201v-637h-618v180h59v1422h-59v178h618v-549h-201zM340 1847q-134 0 -181.5 48t-47.5 173v33h90v-26q0 -53 27.5 -74t111.5 -21t110.5 21t26.5 74v26h92v-33q0 -125 -48 -173t-181 -48z" />
    <glyph glyph-name="ebreve" unicode="&#x115;" horiz-adv-x="581" 
d="M543 569h-295v-272q0 -90 11.5 -114.5t47.5 -24.5q24 0 35 8.5t17 38t6 90.5v139h178v-160q0 -172 -52.5 -231t-201.5 -59q-72 0 -116.5 12t-76 44.5t-44.5 89t-13 146.5v674q0 120 25.5 184t77.5 87.5t147 23.5q148 0 201 -60.5t53 -234.5v-381zM248 932v-211h117v211
q0 89 -12 115t-46 26q-24 0 -35.5 -9t-17.5 -39t-6 -93zM289 1341q-133 0 -181.5 56.5t-48.5 204.5v57h91v-53q0 -59 29 -88t110 -29q82 0 109.5 28.5t27.5 88.5v53h94v-57q0 -148 -48 -204.5t-183 -56.5z" />
    <glyph glyph-name="Edotaccent" unicode="&#x116;" horiz-adv-x="677" 
d="M442 1231v371h-118v-568h231v-180h-231v-674h118v457h201v-637h-618v180h59v1422h-59v178h618v-549h-201zM244 1907v188h194v-188h-194z" />
    <glyph glyph-name="edotaccent" unicode="&#x117;" horiz-adv-x="581" 
d="M543 569h-295v-272q0 -90 11.5 -114.5t47.5 -24.5q24 0 35 8.5t17 38t6 90.5v139h178v-160q0 -172 -52.5 -231t-201.5 -59q-72 0 -116.5 12t-76 44.5t-44.5 89t-13 146.5v674q0 120 25.5 184t77.5 87.5t147 23.5q148 0 201 -60.5t53 -234.5v-381zM248 932v-211h117v211
q0 89 -12 115t-46 26q-24 0 -35.5 -9t-17.5 -39t-6 -93zM193 1391v217h192v-217h-192z" />
    <glyph glyph-name="Eogonek" unicode="&#x118;" horiz-adv-x="677" 
d="M549 -184q50 0 92 20v-145q-44 -29 -119 -29q-162 0 -162 139q0 117 127 168l76 31h-538v180h59v1422h-59v178h618v-549h-201v371h-118v-568h231v-180h-231v-674h118v457h201v-637l-121 -63q-45 -33 -45 -72q0 -49 72 -49z" />
    <glyph glyph-name="eogonek" unicode="&#x119;" horiz-adv-x="581" 
d="M322 -184q50 0 92 20v-145q-44 -29 -119 -29q-162 0 -162 139q0 114 127 168l35 15h-6q-72 0 -116.5 12t-76 44.5t-44.5 89t-13 146.5v674q0 120 25.5 184t77.5 87.5t147 23.5q148 0 201 -60.5t53 -234.5v-381h-295v-272q0 -90 11.5 -114.5t47.5 -24.5q24 0 35 8.5t17 38
t6 90.5v139h178v-160q0 -134 -31.5 -197.5t-108.5 -82.5l-108 -57q-45 -33 -45 -72q0 -49 72 -49zM248 932v-211h117v211q0 89 -12 115t-46 26q-24 0 -35.5 -9t-17.5 -39t-6 -93z" />
    <glyph glyph-name="Ecaron" unicode="&#x11a;" horiz-adv-x="677" 
d="M442 1231v371h-118v-568h231v-180h-231v-674h118v457h201v-637h-618v180h59v1422h-59v178h618v-549h-201zM256 2118l80 -144h6l78 144h121l-107 -275h-192l-105 275h119z" />
    <glyph glyph-name="ecaron" unicode="&#x11b;" horiz-adv-x="581" 
d="M543 569h-295v-272q0 -90 11.5 -114.5t47.5 -24.5q24 0 35 8.5t17 38t6 90.5v139h178v-160q0 -172 -52.5 -231t-201.5 -59q-72 0 -116.5 12t-76 44.5t-44.5 89t-13 146.5v674q0 120 25.5 184t77.5 87.5t147 23.5q148 0 201 -60.5t53 -234.5v-381zM248 932v-211h117v211
q0 89 -12 115t-46 26q-24 0 -35.5 -9t-17.5 -39t-6 -93zM209 1679l78 -194h8l78 194h119l-105 -342h-194l-103 342h119z" />
    <glyph glyph-name="Gbreve" unicode="&#x11e;" horiz-adv-x="653" 
d="M334 778v180h282v-958h-215v88q-24 -55 -61.5 -79.5t-103.5 -24.5q-50 0 -85 13.5t-61 46t-38.5 90t-12.5 142.5v1227q0 165 47 229t147 64q127 0 170 -82v66h197v-549h-203v233q0 66 -7 100t-18.5 43t-33.5 9q-25 0 -37 -10.5t-18.5 -47.5t-6.5 -112v-1114
q0 -74 6.5 -111t19 -48t36.5 -11q23 0 34.5 9.5t18.5 42.5t8 99v465h-65zM340 1847q-134 0 -181.5 48t-47.5 173v33h90v-26q0 -53 27.5 -74t111.5 -21t110.5 21t26.5 74v26h92v-33q0 -125 -48 -173t-181 -48z" />
    <glyph glyph-name="gbreve" unicode="&#x11f;" horiz-adv-x="643" 
d="M578 1057v-1069q0 -97 -11 -156t-42.5 -97.5t-83 -52.5t-136.5 -14q-167 0 -264 45v178q93 -43 201 -43q70 0 94 23.5t24 95.5v103q-42 -68 -155 -68q-87 0 -131.5 52t-44.5 188v764q0 137 44 188t130 51q128 0 166 -84v66h262v-170h-53zM360 219v811q-19 43 -63 43
q-29 0 -40 -19t-11 -69v-721q0 -49 11 -67.5t40 -18.5q44 0 63 41zM317 1341q-133 0 -181 56.5t-48 204.5v57h90v-53q0 -59 29 -88t110 -29q82 0 110 28.5t28 88.5v53h94v-57q0 -148 -48.5 -204.5t-183.5 -56.5z" />
    <glyph glyph-name="Gdotaccent" unicode="&#x120;" horiz-adv-x="653" 
d="M334 778v180h282v-958h-215v88q-24 -55 -61.5 -79.5t-103.5 -24.5q-50 0 -85 13.5t-61 46t-38.5 90t-12.5 142.5v1227q0 165 47 229t147 64q127 0 170 -82v66h197v-549h-203v233q0 66 -7 100t-18.5 43t-33.5 9q-25 0 -37 -10.5t-18.5 -47.5t-6.5 -112v-1114
q0 -74 6.5 -111t19 -48t36.5 -11q23 0 34.5 9.5t18.5 42.5t8 99v465h-65zM244 1907v188h194v-188h-194z" />
    <glyph glyph-name="gdotaccent" unicode="&#x121;" horiz-adv-x="643" 
d="M578 1057v-1069q0 -97 -11 -156t-42.5 -97.5t-83 -52.5t-136.5 -14q-167 0 -264 45v178q93 -43 201 -43q70 0 94 23.5t24 95.5v103q-42 -68 -155 -68q-87 0 -131.5 52t-44.5 188v764q0 137 44 188t130 51q128 0 166 -84v66h262v-170h-53zM360 219v811q-19 43 -63 43
q-29 0 -40 -19t-11 -69v-721q0 -49 11 -67.5t40 -18.5q44 0 63 41zM221 1391v217h193v-217h-193z" />
    <glyph glyph-name="Gcommaaccent" unicode="&#x122;" horiz-adv-x="653" 
d="M334 778v180h282v-958h-215v88q-24 -55 -61.5 -79.5t-103.5 -24.5q-50 0 -85 13.5t-61 46t-38.5 90t-12.5 142.5v1227q0 165 47 229t147 64q127 0 170 -82v66h197v-549h-203v233q0 66 -7 100t-18.5 43t-33.5 9q-25 0 -37 -10.5t-18.5 -47.5t-6.5 -112v-1114
q0 -74 6.5 -111t19 -48t36.5 -11q23 0 34.5 9.5t18.5 42.5t8 99v465h-65zM401 -336h-192q88 85 88 191q0 41 -16 100h127q38 -77 38 -148q0 -76 -45 -143z" />
    <glyph glyph-name="gcommaaccent" unicode="&#x123;" horiz-adv-x="643" 
d="M578 1057v-1069q0 -97 -11 -156t-42.5 -97.5t-83 -52.5t-136.5 -14q-167 0 -264 45v178q93 -43 201 -43q70 0 94 23.5t24 95.5v103q-42 -68 -155 -68q-87 0 -131.5 52t-44.5 188v764q0 137 44 188t130 51q128 0 166 -84v66h262v-170h-53zM360 219v811q-19 43 -63 43
q-29 0 -40 -19t-11 -69v-721q0 -49 11 -67.5t40 -18.5q44 0 63 41zM383 1753v-82h-29q-26 0 -26 -31v-86h102v-225h-194v293q0 67 22.5 99t87.5 32h37z" />
    <glyph glyph-name="Hbar" unicode="&#x126;" horiz-adv-x="772" 
d="M25 1214v168h59v220h-59v178h327v-178h-28v-220h122v220h-28v178h330v-178h-62v-220h62v-168h-62v-1034h62v-180h-330v180h28v672h-122v-672h28v-180h-327v180h59v1034h-59zM324 1032h122v182h-122v-182z" />
    <glyph glyph-name="hbar" unicode="&#x127;" horiz-adv-x="708" 
d="M2 1409v166h82v31h-59v174h276v-205h176v-166h-176v-235q41 71 158 71q86 0 130 -51t44 -188v-834h53v-172h-270v985q0 50 -11 69t-40 19q-47 0 -64 -43v-858h45v-172h-321v172h59v1237h-82z" />
    <glyph glyph-name="hbar" unicode="&#x45b;" horiz-adv-x="708" 
d="M2 1409v166h82v31h-59v174h276v-205h176v-166h-176v-235q41 71 158 71q86 0 130 -51t44 -188v-834h53v-172h-270v985q0 50 -11 69t-40 19q-47 0 -64 -43v-858h45v-172h-321v172h59v1237h-82z" />
    <glyph glyph-name="Itilde" unicode="&#x128;" horiz-adv-x="479" 
d="M356 180h64v-180h-363v180h60v1422h-60v178h363v-178h-64v-1422zM360 1884q-49 0 -124.5 39t-106.5 39q-23 0 -33 -12t-10 -41v-23h-94v76q0 71 32 108t93 37q45 0 120 -37.5t111 -37.5q24 0 33.5 11t9.5 42v22h92v-75q0 -148 -123 -148z" />
    <glyph glyph-name="itilde" unicode="&#x129;" horiz-adv-x="481" 
d="M362 1364q-40 0 -83 21.5t-81.5 43t-66.5 21.5q-24 0 -34.5 -12.5t-10.5 -46.5v-27h-90v92q0 176 125 176q41 0 118 -45t111 -45q24 0 33.5 13t9.5 49v26h94v-94q0 -172 -125 -172zM88 1227h277v-1055h53v-172h-330v172h59v885h-59v170z" />
    <glyph glyph-name="Imacron" unicode="&#x12a;" horiz-adv-x="464" 
d="M352 180h64v-180h-363v180h60v1422h-60v178h363v-178h-64v-1422zM-6 1935v156h477v-156h-477z" />
    <glyph glyph-name="imacron" unicode="&#x12b;" horiz-adv-x="378" 
d="M-61 1409v166h475v-166h-475zM31 1227h276v-1055h53v-172h-329v172h59v885h-59v170z" />
    <glyph glyph-name="Ibreve" unicode="&#x12c;" horiz-adv-x="450" 
d="M344 180h64v-180h-363v180h59v1422h-59v178h363v-178h-64v-1422zM225 1847q-134 0 -181.5 48t-47.5 173v33h90v-26q0 -53 27.5 -74t111.5 -21t110.5 21t26.5 74v26h93v-33q0 -125 -48.5 -173t-181.5 -48z" />
    <glyph glyph-name="ibreve" unicode="&#x12d;" horiz-adv-x="452" 
d="M225 1341q-133 0 -181 56.5t-48 204.5v57h90v-53q0 -59 29 -88t110 -29q82 0 109.5 28.5t27.5 88.5v53h95v-57q0 -148 -48.5 -204.5t-183.5 -56.5zM74 1227h276v-1055h53v-172h-329v172h59v885h-59v170z" />
    <glyph glyph-name="Iogonek" unicode="&#x12e;" horiz-adv-x="411" 
d="M248 -184q50 0 92 20v-145q-44 -29 -119 -29q-162 0 -162 139q0 117 127 168l76 31h-235v180h59v1422h-59v178h362v-178h-63v-1422h63v-180h-49l-119 -63q-45 -33 -45 -72q0 -49 72 -49z" />
    <glyph glyph-name="iogonek" unicode="&#x12f;" horiz-adv-x="370" 
d="M27 1227h276v-1055h53v-172h-37l-118 -63q-45 -33 -45 -72q0 -49 71 -49q50 0 92 20v-145q-44 -29 -118 -29q-162 0 -162 139q0 117 127 168l76 31h-215v172h59v885h-59v170zM92 1391v217h193v-217h-193z" />
    <glyph glyph-name="Idotaccent" unicode="&#x130;" horiz-adv-x="409" 
d="M324 180h63v-180h-362v180h59v1422h-59v178h362v-178h-63v-1422zM106 1907v188h195v-188h-195z" />
    <glyph glyph-name="dotlessi" unicode="&#x131;" horiz-adv-x="366" 
d="M25 1227h276v-1055h53v-172h-329v172h59v885h-59v170z" />
    <glyph glyph-name="IJ" unicode="&#x132;" horiz-adv-x="751" 
d="M324 1602v-1174h51v-180h-350v180h59v1174h-59v178h327v-178h-28zM686 1602v-1311q0 -185 -58.5 -246t-238.5 -61t-295 39v176q110 -37 221 -37q79 0 105 22.5t26 94.5v1323h-28v178h321v-178h-53z" />
    <glyph glyph-name="ij" unicode="&#x133;" horiz-adv-x="722" 
d="M25 1227h276v-1055h53v-172h-329v172h59v885h-59v170zM461 -51v1108h-60v170h277v-1342q0 -122 -45 -169.5t-164 -47.5q-21 0 -40 1.5t-31 3.5t-28.5 6.5t-21.5 6t-20.5 7.5t-16.5 6v170q43 -21 86 -21q38 0 51 20t13 81zM90 1391v217h193v-217h-193zM469 1391v217h193
v-217h-193z" />
    <glyph glyph-name="Kcommaaccent" unicode="&#x136;" horiz-adv-x="782" 
d="M324 180h41v-180h-340v180h59v1422h-59v178h340v-178h-41v-576l155 576h-47v178h320v-178h-68l-168 -596l203 -826h53v-180h-338v180h49l-159 656v-656zM455 -336h-193q88 85 88 191q0 41 -16 100h127q39 -79 39 -148q0 -76 -45 -143z" />
    <glyph glyph-name="kcommaaccent" unicode="&#x137;" horiz-adv-x="716" 
d="M686 1057h-78l-127 -359l160 -526h64v-172h-312v172h31l-123 397v-397h33v-172h-309v172h59v1434h-59v174h276v-1071l119 348h-53v170h319v-170zM416 -336h-193q88 85 88 191q0 41 -16 100h127q39 -79 39 -148q0 -76 -45 -143z" />
    <glyph glyph-name="Lacute" unicode="&#x139;" horiz-adv-x="671" 
d="M397 1780v-178h-73v-1422h118v457h201v-637h-618v180h59v1422h-59v178h372zM395 2118l-145 -275h-129l82 275h192z" />
    <glyph glyph-name="lacute" unicode="&#x13a;" horiz-adv-x="366" 
d="M25 1780h276v-1608h53v-172h-329v172h59v1434h-59v174zM367 2118l-146 -275h-129l82 275h193z" />
    <glyph glyph-name="Lcommaaccent" unicode="&#x13b;" horiz-adv-x="671" 
d="M397 1780v-178h-73v-1422h118v457h201v-637h-618v180h59v1422h-59v178h372zM395 -336h-192q88 85 88 191q0 37 -17 100h127q39 -79 39 -148q0 -76 -45 -143z" />
    <glyph glyph-name="lcommaaccent" unicode="&#x13c;" horiz-adv-x="366" 
d="M25 1780h276v-1608h53v-172h-329v172h59v1434h-59v174zM248 -336h-193q88 85 88 191q0 41 -16 100h127q39 -79 39 -148q0 -76 -45 -143z" />
    <glyph glyph-name="Lcaron" unicode="&#x13d;" horiz-adv-x="700" 
d="M397 1780v-178h-73v-1422h118v457h201v-637h-618v180h59v1422h-59v178h372zM522 1315v92h27q18 0 24.5 8t6.5 29v82h-111v254h211v-324q0 -70 -25.5 -105.5t-95.5 -35.5h-37z" />
    <glyph glyph-name="lcaron" unicode="&#x13e;" horiz-adv-x="546" 
d="M25 1780h276v-1608h53v-172h-329v172h59v1434h-59v174zM385 1315v92h27q18 0 24 8t6 29v82h-110v254h211v-324q0 -70 -25.5 -105.5t-95.5 -35.5h-37z" />
    <glyph glyph-name="Lslash" unicode="&#x141;" horiz-adv-x="671" 
d="M397 1780v-178h-73v-416l182 114v-172l-182 -114v-834h118v457h201v-637h-618v180h59v684l-84 -51v172l84 51v566h-59v178h372z" />
    <glyph glyph-name="lslash" unicode="&#x142;" horiz-adv-x="505" 
d="M84 1780h276v-482l146 93v-172l-146 -93v-954h54v-172h-330v172h59v819l-143 -88v172l143 88v443h-59v174z" />
    <glyph glyph-name="Nacute" unicode="&#x143;" horiz-adv-x="782" 
d="M535 1602h-60v178h297v-178h-55v-1602h-197l-235 1063h-9v-883h70v-180h-321v180h57v1422h-57v178h321l178 -908h11v730zM575 2118l-145 -275h-129l82 275h192z" />
    <glyph glyph-name="nacute" unicode="&#x144;" horiz-adv-x="698" 
d="M25 1227h268v-66q41 84 166 84q86 0 130 -51t44 -188v-834h53v-172h-270v985q0 50 -11 69t-40 19q-47 0 -64 -43v-858h45v-172h-321v172h59v885h-59v170zM354 1679h193l-172 -342h-127z" />
    <glyph glyph-name="Ncommaaccent" unicode="&#x145;" horiz-adv-x="782" 
d="M535 1602h-60v178h297v-178h-55v-1602h-197l-235 1063h-9v-883h70v-180h-321v180h57v1422h-57v178h321l178 -908h11v730zM469 -336h-193q89 86 89 191q0 37 -17 100h127q39 -79 39 -148q0 -76 -45 -143z" />
    <glyph glyph-name="ncommaaccent" unicode="&#x146;" horiz-adv-x="698" 
d="M25 1227h268v-66q41 84 166 84q86 0 130 -51t44 -188v-834h53v-172h-270v985q0 50 -11 69t-40 19q-47 0 -64 -43v-858h45v-172h-321v172h59v885h-59v170zM416 -336h-193q88 85 88 191q0 41 -16 100h127q39 -79 39 -148q0 -76 -45 -143z" />
    <glyph glyph-name="Ncaron" unicode="&#x147;" horiz-adv-x="782" 
d="M535 1602h-60v178h297v-178h-55v-1602h-197l-235 1063h-9v-883h70v-180h-321v180h57v1422h-57v178h321l178 -908h11v730zM309 2118l80 -144h6l78 144h121l-107 -275h-192l-105 275h119z" />
    <glyph glyph-name="ncaron" unicode="&#x148;" horiz-adv-x="698" 
d="M25 1227h268v-66q41 84 166 84q86 0 130 -51t44 -188v-834h53v-172h-270v985q0 50 -11 69t-40 19q-47 0 -64 -43v-858h45v-172h-321v172h59v885h-59v170zM268 1679l78 -194h8l78 194h119l-105 -342h-194l-102 342h118z" />
    <glyph glyph-name="Eng" unicode="&#x14a;" horiz-adv-x="714" 
d="M678 1550v-1667q0 -119 -49 -167t-172 -48q-22 0 -42 1.5t-33 3.5t-29 6.5t-21.5 6t-20 7t-16.5 6.5v170q41 -21 88 -21q36 0 46.5 19t10.5 80v1583q0 50 -11 69t-40 19q-46 0 -65 -43v-1395h49v-180h-350v180h61v1422h-61v178h292v-70q19 41 64 63.5t108 22.5
q44 0 76.5 -10.5t59.5 -36t41 -75.5t14 -124z" />
    <glyph glyph-name="eng" unicode="&#x14b;" horiz-adv-x="669" 
d="M416 -51v1036q0 50 -11 69t-40 19q-47 0 -64 -43v-858h45v-172h-321v172h59v885h-59v170h268v-66q41 84 168 84q85 0 128.5 -51t43.5 -188v-1121q0 -122 -45 -169.5t-164 -47.5q-78 0 -158 31v170q40 -21 86 -21q38 0 51 20t13 81z" />
    <glyph glyph-name="Omacron" unicode="&#x14c;" horiz-adv-x="675" 
d="M276 1438v-1096q0 -78 6.5 -117t19 -51t36.5 -12q37 0 49 32.5t12 147.5v1096q0 80 -6 118.5t-18 50t-37 11.5t-37 -11.5t-18.5 -50.5t-6.5 -118zM338 1798q119 0 181.5 -29.5t91 -105.5t28.5 -221v-1104q0 -145 -28.5 -220.5t-91 -104.5t-181.5 -29t-181 29t-90 104.5
t-28 220.5v1104q0 145 28 221t90 105.5t181 29.5zM98 1935v156h477v-156h-477z" />
    <glyph glyph-name="omacron" unicode="&#x14d;" horiz-adv-x="622" 
d="M311 1073q-34 0 -45.5 -25.5t-11.5 -115.5v-635q0 -90 11.5 -114.5t45.5 -24.5q24 0 35 8.5t17 38.5t6 92v635q0 90 -12 115.5t-46 25.5zM311 -16q-107 0 -163 23.5t-82.5 86t-26.5 182.5v674q0 91 13 147t46.5 89.5t83 46t129.5 12.5q107 0 164 -24.5t84 -87.5t27 -183
v-674q0 -119 -27 -182t-84 -86.5t-164 -23.5zM74 1409v166h475v-166h-475z" />
    <glyph glyph-name="Obreve" unicode="&#x14e;" horiz-adv-x="675" 
d="M276 1438v-1096q0 -78 6.5 -117t19 -51t36.5 -12q37 0 49 32.5t12 147.5v1096q0 80 -6 118.5t-18 50t-37 11.5t-37 -11.5t-18.5 -50.5t-6.5 -118zM338 1798q119 0 181.5 -29.5t91 -105.5t28.5 -221v-1104q0 -145 -28.5 -220.5t-91 -104.5t-181.5 -29t-181 29t-90 104.5
t-28 220.5v1104q0 145 28 221t90 105.5t181 29.5zM338 1847q-134 0 -181.5 48t-47.5 173v33h90v-26q0 -53 27.5 -74t111.5 -21t110.5 21t26.5 74v26h92v-33q0 -125 -48 -173t-181 -48z" />
    <glyph glyph-name="obreve" unicode="&#x14f;" horiz-adv-x="622" 
d="M311 1073q-34 0 -45.5 -25.5t-11.5 -115.5v-635q0 -90 11.5 -114.5t45.5 -24.5q24 0 35 8.5t17 38.5t6 92v635q0 90 -12 115.5t-46 25.5zM311 -16q-107 0 -163 23.5t-82.5 86t-26.5 182.5v674q0 91 13 147t46.5 89.5t83 46t129.5 12.5q107 0 164 -24.5t84 -87.5t27 -183
v-674q0 -119 -27 -182t-84 -86.5t-164 -23.5zM309 1341q-133 0 -181 56.5t-48 204.5v57h90v-53q0 -59 29 -88t110 -29q82 0 109.5 28.5t27.5 88.5v53h95v-57q0 -148 -48.5 -204.5t-183.5 -56.5z" />
    <glyph glyph-name="Ohungarumlaut" unicode="&#x150;" horiz-adv-x="675" 
d="M276 1438v-1096q0 -78 6.5 -117t19 -51t36.5 -12q37 0 49 32.5t12 147.5v1096q0 80 -6 118.5t-18 50t-37 11.5t-37 -11.5t-18.5 -50.5t-6.5 -118zM338 1798q119 0 181.5 -29.5t91 -105.5t28.5 -221v-1104q0 -145 -28.5 -220.5t-91 -104.5t-181.5 -29t-181 29t-90 104.5
t-28 220.5v1104q0 145 28 221t90 105.5t181 29.5zM651 2118l-186 -275h-121l125 275h182zM369 2118l-129 -275h-123l73 275h179z" />
    <glyph glyph-name="ohungarumlaut" unicode="&#x151;" horiz-adv-x="622" 
d="M311 1073q-34 0 -45.5 -25.5t-11.5 -115.5v-635q0 -90 11.5 -114.5t45.5 -24.5q24 0 35 8.5t17 38.5t6 92v635q0 90 -12 115.5t-46 25.5zM311 -16q-107 0 -163 23.5t-82.5 86t-26.5 182.5v674q0 91 13 147t46.5 89.5t83 46t129.5 12.5q107 0 164 -24.5t84 -87.5t27 -183
v-674q0 -119 -27 -182t-84 -86.5t-164 -23.5zM637 1679l-195 -342h-131l131 342h195zM340 1679l-139 -342h-129l75 342h193z" />
    <glyph glyph-name="OE" unicode="&#x152;" horiz-adv-x="950" 
d="M303 1780h612v-549h-200v371h-107v-570h219v-180h-219v-672h107v457h200v-637h-612q-149 0 -206.5 65.5t-57.5 247.5v1149q0 125 26 193.5t82 96.5t156 28zM383 180v1422h-47q-34 0 -47 -22.5t-13 -82.5v-1214q0 -61 13 -82t47 -21h47z" />
    <glyph glyph-name="oe" unicode="&#x153;" horiz-adv-x="911" 
d="M311 -16q-107 0 -163 23.5t-82.5 86t-26.5 182.5v674q0 91 13 147t46.5 89.5t83 46t129.5 12.5q106 0 162 -26q45 26 148 26q148 0 200.5 -60.5t52.5 -234.5v-381h-294v-272q0 -89 12 -114t47 -25q24 0 35 9t16.5 37.5t5.5 90.5v139h178v-160q0 -172 -52 -231t-201 -59
q-95 0 -148 24q-59 -24 -162 -24zM311 1073q-34 0 -45.5 -25.5t-11.5 -115.5v-635q0 -90 11.5 -114.5t45.5 -24.5q24 0 35 8.5t17 38.5t6 92v635q0 90 -12 115.5t-46 25.5zM580 932v-211h116v211q0 90 -11 115.5t-46 25.5q-23 0 -34.5 -9t-18 -39.5t-6.5 -92.5z" />
    <glyph glyph-name="Racute" unicode="&#x154;" horiz-adv-x="757" 
d="M25 1780h426q123 0 179 -56.5t56 -183.5v-418q0 -168 -90 -204v-11q84 -37 90 -180l6 -508q0 -39 33 -39h20v-180h-122q-90 0 -129 47.5t-41 151.5l-7 553q0 41 -11 56t-42 15h-69v-643h51v-180h-350v180h59v1422h-59v178zM324 999h73q27 0 38 16t11 58v449
q0 45 -12.5 62.5t-44.5 17.5h-65v-603zM543 2118l-146 -275h-129l82 275h193z" />
    <glyph glyph-name="racute" unicode="&#x155;" horiz-adv-x="606" 
d="M25 1227h268v-66q32 84 149 84q71 0 109.5 -42.5t38.5 -155.5v-228h-178v174q0 45 -11 62.5t-36 17.5q-47 0 -64 -43v-858h47v-172h-323v172h59v885h-59v170zM307 1679h193l-172 -342h-127z" />
    <glyph glyph-name="Rcommaaccent" unicode="&#x156;" horiz-adv-x="757" 
d="M25 1780h426q123 0 179 -56.5t56 -183.5v-418q0 -168 -90 -204v-11q84 -37 90 -180l6 -508q0 -39 33 -39h20v-180h-122q-90 0 -129 47.5t-41 151.5l-7 553q0 41 -11 56t-42 15h-69v-643h51v-180h-350v180h59v1422h-59v178zM324 999h73q27 0 38 16t11 58v449
q0 45 -12.5 62.5t-44.5 17.5h-65v-603zM442 -336h-192q88 85 88 191q0 41 -16 100h127q38 -77 38 -148q0 -76 -45 -143z" />
    <glyph glyph-name="rcommaaccent" unicode="&#x157;" horiz-adv-x="606" 
d="M25 1227h268v-66q32 84 149 84q71 0 109.5 -42.5t38.5 -155.5v-228h-178v174q0 45 -11 62.5t-36 17.5q-47 0 -64 -43v-858h47v-172h-323v172h59v885h-59v170zM262 -336h-192q88 85 88 191q0 37 -17 100h127q39 -79 39 -148q0 -76 -45 -143z" />
    <glyph glyph-name="Rcaron" unicode="&#x158;" horiz-adv-x="757" 
d="M25 1780h426q123 0 179 -56.5t56 -183.5v-418q0 -168 -90 -204v-11q84 -37 90 -180l6 -508q0 -39 33 -39h20v-180h-122q-90 0 -129 47.5t-41 151.5l-7 553q0 41 -11 56t-42 15h-69v-643h51v-180h-350v180h59v1422h-59v178zM324 999h73q27 0 38 16t11 58v449
q0 45 -12.5 62.5t-44.5 17.5h-65v-603zM281 2118l79 -144h7l77 144h121l-106 -275h-193l-104 275h119z" />
    <glyph glyph-name="rcaron" unicode="&#x159;" horiz-adv-x="606" 
d="M25 1227h268v-66q32 84 149 84q71 0 109.5 -42.5t38.5 -155.5v-228h-178v174q0 45 -11 62.5t-36 17.5q-47 0 -64 -43v-858h47v-172h-323v172h59v885h-59v170zM221 1679l78 -194h8l78 194h119l-105 -342h-194l-103 342h119z" />
    <glyph glyph-name="Sacute" unicode="&#x15a;" horiz-adv-x="630" 
d="M276 1473v-211q0 -47 20 -88t66 -97l115 -139q68 -84 91.5 -148.5t23.5 -177.5v-342q0 -159 -47.5 -222.5t-147.5 -63.5q-126 0 -166 86v-70h-194v637h199v-320q0 -68 7 -102t18 -43.5t34 -9.5q35 0 47 28.5t12 126.5v271q0 80 -17 120t-71 107l-112 141
q-64 81 -87.5 145.5t-23.5 166.5v276q0 137 45.5 194.5t142.5 57.5q126 0 166 -82v66h197v-549h-199v242q0 63 -7 95t-18 40t-32 8q-25 0 -37 -8.5t-18.5 -39.5t-6.5 -95zM500 2118l-146 -275h-129l82 275h193z" />
    <glyph glyph-name="sacute" unicode="&#x15b;" horiz-adv-x="577" 
d="M252 1001v-106q0 -36 20.5 -69t61.5 -76l104 -111q58 -63 81.5 -118t23.5 -142v-182q0 -118 -42.5 -165.5t-129.5 -47.5q-123 0 -162 77v-61h-172v424h176v-186q0 -50 12 -65t41 -15q31 0 44.5 16t13.5 64v135q0 52 -15.5 84t-60.5 80l-105 110q-58 59 -77.5 109.5
t-18.5 138.5v164q0 99 40 142.5t120 43.5q110 0 153 -80v62h181v-398h-179v175q0 41 -13 55t-40 14q-32 0 -44.5 -14t-12.5 -58zM293 1679h192l-172 -342h-127z" />
    <glyph glyph-name="Scedilla" unicode="&#x15e;" horiz-adv-x="630" 
d="M276 1473v-211q0 -47 20 -88t66 -97l115 -139q68 -84 91.5 -148.5t23.5 -177.5v-342q0 -159 -47.5 -222.5t-147.5 -63.5q-126 0 -166 86v-70h-194v637h199v-320q0 -68 7 -102t18 -43.5t34 -9.5q35 0 47 28.5t12 126.5v271q0 80 -17 120t-71 107l-112 141
q-64 81 -87.5 145.5t-23.5 166.5v276q0 137 45.5 194.5t142.5 57.5q126 0 166 -82v66h197v-549h-199v242q0 63 -7 95t-18 40t-32 8q-25 0 -37 -8.5t-18.5 -39.5t-6.5 -95zM369 -336h-193q88 85 88 191q0 41 -16 100h127q39 -79 39 -148q0 -76 -45 -143z" />
    <glyph glyph-name="Scedilla" unicode="&#x218;" horiz-adv-x="630" 
d="M276 1473v-211q0 -47 20 -88t66 -97l115 -139q68 -84 91.5 -148.5t23.5 -177.5v-342q0 -159 -47.5 -222.5t-147.5 -63.5q-126 0 -166 86v-70h-194v637h199v-320q0 -68 7 -102t18 -43.5t34 -9.5q35 0 47 28.5t12 126.5v271q0 80 -17 120t-71 107l-112 141
q-64 81 -87.5 145.5t-23.5 166.5v276q0 137 45.5 194.5t142.5 57.5q126 0 166 -82v66h197v-549h-199v242q0 63 -7 95t-18 40t-32 8q-25 0 -37 -8.5t-18.5 -39.5t-6.5 -95zM369 -336h-193q88 85 88 191q0 41 -16 100h127q39 -79 39 -148q0 -76 -45 -143z" />
    <glyph glyph-name="scedilla" unicode="&#x15f;" horiz-adv-x="577" 
d="M252 1001v-106q0 -36 20.5 -69t61.5 -76l104 -111q58 -63 81.5 -118t23.5 -142v-182q0 -118 -42.5 -165.5t-129.5 -47.5q-123 0 -162 77v-61h-172v424h176v-186q0 -50 12 -65t41 -15q31 0 44.5 16t13.5 64v135q0 52 -15.5 84t-60.5 80l-105 110q-58 59 -77.5 109.5
t-18.5 138.5v164q0 99 40 142.5t120 43.5q110 0 153 -80v62h181v-398h-179v175q0 41 -13 55t-40 14q-32 0 -44.5 -14t-12.5 -58zM348 -336h-192q88 85 88 191q0 37 -17 100h127q39 -79 39 -148q0 -76 -45 -143z" />
    <glyph glyph-name="scedilla" unicode="&#x219;" horiz-adv-x="577" 
d="M252 1001v-106q0 -36 20.5 -69t61.5 -76l104 -111q58 -63 81.5 -118t23.5 -142v-182q0 -118 -42.5 -165.5t-129.5 -47.5q-123 0 -162 77v-61h-172v424h176v-186q0 -50 12 -65t41 -15q31 0 44.5 16t13.5 64v135q0 52 -15.5 84t-60.5 80l-105 110q-58 59 -77.5 109.5
t-18.5 138.5v164q0 99 40 142.5t120 43.5q110 0 153 -80v62h181v-398h-179v175q0 41 -13 55t-40 14q-32 0 -44.5 -14t-12.5 -58zM348 -336h-192q88 85 88 191q0 37 -17 100h127q39 -79 39 -148q0 -76 -45 -143z" />
    <glyph glyph-name="Scaron" unicode="&#x160;" horiz-adv-x="630" 
d="M276 1473v-211q0 -47 20 -88t66 -97l115 -139q68 -84 91.5 -148.5t23.5 -177.5v-342q0 -159 -47.5 -222.5t-147.5 -63.5q-126 0 -166 86v-70h-194v637h199v-320q0 -68 7 -102t18 -43.5t34 -9.5q35 0 47 28.5t12 126.5v271q0 80 -17 120t-71 107l-112 141
q-64 81 -87.5 145.5t-23.5 166.5v276q0 137 45.5 194.5t142.5 57.5q126 0 166 -82v66h197v-549h-199v242q0 63 -7 95t-18 40t-32 8q-25 0 -37 -8.5t-18.5 -39.5t-6.5 -95zM233 2118l80 -144h6l78 144h121l-106 -275h-193l-104 275h118z" />
    <glyph glyph-name="scaron" unicode="&#x161;" horiz-adv-x="577" 
d="M252 1001v-106q0 -36 20.5 -69t61.5 -76l104 -111q58 -63 81.5 -118t23.5 -142v-182q0 -118 -42.5 -165.5t-129.5 -47.5q-123 0 -162 77v-61h-172v424h176v-186q0 -50 12 -65t41 -15q31 0 44.5 16t13.5 64v135q0 52 -15.5 84t-60.5 80l-105 110q-58 59 -77.5 109.5
t-18.5 138.5v164q0 99 40 142.5t120 43.5q110 0 153 -80v62h181v-398h-179v175q0 41 -13 55t-40 14q-32 0 -44.5 -14t-12.5 -58zM209 1679l78 -194h8l78 194h119l-105 -342h-194l-103 342h119z" />
    <glyph glyph-name="Tcommaaccent" unicode="&#x162;" horiz-adv-x="823" 
d="M215 1604v-373h-186v549h768v-549h-189v373h-78v-1424h74v-180h-383v180h74v1424h-80zM463 -336h-193q88 85 88 191q0 41 -16 100h127q39 -79 39 -148q0 -76 -45 -143z" />
    <glyph glyph-name="Tcommaaccent" unicode="&#x21a;" horiz-adv-x="823" 
d="M215 1604v-373h-186v549h768v-549h-189v373h-78v-1424h74v-180h-383v180h74v1424h-80zM463 -336h-193q88 85 88 191q0 41 -16 100h127q39 -79 39 -148q0 -76 -45 -143z" />
    <glyph glyph-name="tcommaaccent" unicode="&#x163;" horiz-adv-x="464" 
d="M25 1227h59v282h217v-282h133v-170h-133v-801q0 -60 13.5 -79t52.5 -19q48 0 84 16v-164q-75 -26 -156 -26q-119 0 -165 45t-46 155v873h-59v170zM330 -336h-193q88 85 88 191q0 41 -16 100h127q39 -79 39 -148q0 -76 -45 -143z" />
    <glyph glyph-name="tcommaaccent" unicode="&#x21b;" horiz-adv-x="464" 
d="M25 1227h59v282h217v-282h133v-170h-133v-801q0 -60 13.5 -79t52.5 -19q48 0 84 16v-164q-75 -26 -156 -26q-119 0 -165 45t-46 155v873h-59v170zM330 -336h-193q88 85 88 191q0 41 -16 100h127q39 -79 39 -148q0 -76 -45 -143z" />
    <glyph glyph-name="Tcaron" unicode="&#x164;" horiz-adv-x="823" 
d="M215 1604v-373h-186v549h768v-549h-189v373h-78v-1424h74v-180h-383v180h74v1424h-80zM330 2118l80 -144h6l78 144h120l-106 -275h-193l-104 275h119z" />
    <glyph glyph-name="tcaron" unicode="&#x165;" horiz-adv-x="591" 
d="M25 1227h59v282h217v-282h133v-170h-133v-801q0 -60 13.5 -79t52.5 -19q48 0 84 16v-164q-75 -26 -156 -26q-119 0 -165 45t-46 155v873h-59v170zM430 1315v92h27q18 0 24 8t6 29v82h-110v254h211v-324q0 -70 -25.5 -105.5t-95.5 -35.5h-37z" />
    <glyph glyph-name="Tbar" unicode="&#x166;" horiz-adv-x="823" 
d="M174 762v166h121v676h-80v-373h-186v549h768v-549h-189v373h-78v-676h119v-166h-119v-582h74v-180h-383v180h74v582h-121z" />
    <glyph glyph-name="tbar" unicode="&#x167;" horiz-adv-x="509" 
d="M49 1227h60v282h217v-282h133v-170h-133v-361h163v-166h-163v-274q0 -60 13 -79t52 -19q48 0 84 16v-164q-75 -26 -156 -26q-118 0 -164 45t-46 155v346h-95v166h95v361h-60v170z" />
    <glyph glyph-name="Utilde" unicode="&#x168;" horiz-adv-x="720" 
d="M399 1780h310v-178h-56v-1264q0 -145 -27.5 -220.5t-88.5 -104.5t-179 -29q-116 0 -176 29t-87 104.5t-27 220.5v1264h-56v178h320v-178h-25v-1260q0 -115 11.5 -147.5t48.5 -32.5q24 0 35.5 12t17.5 50.5t6 117.5v1260h-27v178zM481 1884q-49 0 -124.5 39t-106.5 39
q-23 0 -33 -12t-10 -41v-23h-94v76q0 71 32 108t93 37q46 0 120 -37.5t111 -37.5q24 0 33.5 11t9.5 42v22h92v-75q0 -148 -123 -148z" />
    <glyph glyph-name="utilde" unicode="&#x169;" horiz-adv-x="679" 
d="M670 0h-264v66q-36 -82 -164 -82q-87 0 -130.5 51.5t-43.5 187.5v834h-58v170h273v-983q0 -51 11 -68.5t42 -17.5q46 0 61 39v860h-43v170h260v-1055h56v-172zM461 1364q-40 0 -83 21.5t-82 43t-67 21.5q-24 0 -34.5 -12.5t-10.5 -46.5v-27h-90v92q0 176 125 176
q41 0 118.5 -45t111.5 -45q24 0 33.5 13t9.5 49v26h94v-94q0 -172 -125 -172z" />
    <glyph glyph-name="Umacron" unicode="&#x16a;" horiz-adv-x="720" 
d="M399 1780h310v-178h-56v-1264q0 -145 -27.5 -220.5t-88.5 -104.5t-179 -29q-116 0 -176 29t-87 104.5t-27 220.5v1264h-56v178h320v-178h-25v-1260q0 -115 11.5 -147.5t48.5 -32.5q24 0 35.5 12t17.5 50.5t6 117.5v1260h-27v178zM121 1935v156h477v-156h-477z" />
    <glyph glyph-name="umacron" unicode="&#x16b;" horiz-adv-x="679" 
d="M670 0h-264v66q-36 -82 -164 -82q-87 0 -130.5 51.5t-43.5 187.5v834h-58v170h273v-983q0 -51 11 -68.5t42 -17.5q46 0 61 39v860h-43v170h260v-1055h56v-172zM102 1409v166h476v-166h-476z" />
    <glyph glyph-name="Ubreve" unicode="&#x16c;" horiz-adv-x="720" 
d="M399 1780h310v-178h-56v-1264q0 -145 -27.5 -220.5t-88.5 -104.5t-179 -29q-116 0 -176 29t-87 104.5t-27 220.5v1264h-56v178h320v-178h-25v-1260q0 -115 11.5 -147.5t48.5 -32.5q24 0 35.5 12t17.5 50.5t6 117.5v1260h-27v178zM356 1847q-134 0 -181.5 48t-47.5 173v33
h90v-26q0 -53 27.5 -74t111.5 -21t111 21t27 74v26h92v-33q0 -125 -48.5 -173t-181.5 -48z" />
    <glyph glyph-name="ubreve" unicode="&#x16d;" horiz-adv-x="679" 
d="M670 0h-264v66q-36 -82 -164 -82q-87 0 -130.5 51.5t-43.5 187.5v834h-58v170h273v-983q0 -51 11 -68.5t42 -17.5q46 0 61 39v860h-43v170h260v-1055h56v-172zM338 1341q-133 0 -181 56.5t-48 204.5v57h90v-53q0 -59 29 -88t110 -29q82 0 109.5 28.5t27.5 88.5v53h94v-57
q0 -148 -48 -204.5t-183 -56.5z" />
    <glyph glyph-name="Uring" unicode="&#x16e;" horiz-adv-x="720" 
d="M12 1602v178h269q-55 10 -77 48.5t-22 117.5q0 102 37.5 138t138.5 36q99 0 138 -36.5t39 -137.5q0 -78 -24 -117t-79 -49h277v-178h-56v-1264q0 -145 -27.5 -220.5t-88.5 -104.5t-179 -29q-116 0 -176 29t-87 104.5t-27 220.5v1264h-56zM356 1774h-24v-172h-25v-1260
q0 -115 11.5 -147.5t48.5 -32.5q24 0 35.5 12t17.5 50.5t6 117.5v1260h-27v174q-14 -2 -43 -2zM356 1853q39 0 51.5 18.5t12.5 74.5q0 58 -12 74t-52 16q-38 0 -48.5 -16t-10.5 -74q0 -57 11 -75t48 -18z" />
    <glyph glyph-name="uring" unicode="&#x16f;" horiz-adv-x="679" 
d="M670 0h-264v66q-36 -82 -164 -82q-87 0 -130.5 51.5t-43.5 187.5v834h-58v170h273v-983q0 -51 11 -68.5t42 -17.5q46 0 61 39v860h-43v170h260v-1055h56v-172zM338 1321q-100 0 -137 44.5t-37 172.5q0 125 37 168t139 43q101 0 138.5 -43t37.5 -168q0 -128 -38 -172.5
t-140 -44.5zM338 1413q40 0 51.5 23.5t11.5 101.5q0 75 -11.5 97t-49.5 22q-39 0 -50 -21.5t-11 -97.5q0 -79 10.5 -102t48.5 -23z" />
    <glyph glyph-name="Uhungarumlaut" unicode="&#x170;" horiz-adv-x="720" 
d="M399 1780h310v-178h-56v-1264q0 -145 -27.5 -220.5t-88.5 -104.5t-179 -29q-116 0 -176 29t-87 104.5t-27 220.5v1264h-56v178h320v-178h-25v-1260q0 -115 11.5 -147.5t48.5 -32.5q24 0 35.5 12t17.5 50.5t6 117.5v1260h-27v178zM672 2118l-187 -275h-120l124 275h183z
M389 2118l-129 -275h-123l74 275h178z" />
    <glyph glyph-name="uhungarumlaut" unicode="&#x171;" horiz-adv-x="679" 
d="M670 0h-264v66q-36 -82 -164 -82q-87 0 -130.5 51.5t-43.5 187.5v834h-58v170h273v-983q0 -51 11 -68.5t42 -17.5q46 0 61 39v860h-43v170h260v-1055h56v-172zM668 1679l-195 -342h-131l131 342h195zM371 1679l-140 -342h-129l76 342h193z" />
    <glyph glyph-name="Uogonek" unicode="&#x172;" horiz-adv-x="720" 
d="M399 -184q51 0 93 20v-145q-44 -29 -119 -29q-162 0 -162 139q0 114 127 168l35 15h-15q-116 0 -176 29t-87 104.5t-27 220.5v1264h-56v178h320v-178h-25v-1260q0 -115 11.5 -147.5t48.5 -32.5q24 0 35.5 12t17.5 50.5t6 117.5v1260h-27v178h310v-178h-56v-1264
q0 -171 -38 -247.5t-136 -96.5l-106 -57q-45 -33 -45 -72q0 -49 71 -49z" />
    <glyph glyph-name="uogonek" unicode="&#x173;" horiz-adv-x="679" 
d="M575 -184q51 0 93 20v-145q-44 -29 -119 -29q-162 0 -162 139q0 117 127 168l76 31h-184v66q-36 -82 -164 -82q-87 0 -130.5 51.5t-43.5 187.5v834h-58v170h273v-983q0 -51 11 -68.5t42 -17.5q46 0 61 39v860h-43v170h260v-1055h56v-172l-121 -63q-45 -33 -45 -72
q0 -49 71 -49z" />
    <glyph glyph-name="Wcircumflex" unicode="&#x174;" horiz-adv-x="1142" 
d="M854 1602h-51v178h321v-178h-55l-113 -1602h-280l-101 1292h-10l-96 -1292h-287l-112 1602h-58v178h324v-178h-49l51 -1170h8l103 1348h243l103 -1348h8zM651 1843l-80 146h-6l-78 -146h-118l104 275h193l104 -275h-119z" />
    <glyph glyph-name="wcircumflex" unicode="&#x175;" horiz-adv-x="1032" 
d="M770 1057h-47v170h293v-170h-49l-90 -1057h-273l-80 868h-10l-82 -868h-280l-91 1057h-49v170h303v-170h-49l41 -740h10l84 910h232l84 -910h8zM596 1337l-80 195h-8l-76 -195h-119l103 342h192l107 -342h-119z" />
    <glyph glyph-name="Ycircumflex" unicode="&#x176;" 
d="M350 1602h-47l74 -498h10l76 498h-47v178h319v-178h-59l-180 -854v-568h73v-180h-381v180h74v584l-188 838h-62v178h338v-178zM465 1843l-80 146h-6l-78 -146h-119l105 275h192l105 -275h-119z" />
    <glyph glyph-name="ycircumflex" unicode="&#x177;" horiz-adv-x="710" 
d="M12 1227h322v-170h-58l78 -533h8l87 533h-54v170h301v-170h-61l-195 -1125q-29 -147 -82.5 -205.5t-154.5 -58.5q-56 0 -146 29v170q42 -19 99 -19q45 0 69 26t37 103l14 84l-204 996h-60v170zM436 1337l-80 195h-8l-76 -195h-118l102 342h193l106 -342h-119z" />
    <glyph glyph-name="Ydieresis" unicode="&#x178;" 
d="M350 1602h-47l74 -498h10l76 498h-47v178h319v-178h-59l-180 -854v-568h73v-180h-381v180h74v584l-188 838h-62v178h338v-178zM436 1903v188h185v-188h-185zM145 1903v188h185v-188h-185z" />
    <glyph glyph-name="Ydieresis" unicode="&#x3ab;" 
d="M350 1602h-47l74 -498h10l76 498h-47v178h319v-178h-59l-180 -854v-568h73v-180h-381v180h74v584l-188 838h-62v178h338v-178zM436 1903v188h185v-188h-185zM145 1903v188h185v-188h-185z" />
    <glyph glyph-name="Zacute" unicode="&#x179;" horiz-adv-x="698" 
d="M233 1602v-371h-202v549h637v-170l-396 -1430h195v457h201v-637h-637v193l389 1409h-187zM535 2118l-146 -275h-129l82 275h193z" />
    <glyph glyph-name="zacute" unicode="&#x17a;" horiz-adv-x="600" 
d="M209 1061v-217h-178v383h536v-152l-321 -907h145v240h176v-408h-536v162l319 899h-141zM301 1679h193l-172 -342h-127z" />
    <glyph glyph-name="Zdotaccent" unicode="&#x17b;" horiz-adv-x="698" 
d="M233 1602v-371h-202v549h637v-170l-396 -1430h195v457h201v-637h-637v193l389 1409h-187zM254 1907v188h195v-188h-195z" />
    <glyph glyph-name="zdotaccent" unicode="&#x17c;" horiz-adv-x="600" 
d="M209 1061v-217h-178v383h536v-152l-321 -907h145v240h176v-408h-536v162l319 899h-141zM203 1391v217h192v-217h-192z" />
    <glyph glyph-name="Zcaron" unicode="&#x17d;" horiz-adv-x="698" 
d="M233 1602v-371h-202v549h637v-170l-396 -1430h195v457h201v-637h-637v193l389 1409h-187zM268 2118l80 -144h6l78 144h121l-107 -275h-192l-104 275h118z" />
    <glyph glyph-name="zcaron" unicode="&#x17e;" horiz-adv-x="600" 
d="M209 1061v-217h-178v383h536v-152l-321 -907h145v240h176v-408h-536v162l319 899h-141zM219 1679l78 -194h8l78 194h119l-105 -342h-194l-103 342h119z" />
    <glyph glyph-name="uni018E" unicode="&#x18e;" horiz-adv-x="677" 
d="M233 549v-371h119v567h-231v181h231v673h-119v-456h-200v637h618v-181h-59v-1421h59v-178h-618v549h200z" />
    <glyph glyph-name="uni018F" unicode="&#x18f;" horiz-adv-x="630" 
d="M39 338v676h334v454q0 93 -11.5 120.5t-46.5 27.5t-46 -28t-11 -124v-233h-215v237q0 194 58 261t221 67q159 0 216.5 -62.5t57.5 -236.5v-1159q0 -145 -26.5 -220.5t-84 -104.5t-168.5 -29t-168.5 29t-83.5 104.5t-26 220.5zM315 162q24 0 35.5 12t17 50t5.5 118v500
h-115v-500q0 -80 5.5 -117.5t16.5 -50t35 -12.5z" />
    <glyph glyph-name="uni018F" unicode="&#x4d8;" horiz-adv-x="630" 
d="M39 338v676h334v454q0 93 -11.5 120.5t-46.5 27.5t-46 -28t-11 -124v-233h-215v237q0 194 58 261t221 67q159 0 216.5 -62.5t57.5 -236.5v-1159q0 -145 -26.5 -220.5t-84 -104.5t-168.5 -29t-168.5 29t-83.5 104.5t-26 220.5zM315 162q24 0 35.5 12t17 50t5.5 118v500
h-115v-500q0 -80 5.5 -117.5t16.5 -50t35 -12.5z" />
    <glyph glyph-name="florin" unicode="&#x192;" horiz-adv-x="475" 
d="M27 1227h63v354q0 120 46 167.5t165 47.5q88 0 158 -29v-170q-39 19 -86 19q-39 0 -52.5 -18.5t-13.5 -77.5v-293h135v-170h-135v-1170q0 -124 -44.5 -171.5t-162.5 -47.5q-21 0 -40.5 1.5t-32 3.5t-28.5 6.5t-21.5 6t-20 7t-16.5 6.5v170q44 -21 88 -21q38 0 49.5 19.5
t11.5 81.5v1108h-63v170z" />
    <glyph glyph-name="uni0194" unicode="&#x194;" 
d="M381 -332q-155 0 -213.5 53.5t-58.5 165.5q0 85 34 207l138 651l-201 857h-62v178h336v-178h-45l76 -359l76 359h-45v178h336v-178h-62l-201 -852l140 -656q33 -133 33 -207q0 -110 -62.5 -164.5t-218.5 -54.5zM444 45l-61 256l-59 -256q-27 -125 -27 -143
q0 -41 16 -57.5t72 -16.5q54 0 71 15.5t17 50.5q0 53 -29 151z" />
    <glyph glyph-name="uni019D" unicode="&#x19d;" horiz-adv-x="782" 
d="M276 1063v-1182q0 -119 -40.5 -166t-147.5 -47q-22 0 -40.5 1.5t-36 6.5t-24 6.5t-24 9t-18.5 7.5v170q41 -21 80 -21q35 0 46 19.5t11 81.5v1653h-57v178h321l178 -908h11v730h-60v178h297v-178h-55v-1602h-197l-235 1063h-9z" />
    <glyph glyph-name="uni01A0" unicode="&#x1a0;" horiz-adv-x="706" 
d="M541 1868v139h159v-192q0 -157 -75 -197q14 -66 14 -176v-1104q0 -145 -28.5 -220.5t-91 -104.5t-181.5 -29t-181 29t-90 104.5t-28 220.5v1104q0 145 28 220.5t90 104.5t181 29q81 0 147 -16h2q33 0 43.5 16.5t10.5 71.5zM276 1436v-1094q0 -78 6.5 -117t19 -51
t36.5 -12q37 0 49 32.5t12 147.5v1094q0 80 -6 118.5t-18 50t-37 11.5t-37 -11.5t-18.5 -50.5t-6.5 -118z" />
    <glyph glyph-name="uni01A1" unicode="&#x1a1;" horiz-adv-x="667" 
d="M502 1317v137h160v-190q0 -80 -20.5 -123t-68.5 -56q13 -60 13 -135v-674q0 -119 -27 -182t-84 -86.5t-164 -23.5t-163 23.5t-82.5 86t-26.5 182.5v674q0 91 13 147t46.5 89.5t83 46t129.5 12.5q91 0 150 -18q24 2 32.5 20t8.5 70zM311 1073q-34 0 -45.5 -25.5
t-11.5 -115.5v-635q0 -90 11.5 -114.5t45.5 -24.5q24 0 35 8.5t17 38.5t6 92v635q0 90 -12 115.5t-46 25.5z" />
    <glyph glyph-name="uni01AF" unicode="&#x1af;" horiz-adv-x="763" 
d="M602 1868v139h160v-221q0 -82 -26 -127t-83 -57v-1264q0 -145 -27.5 -220.5t-88.5 -104.5t-179 -29q-116 0 -176 29t-87 104.5t-27 220.5v1264h-56v178h320v-178h-25v-1260q0 -80 5.5 -118t17 -50t35.5 -12q37 0 49 32.5t12 147.5v1260h-29v178h164q24 0 32.5 17.5
t8.5 70.5z" />
    <glyph glyph-name="uni01B0" unicode="&#x1b0;" horiz-adv-x="716" 
d="M551 1317v137h160v-190q0 -85 -22 -127t-75 -54v-911h56v-172h-264v51q-34 -67 -162 -67q-89 0 -132.5 50.5t-43.5 186.5v836h-58v170h273v-983q0 -51 11 -68.5t42 -17.5q46 0 61 39v860h-43v170h140q35 0 46 18.5t11 71.5z" />
    <glyph glyph-name="uni01DD" unicode="&#x1dd;" horiz-adv-x="581" 
d="M39 276v383h295v271q0 91 -12 116t-48 25q-35 0 -46 -24.5t-11 -114.5v-139h-178v159q0 172 53 232.5t201 60.5q95 0 147 -23.5t77.5 -87.5t25.5 -184v-674q0 -90 -13 -146.5t-44.5 -89t-76 -44.5t-116.5 -12q-149 0 -201.5 59.5t-52.5 232.5zM274 156q36 0 48 25.5
t12 115.5v209h-117v-209q0 -91 11 -116t46 -25z" />
    <glyph glyph-name="uni01DD" unicode="&#x4d9;" horiz-adv-x="581" 
d="M39 276v383h295v271q0 91 -12 116t-48 25q-35 0 -46 -24.5t-11 -114.5v-139h-178v159q0 172 53 232.5t201 60.5q95 0 147 -23.5t77.5 -87.5t25.5 -184v-674q0 -90 -13 -146.5t-44.5 -89t-76 -44.5t-116.5 -12q-149 0 -201.5 59.5t-52.5 232.5zM274 156q36 0 48 25.5
t12 115.5v209h-117v-209q0 -91 11 -116t46 -25z" />
    <glyph glyph-name="uni01E6" unicode="&#x1e6;" horiz-adv-x="653" 
d="M334 778v180h282v-958h-215v88q-24 -55 -61.5 -79.5t-103.5 -24.5q-50 0 -85 13.5t-61 46t-38.5 90t-12.5 142.5v1227q0 165 47 229t147 64q127 0 170 -82v66h197v-549h-203v233q0 66 -7 100t-18.5 43t-33.5 9q-25 0 -37 -10.5t-18.5 -47.5t-6.5 -112v-1114
q0 -74 6.5 -111t19 -48t36.5 -11q23 0 34.5 9.5t18.5 42.5t8 99v465h-65zM254 2118l80 -144h6l78 144h121l-107 -275h-192l-105 275h119z" />
    <glyph glyph-name="uni01E7" unicode="&#x1e7;" horiz-adv-x="643" 
d="M578 1057v-1069q0 -97 -11 -156t-42.5 -97.5t-83 -52.5t-136.5 -14q-167 0 -264 45v178q93 -43 201 -43q70 0 94 23.5t24 95.5v103q-42 -68 -155 -68q-87 0 -131.5 52t-44.5 188v764q0 137 44 188t130 51q128 0 166 -84v66h262v-170h-53zM360 219v811q-19 43 -63 43
q-29 0 -40 -19t-11 -69v-721q0 -49 11 -67.5t40 -18.5q44 0 63 41zM236 1679l77 -194h9l77 194h119l-104 -342h-195l-102 342h119z" />
    <glyph glyph-name="uni01F4" unicode="&#x1f4;" horiz-adv-x="653" 
d="M334 778v180h282v-958h-215v88q-24 -55 -61.5 -79.5t-103.5 -24.5q-50 0 -85 13.5t-61 46t-38.5 90t-12.5 142.5v1227q0 165 47 229t147 64q127 0 170 -82v66h197v-549h-203v233q0 66 -7 100t-18.5 43t-33.5 9q-25 0 -37 -10.5t-18.5 -47.5t-6.5 -112v-1114
q0 -74 6.5 -111t19 -48t36.5 -11q23 0 34.5 9.5t18.5 42.5t8 99v465h-65zM522 2118l-145 -275h-129l82 275h192z" />
    <glyph glyph-name="uni01F5" unicode="&#x1f5;" horiz-adv-x="643" 
d="M578 1057v-1069q0 -97 -11 -156t-42.5 -97.5t-83 -52.5t-136.5 -14q-167 0 -264 45v178q93 -43 201 -43q70 0 94 23.5t24 95.5v103q-42 -68 -155 -68q-87 0 -131.5 52t-44.5 188v764q0 137 44 188t130 51q128 0 166 -84v66h262v-170h-53zM360 219v811q-19 43 -63 43
q-29 0 -40 -19t-11 -69v-721q0 -49 11 -67.5t40 -18.5q44 0 63 41zM322 1679h192l-172 -342h-127z" />
    <glyph glyph-name="uni01F8" unicode="&#x1f8;" horiz-adv-x="782" 
d="M535 1602h-60v178h297v-178h-55v-1602h-197l-235 1063h-9v-883h70v-180h-321v180h57v1422h-57v178h321l178 -908h11v730zM354 1843l-145 275h192l84 -275h-131z" />
    <glyph glyph-name="uni01F9" unicode="&#x1f9;" horiz-adv-x="698" 
d="M25 1227h268v-66q41 84 166 84q86 0 130 -51t44 -188v-834h53v-172h-270v985q0 50 -11 69t-40 19q-47 0 -64 -43v-858h45v-172h-321v172h59v885h-59v170zM348 1681l109 -344h-129l-172 344h192z" />
    <glyph glyph-name="dotlessj" unicode="&#x237;" horiz-adv-x="352" 
d="M90 -51v1108h-59v170h276v-1342q0 -122 -45 -169.5t-164 -47.5q-21 0 -40 1.5t-31 3.5t-28 6.5t-21.5 6t-20 7t-16.5 6.5v170q44 -21 86 -21q38 0 50.5 20t12.5 81z" />
    <glyph glyph-name="uni0241" unicode="&#x241;" horiz-adv-x="618" 
d="M387 1796q67 0 108.5 -24.5t65 -90t23.5 -178.5v-229q0 -79 -10 -133t-37 -133l-58 -168q-18 -50 -23 -85t-5 -98v-477h61v-180h-362v180h61v475q0 103 9.5 163t39.5 122l47 100q37 77 39 187v219q0 75 -6.5 112t-17.5 47.5t-35 10.5q-33 0 -46.5 -28t-13.5 -124v-233
h-198v549h194v-51q40 67 164 67z" />
    <glyph glyph-name="uni0242" unicode="&#x242;" horiz-adv-x="555" 
d="M348 1245q87 0 130.5 -47t43.5 -158v-155q0 -63 -8 -103t-33 -102l-53 -131q-25 -62 -25 -119v-16v-242h58v-172h-336v172h57v242q0 73 9.5 118t37.5 97l41 78q20 38 27.5 65t7.5 72v112q0 70 -11.5 93.5t-43.5 23.5q-31 0 -43 -24.5t-12 -96.5v-133h-177v408h179v-53
q48 71 151 71z" />
    <glyph glyph-name="uni024C" unicode="&#x24c;" horiz-adv-x="819" 
d="M8 823v176h137v603h-59v178h426q125 0 180.5 -56.5t55.5 -183.5v-418q0 -167 -89 -204v-11q86 -39 89 -180l8 -508q0 -39 30 -39h23v-180h-123q-91 0 -129.5 47t-40.5 152l-6 553q0 41 -12 56t-43 15h-68v-643h51v-180h-352v180h59v643h-137zM387 999h72q28 0 39.5 16
t11.5 58v449q0 45 -12.5 62.5t-44.5 17.5h-66v-603z" />
    <glyph glyph-name="uni024D" unicode="&#x24d;" horiz-adv-x="661" 
d="M33 530v166h104v361h-59v170h268v-66q32 84 150 84q71 0 109 -42.5t38 -155.5v-228h-178v174q0 45 -11 62.5t-36 17.5q-47 0 -64 -43v-334h154v-166h-154v-358h47v-172h-323v172h59v358h-104z" />
    <glyph glyph-name="uni0263" unicode="&#x263;" horiz-adv-x="710" 
d="M350 -332q-75 0 -125 12t-75 35t-34.5 49.5t-9.5 63.5q0 52 33 160l125 477l-176 592h-76v170h320v-170h-29l55 -226l60 226h-27v170h305v-170h-73l-174 -584l120 -485q33 -108 33 -162q0 -75 -54 -116.5t-198 -41.5zM406 -12l-52 172l-51 -172q-22 -56 -22 -103
q0 -29 14.5 -41t58.5 -12q43 0 58.5 12t15.5 43q0 39 -22 101z" />
    <glyph glyph-name="uni0272" unicode="&#x272;" horiz-adv-x="698" 
d="M301 1030v-1147q0 -120 -45 -166.5t-164 -46.5q-78 0 -158 29v170q40 -21 86 -21q38 0 51 20t13 81v1108h-59v170h268v-66q40 84 166 84q86 0 130 -51t44 -188v-834h53v-172h-270v985q0 50 -11 69t-40 19q-47 0 -64 -43z" />
    <glyph glyph-name="circumflex" unicode="&#x2c6;" horiz-adv-x="481" 
d="M324 1337l-80 195h-8l-76 -195h-119l102 342h193l106 -342h-118z" />
    <glyph glyph-name="caron" unicode="&#x2c7;" horiz-adv-x="481" 
d="M160 1679l78 -194h8l78 194h118l-104 -342h-195l-102 342h119z" />
    <glyph glyph-name="breve" unicode="&#x2d8;" horiz-adv-x="536" 
d="M268 1341q-133 0 -181 56.5t-48 204.5v57h90v-53q0 -59 29 -88t110 -29q82 0 110 28.5t28 88.5v53h94v-57q0 -148 -48.5 -204.5t-183.5 -56.5z" />
    <glyph glyph-name="dotaccent" unicode="&#x2d9;" horiz-adv-x="288" 
d="M49 1391v217h193v-217h-193z" />
    <glyph glyph-name="ring" unicode="&#x2da;" horiz-adv-x="428" 
d="M213 1321q-100 0 -137 44.5t-37 172.5q0 125 37 168t139 43q101 0 138.5 -43t37.5 -168q0 -128 -38 -172.5t-140 -44.5zM213 1413q40 0 51.5 23.5t11.5 101.5q0 75 -11.5 97t-49.5 22q-39 0 -50 -21.5t-11 -97.5q0 -79 10.5 -102t48.5 -23z" />
    <glyph glyph-name="ogonek" unicode="&#x2db;" horiz-adv-x="352" 
d="M223 -184q50 0 92 20v-145q-43 -29 -118 -29q-162 0 -162 139q0 117 127 168l76 31h77l-118 -63q-45 -33 -45 -72q0 -49 71 -49z" />
    <glyph glyph-name="tilde" unicode="&#x2dc;" horiz-adv-x="565" 
d="M406 1364q-40 0 -83 21.5t-82 43t-67 21.5q-24 0 -34.5 -12.5t-10.5 -46.5v-27h-90v92q0 176 125 176q41 0 118 -45t111 -45q24 0 33.5 13t9.5 49v26h94v-94q0 -172 -124 -172z" />
    <glyph glyph-name="hungarumlaut" unicode="&#x2dd;" horiz-adv-x="655" 
d="M608 1679l-194 -342h-131l131 342h194zM311 1679l-139 -342h-129l76 342h192z" />
    <glyph glyph-name="gravecomb" unicode="&#x300;" horiz-adv-x="0" 
d="M-346 1681l108 -344h-129l-172 344h193z" />
    <glyph glyph-name="acutecomb" unicode="&#x301;" horiz-adv-x="0" 
d="M-336 1679h193l-172 -342h-127z" />
    <glyph glyph-name="uni0302" unicode="&#x302;" horiz-adv-x="0" 
d="M-260 1337l-80 195h-8l-76 -195h-119l103 342h192l107 -342h-119z" />
    <glyph glyph-name="tildecomb" unicode="&#x303;" horiz-adv-x="0" 
d="M-219 1364q-40 0 -83 21.5t-81.5 43t-67.5 21.5q-24 0 -34.5 -12.5t-10.5 -46.5v-27h-90v92q0 176 125 176q41 0 118.5 -45t111.5 -45q24 0 33.5 13t9.5 49v26h94v-94q0 -172 -125 -172z" />
    <glyph glyph-name="uni0304" unicode="&#x304;" horiz-adv-x="0" 
d="M-578 1409v166h476v-166h-476z" />
    <glyph glyph-name="uni0306" unicode="&#x306;" horiz-adv-x="0" 
d="M-340 1341q-133 0 -181 56.5t-48 204.5v57h90v-53q0 -59 29 -88t110 -29q82 0 109.5 28.5t27.5 88.5v53h94v-57q0 -148 -48 -204.5t-183 -56.5z" />
    <glyph glyph-name="uni0307" unicode="&#x307;" horiz-adv-x="0" 
d="M-436 1391v217h192v-217h-192z" />
    <glyph glyph-name="uni0308" unicode="&#x308;" horiz-adv-x="0" 
d="M-289 1391v217h187v-217h-187zM-578 1391v217h183v-217h-183z" />
    <glyph glyph-name="hookabovecomb" unicode="&#x309;" horiz-adv-x="0" 
d="M-342 1657q82 0 112.5 -22.5t30.5 -78.5v-32q0 -32 -16 -59t-35 -42t-35 -37.5t-16 -46.5v-26h-92v24q0 31 12.5 57.5t27.5 41t27.5 32.5t12.5 35v37q0 29 -5 39t-22 10q-19 0 -24 -9.5t-5 -41.5v-43h-108v53q0 61 26.5 85t108.5 24z" />
    <glyph glyph-name="uni030A" unicode="&#x30a;" horiz-adv-x="0" 
d="M-344 1321q-100 0 -137 44.5t-37 172.5q0 125 37 168t139 43q101 0 138.5 -43t37.5 -168q0 -128 -38 -172.5t-140 -44.5zM-344 1413q40 0 51.5 23.5t11.5 101.5q0 75 -11.5 97t-49.5 22q-39 0 -50 -21.5t-11 -97.5q0 -79 10.5 -102t48.5 -23z" />
    <glyph glyph-name="uni030B" unicode="&#x30b;" horiz-adv-x="0" 
d="M-10 1679l-195 -342h-131l131 342h195zM-307 1679l-139 -342h-129l75 342h193z" />
    <glyph glyph-name="uni030C" unicode="&#x30c;" horiz-adv-x="0" 
d="M-424 1679l78 -194h8l78 194h119l-105 -342h-194l-103 342h119z" />
    <glyph glyph-name="uni0313" unicode="&#x313;" horiz-adv-x="0" 
d="M-295 1753v-82h-29q-26 0 -26 -31v-86h102v-225h-194v293q0 67 22.5 99t87.5 32h37z" />
    <glyph glyph-name="uni031B" unicode="&#x31b;" horiz-adv-x="73" 
d="M-102 1317v137h159v-190q0 -103 -33.5 -145t-121.5 -42h-113v150h61q28 0 38 17.5t10 72.5z" />
    <glyph glyph-name="dotbelowcomb" unicode="&#x323;" horiz-adv-x="10" 
d="M-438 -309v188h192v-188h-192z" />
    <glyph glyph-name="uni0326" unicode="&#x326;" horiz-adv-x="0" 
d="M-291 -336h-192q88 85 88 191q0 37 -17 100h127q39 -79 39 -148q0 -76 -45 -143z" />
    <glyph glyph-name="uni0328" unicode="&#x328;" horiz-adv-x="0" 
d="M-313 -184q50 0 92 20v-145q-43 -29 -119 -29q-162 0 -162 139q0 117 127 168l76 31h78l-119 -63q-45 -33 -45 -72q0 -49 72 -49z" />
    <glyph glyph-name="uni032D" unicode="&#x32d;" horiz-adv-x="10" 
d="M-260 -336l-78 156h-8l-76 -156h-121l105 275h194l105 -275h-121z" />
    <glyph glyph-name="tonos" unicode="&#x384;" horiz-adv-x="212" 
d="M20 1804h187l-55 -458h-132v458z" />
    <glyph glyph-name="dieresistonos" unicode="&#x385;" horiz-adv-x="626" 
d="M231 1804h187l-56 -458h-131v458zM0 1391v217h193v-217h-193zM434 1391v217h193v-217h-193z" />
    <glyph glyph-name="Alphatonos" unicode="&#x386;" horiz-adv-x="876" 
d="M252 1602v178h498v-178h-62l115 -1422h59v-180h-332v180h41l-18 301h-113l-16 -301h39v-180h-324v180h62l114 1422h-63zM494 1434l-45 -783h96l-43 783h-8zM20 1804h187l-55 -458h-132v458z" />
    <glyph glyph-name="anoteleia" unicode="&#x387;" horiz-adv-x="272" 
d="M31 981v246h211v-246h-211z" />
    <glyph glyph-name="Epsilontonos" unicode="&#x388;" horiz-adv-x="882" 
d="M647 1231v371h-119v-568h232v-180h-232v-674h119v457h201v-637h-619v180h60v1422h-60v178h619v-549h-201zM20 1804h187l-55 -458h-132v458z" />
    <glyph glyph-name="Etatonos" unicode="&#x389;" horiz-adv-x="976" 
d="M528 180h29v-180h-328v180h60v1422h-60v178h328v-178h-29v-570h123v570h-28v178h329v-178h-61v-1422h61v-180h-329v180h28v672h-123v-672zM20 1804h187l-55 -458h-132v458z" />
    <glyph glyph-name="Iotatonos" unicode="&#x38a;" horiz-adv-x="614" 
d="M528 180h64v-180h-363v180h60v1422h-60v178h363v-178h-64v-1422zM20 1804h187l-55 -458h-132v458z" />
    <glyph glyph-name="Omicrontonos" unicode="&#x38c;" horiz-adv-x="847" 
d="M449 1438v-1096q0 -114 12.5 -147t48.5 -33q37 0 49 32.5t12 147.5v1096q0 80 -6 118.5t-18 50t-37 11.5t-36.5 -11.5t-18 -50.5t-6.5 -118zM510 1798q119 0 181.5 -29.5t91 -105.5t28.5 -221v-1104q0 -145 -28.5 -220.5t-91 -104.5t-181.5 -29t-181 29t-90 104.5
t-28 220.5v1104q0 145 28 221t90 105.5t181 29.5zM20 1804h187l-55 -458h-132v458z" />
    <glyph glyph-name="Upsilontonos" unicode="&#x38e;" horiz-adv-x="964" 
d="M565 1602h-47l74 -498h10l76 498h-47v178h319v-178h-59l-180 -854v-568h73v-180h-381v180h74v584l-188 838h-62v178h338v-178zM20 1804h187l-55 -458h-132v458z" />
    <glyph glyph-name="Omegatonos" unicode="&#x38f;" horiz-adv-x="849" 
d="M512 1616q-25 0 -36.5 -12t-17 -49.5t-5.5 -118.5v-940q0 -101 8.5 -136t30.5 -41v-319h-283v180h141v33q-78 45 -107.5 123.5t-29.5 206.5v899q0 145 28 220.5t90 104.5t181 29t181 -29t90 -104.5t28 -220.5v-899q0 -127 -30.5 -206t-108.5 -124v-33h143v-180h-285v319
q23 6 32 41t9 136v940q0 81 -5.5 118.5t-17 49.5t-36.5 12zM20 1804h187l-55 -458h-132v458z" />
    <glyph glyph-name="iotadieresistonos" unicode="&#x390;" horiz-adv-x="632" 
d="M131 1227h270v-987q0 -52 8 -67t35 -15q35 0 60 14v-164q-60 -24 -137 -24q-104 0 -143.5 42.5t-39.5 155.5v875h-53v170zM231 1804h187l-56 -458h-131v458zM0 1391v217h193v-217h-193zM434 1391v217h193v-217h-193z" />
    <glyph glyph-name="uni0413" unicode="&#x393;" horiz-adv-x="671" 
d="M25 1780h618v-549h-201v371h-118v-1422h73v-180h-372v180h59v1422h-59v178z" />
    <glyph glyph-name="uni0413" unicode="&#x413;" horiz-adv-x="671" 
d="M25 1780h618v-549h-201v371h-118v-1422h73v-180h-372v180h59v1422h-59v178z" />
    <glyph glyph-name="Delta" unicode="&#x394;" horiz-adv-x="737" 
d="M360 1434l-69 -1254h147l-69 1254h-9zM199 1780h338l131 -1600v-180h-602v180z" />
    <glyph glyph-name="uni04E8" unicode="&#x398;" horiz-adv-x="675" 
d="M338 1798q119 0 181.5 -29.5t91 -105.5t28.5 -221v-1104q0 -145 -28.5 -220.5t-91 -104.5t-181.5 -29t-181 29t-90 104.5t-28 220.5v1104q0 145 28 221t90 105.5t181 29.5zM338 162q37 0 49 32.5t12 147.5v510h-123v-510q0 -78 6.5 -117t19 -51t36.5 -12zM276 1438v-406
h123v406q0 80 -6 118.5t-18 50t-37 11.5t-37 -11.5t-18.5 -50.5t-6.5 -118z" />
    <glyph glyph-name="uni04E8" unicode="&#x4e8;" horiz-adv-x="675" 
d="M338 1798q119 0 181.5 -29.5t91 -105.5t28.5 -221v-1104q0 -145 -28.5 -220.5t-91 -104.5t-181.5 -29t-181 29t-90 104.5t-28 220.5v1104q0 145 28 221t90 105.5t181 29.5zM338 162q37 0 49 32.5t12 147.5v510h-123v-510q0 -78 6.5 -117t19 -51t36.5 -12zM276 1438v-406
h123v406q0 80 -6 118.5t-18 50t-37 11.5t-37 -11.5t-18.5 -50.5t-6.5 -118z" />
    <glyph glyph-name="uni041B" unicode="&#x39b;" 
d="M125 1602v178h498v-178h-62l115 -1422h59v-180h-332v180h41l-69 1256h-8l-70 -1256h39v-180h-324v180h62l114 1422h-63z" />
    <glyph glyph-name="uni041B" unicode="&#x41b;" 
d="M125 1602v178h498v-178h-62l115 -1422h59v-180h-332v180h41l-69 1256h-8l-70 -1256h39v-180h-324v180h62l114 1422h-63z" />
    <glyph glyph-name="Xi" unicode="&#x39e;" horiz-adv-x="677" 
d="M643 0h-608v637h201v-457h206v457h201v-637zM442 1602h-206v-371h-201v549h608v-549h-201v371zM555 852h-432v180h432v-180z" />
    <glyph glyph-name="uni041F" unicode="&#x3a0;" horiz-adv-x="772" 
d="M324 180h28v-180h-327v180h59v1422h-59v178h723v-178h-62v-1422h62v-180h-330v180h28v1422h-122v-1422z" />
    <glyph glyph-name="uni041F" unicode="&#x41f;" horiz-adv-x="772" 
d="M324 180h28v-180h-327v180h59v1422h-59v178h723v-178h-62v-1422h62v-180h-330v180h28v1422h-122v-1422z" />
    <glyph glyph-name="Sigma" unicode="&#x3a3;" horiz-adv-x="704" 
d="M426 954l-170 -774h215v457h199v-637h-637v184l176 770l-178 656v170h624v-549h-198v371h-205z" />
    <glyph glyph-name="uni0424" unicode="&#x3a6;" horiz-adv-x="944" 
d="M588 1599v-174h96q124 0 179 -56.5t55 -184.5v-580q0 -130 -55 -186t-179 -56h-96v-182h59v-180h-352v180h59v182h-94q-125 0 -180 56t-55 186v580q0 129 55 185t180 56h94v174h-59v181h352v-181h-59zM684 618v551q0 46 -11.5 62t-45.5 16h-39v-706h39q34 0 45.5 15.5
t11.5 61.5zM258 1169v-551q0 -45 12 -61t45 -16h39v706h-39q-33 0 -45 -16.5t-12 -61.5z" />
    <glyph glyph-name="uni0424" unicode="&#x424;" horiz-adv-x="944" 
d="M588 1599v-174h96q124 0 179 -56.5t55 -184.5v-580q0 -130 -55 -186t-179 -56h-96v-182h59v-180h-352v180h59v182h-94q-125 0 -180 56t-55 186v580q0 129 55 185t180 56h94v174h-59v181h352v-181h-59zM684 618v551q0 46 -11.5 62t-45.5 16h-39v-706h39q34 0 45.5 15.5
t11.5 61.5zM258 1169v-551q0 -45 12 -61t45 -16h39v706h-39q-33 0 -45 -16.5t-12 -61.5z" />
    <glyph glyph-name="Psi" unicode="&#x3a8;" horiz-adv-x="1001" 
d="M707 618v1162h280v-178h-53v-998q0 -130 -55 -186t-179 -56h-88v-182h66v-180h-356v180h65v182h-88q-124 0 -178.5 56t-54.5 186v998h-54v178h279v-1162q0 -45 12 -61t45 -16h39v1239h225v-1239h37q34 0 46 16t12 61z" />
    <glyph glyph-name="Omega" unicode="&#x3a9;" horiz-adv-x="679" 
d="M340 1616q-25 0 -36.5 -12t-17 -49.5t-5.5 -118.5v-940q0 -101 8.5 -136t29.5 -41v-319h-282v180h141v33q-78 45 -107.5 123.5t-29.5 206.5v899q0 145 28 220.5t90 104.5t181 29t181 -29t90 -104.5t28 -220.5v-899q0 -127 -30.5 -206t-108.5 -124v-33h143v-180h-285v319
q23 6 32 41t9 136v940q0 81 -5.5 118.5t-17 49.5t-36.5 12z" />
    <glyph glyph-name="alphatonos" unicode="&#x3ac;" horiz-adv-x="702" 
d="M586 1227v-987q0 -51 8.5 -66.5t34.5 -15.5q36 0 61 14v-164q-65 -24 -135 -24q-40 0 -70.5 7t-46 15.5t-27 24t-15 23.5t-7.5 24q-32 -49 -70 -71.5t-106 -22.5q-86 0 -130 51.5t-44 187.5v783q0 137 44 188t130 51q130 0 162 -84v66h211zM369 199v831q-17 43 -62 43
q-31 0 -42 -19t-11 -69v-741q0 -48 11.5 -68t41.5 -20q45 0 62 43zM248 1804h186l-55 -458h-131v458z" />
    <glyph glyph-name="epsilontonos" unicode="&#x3ad;" horiz-adv-x="567" 
d="M201 1804h186l-55 -458h-131v458zM360 1157v70h179v-367h-179v98q0 70 -12.5 92.5t-46.5 22.5q-31 0 -44 -21t-13 -87v-177q0 -30 12 -41.5t45 -11.5h162v-162h-162q-32 0 -43.5 -13.5t-11.5 -43.5v-229q0 -57 6.5 -85.5t17.5 -36t33 -7.5q33 0 45 24.5t12 110.5v162h179
v-183q0 -171 -49 -229.5t-193 -58.5q-146 0 -203 54t-57 191v273q0 114 92 145v8q-90 29 -90 142v241q0 104 44.5 155.5t123.5 51.5q110 0 153 -88z" />
    <glyph glyph-name="etatonos" unicode="&#x3ae;" horiz-adv-x="669" 
d="M25 1227h268v-66q37 84 166 84q86 0 130 -51t44 -188v-1321h-217v1300q0 50 -11 69t-40 19q-47 0 -64 -43v-858h45v-172h-321v172h59v885h-59v170zM254 1804h186l-55 -458h-131v458z" />
    <glyph glyph-name="iotatonos" unicode="&#x3af;" horiz-adv-x="397" 
d="M12 1227h271v-987q0 -52 8 -67t35 -15q34 0 59 14v-164q-60 -24 -137 -24q-104 0 -143 42.5t-39 155.5v875h-54v170zM98 1804h187l-56 -458h-131v458z" />
    <glyph glyph-name="upsilondieresistonos" unicode="&#x3b0;" horiz-adv-x="677" 
d="M256 1804h186l-55 -458h-131v458zM627 1227v-951q0 -120 -26.5 -182.5t-83 -86t-163.5 -23.5t-163.5 23.5t-83.5 86t-27 182.5v781h-55v170h270v-930q0 -89 12 -114t47 -25q34 0 45 24.5t11 114.5v930h217zM27 1391v217h192v-217h-192zM459 1391v217h192v-217h-192z" />
    <glyph glyph-name="alpha" unicode="&#x3b1;" horiz-adv-x="702" 
d="M586 1227v-987q0 -51 8.5 -66.5t34.5 -15.5q36 0 61 14v-164q-65 -24 -135 -24q-40 0 -70.5 7t-46 15.5t-27 24t-15 23.5t-7.5 24q-32 -49 -70 -71.5t-106 -22.5q-86 0 -130 51.5t-44 187.5v783q0 137 44 188t130 51q130 0 162 -84v66h211zM369 199v831q-17 43 -62 43
q-31 0 -42 -19t-11 -69v-741q0 -48 11.5 -68t41.5 -20q45 0 62 43z" />
    <glyph glyph-name="beta" unicode="&#x3b2;" horiz-adv-x="638" 
d="M590 1505v-282q0 -87 -19 -133.5t-61 -63.5v-10q90 -38 90 -199v-594q0 -135 -48.5 -187t-135.5 -52q-124 0 -166 82v-381h-207v1818q0 90 13 145.5t46.5 89t83 46t129.5 12.5q157 0 216 -59.5t59 -231.5zM332 932h-74v-725q22 -39 61 -39q35 0 46.5 30t11.5 130v530
q0 40 -10.5 57t-34.5 17zM258 1483v-373h74q24 0 33.5 15.5t9.5 56.5v303q0 89 -12 114t-48 25q-33 0 -45 -26t-12 -115z" />
    <glyph glyph-name="gamma" unicode="&#x3b3;" horiz-adv-x="710" 
d="M248 0l-174 1057h-62v170h320v-170h-41l69 -633h9l65 633h-43v170h305v-170h-63l-170 -1057v-315h-215v315z" />
    <glyph glyph-name="delta" unicode="&#x3b4;" horiz-adv-x="622" 
d="M276 1565v-154q0 -42 17 -70t65 -65l91 -70q82 -63 108.5 -130t28.5 -208v-592q0 -119 -27 -182t-84 -86.5t-164 -23.5t-163 23.5t-82.5 86t-26.5 182.5v644q0 262 172 262q4 0 10.5 -1t9.5 -1v8q-89 57 -126 108.5t-37 139.5v174q0 98 63 142t188 44q133 0 187.5 -54
t54.5 -186v-174h-178v166q0 50 -11.5 67t-41.5 17q-28 0 -41 -14t-13 -53zM309 1063q-34 0 -44.5 -27t-10.5 -110v-629q0 -90 11.5 -114.5t45.5 -24.5q24 0 35 8.5t17 38.5t6 92v627q0 84 -12.5 111.5t-47.5 27.5z" />
    <glyph glyph-name="epsilon" unicode="&#x3b5;" horiz-adv-x="567" 
d="M360 1157v70h179v-367h-179v98q0 70 -12.5 92.5t-46.5 22.5q-31 0 -44 -21t-13 -87v-177q0 -30 12 -41.5t45 -11.5h162v-162h-162q-32 0 -43.5 -13.5t-11.5 -43.5v-229q0 -57 6.5 -85.5t17.5 -36t33 -7.5q33 0 45 24.5t12 110.5v162h179v-183q0 -171 -49 -229.5
t-193 -58.5q-146 0 -203 54t-57 191v273q0 114 92 145v8q-90 29 -90 142v241q0 104 44.5 155.5t123.5 51.5q110 0 153 -88z" />
    <glyph glyph-name="zeta" unicode="&#x3b6;" horiz-adv-x="569" 
d="M23 1393v387h530v-144l-225 -614q-49 -140 -61.5 -212t-12.5 -222v-275q0 -91 11 -116t44 -25h45q113 0 156 -51t43 -170q0 -131 -55 -266h-174q51 136 51 254q0 37 -9 49t-30 12h-47q-95 0 -147 23.5t-77.5 87t-25.5 182.5v276q0 153 24.5 260t96.5 289l188 494h-149
v-219h-176z" />
    <glyph glyph-name="eta" unicode="&#x3b7;" horiz-adv-x="669" 
d="M25 1227h268v-66q37 84 166 84q86 0 130 -51t44 -188v-1321h-217v1300q0 50 -11 69t-40 19q-47 0 -64 -43v-858h45v-172h-321v172h59v885h-59v170z" />
    <glyph glyph-name="theta" unicode="&#x3b8;" horiz-adv-x="622" 
d="M311 -16q-107 0 -163 23.5t-82.5 86t-26.5 182.5v1227q0 90 13 145.5t46.5 89t83 46t129.5 12.5q107 0 164 -24t84 -87t27 -182v-1227q0 -119 -27 -182t-84 -86.5t-164 -23.5zM311 158q24 0 35 8.5t17 38.5t6 92v512h-115v-512q0 -90 11.5 -114.5t45.5 -24.5zM311 1624
q-34 0 -45.5 -25.5t-11.5 -115.5v-502h115v502q0 90 -12 115.5t-46 25.5z" />
    <glyph glyph-name="iota" unicode="&#x3b9;" horiz-adv-x="397" 
d="M12 1227h271v-987q0 -52 8 -67t35 -15q34 0 59 14v-164q-60 -24 -137 -24q-104 0 -143 42.5t-39 155.5v875h-54v170z" />
    <glyph glyph-name="uni043A" unicode="&#x3ba;" horiz-adv-x="716" 
d="M686 1057h-78l-127 -363l160 -522h64v-172h-312v172h31l-123 397v-397h33v-172h-309v172h59v885h-59v170h276v-518l119 348h-53v170h319v-170z" />
    <glyph glyph-name="uni043A" unicode="&#x43a;" horiz-adv-x="716" 
d="M686 1057h-78l-127 -363l160 -522h64v-172h-312v172h31l-123 397v-397h33v-172h-309v172h59v885h-59v170h276v-518l119 348h-53v170h319v-170z" />
    <glyph glyph-name="lambda" unicode="&#x3bb;" horiz-adv-x="710" 
d="M696 0h-319v172h41l-70 813h-8l-68 -813h43v-172h-303v172h62l129 1061h119l-21 246q-9 81 -37 110t-84 29q-54 0 -100 -21v170q90 29 164 29q107 0 163 -58t76 -202l152 -1364h61v-172z" />
    <glyph glyph-name="mu" unicode="&#x3bc;" horiz-adv-x="679" 
d="M670 0h-248v45q-16 -53 -86 -53q-49 0 -68 31l15 -338h-215v1372h-58v170h273v-983q0 -51 11 -68.5t42 -17.5q46 0 61 39v860h-43v170h260v-1055h56v-172z" />
    <glyph glyph-name="xi" unicode="&#x3be;" horiz-adv-x="569" 
d="M309 172h45q112 0 155.5 -52t43.5 -167q0 -130 -55 -268h-174q51 136 51 254q0 37 -9 49t-30 12h-47q-95 0 -147 23.5t-77.5 87t-25.5 182.5v682q0 115 92 141v8q-44 18 -66 52t-22 94v329q0 105 63 151t189 46q135 0 188.5 -54.5t53.5 -193.5v-166h-179v158q0 56 -11 74
t-42 18q-29 0 -41 -15.5t-12 -62.5v-292q0 -31 11.5 -44.5t43.5 -13.5h166v-170h-164q-33 0 -44 -11.5t-11 -43.5v-666q0 -91 11 -116t44 -25z" />
    <glyph glyph-name="pi" unicode="&#x3c0;" horiz-adv-x="774" 
d="M410 186v871h-109v-885h47v-172h-323v172h59v885h-59v170h718v-170h-116v-809q0 -56 11 -73t44 -17q40 0 78 14v-162q-75 -26 -150 -26q-113 0 -156.5 44.5t-43.5 157.5z" />
    <glyph glyph-name="rho" unicode="&#x3c1;" horiz-adv-x="624" 
d="M256 57v-372h-213v1265q0 90 13 145.5t46.5 89t83 46t129.5 12.5q106 0 163 -24t84.5 -87.5t27.5 -181.5v-727q0 -136 -45 -187.5t-131 -51.5q-119 0 -158 73zM315 1071q-24 0 -35.5 -9t-17.5 -39t-6 -93v-731q17 -43 63 -43q29 0 41.5 20.5t12.5 67.5v686
q0 89 -12.5 115t-45.5 26z" />
    <glyph glyph-name="sigma1" unicode="&#x3c2;" horiz-adv-x="569" 
d="M336 0h-47q-95 0 -147 23.5t-77.5 87t-25.5 182.5v668q0 82 12 138.5t35.5 87.5t53.5 44.5t71 13.5q111 0 151 -88v70h181v-408h-178v123q0 80 -11.5 105.5t-44.5 25.5q-32 0 -43.5 -26.5t-11.5 -112.5v-621q0 -91 11 -116t44 -25h45q113 0 156 -52t43 -171
q0 -74 -13 -131.5t-42 -132.5h-174q51 139 51 254q0 37 -9 49t-30 12z" />
    <glyph glyph-name="sigma" unicode="&#x3c3;" horiz-adv-x="698" 
d="M311 -16q-107 0 -163 23.5t-82.5 86t-26.5 182.5v658q0 91 13 146.5t46.5 89t83 45.5t129.5 12h373v-170h-117q19 -68 19 -154v-627q0 -119 -27 -182t-84 -86.5t-164 -23.5zM311 1057q-34 0 -45.5 -26.5t-11.5 -115.5v-618q0 -90 11.5 -114.5t45.5 -24.5q24 0 35 8.5
t17 38.5t6 92v618q0 87 -12.5 114.5t-45.5 27.5z" />
    <glyph glyph-name="tau" unicode="&#x3c4;" horiz-adv-x="649" 
d="M168 186v871h-156v170h619v-400h-150v230h-96v-809q0 -56 11 -73t44 -17q40 0 78 14v-162q-75 -26 -149 -26q-115 0 -158 44.5t-43 157.5z" />
    <glyph glyph-name="upsilon" unicode="&#x3c5;" horiz-adv-x="653" 
d="M614 1227v-951q0 -120 -26.5 -182.5t-82.5 -86t-163 -23.5t-163.5 23.5t-83.5 86t-27 182.5v781h-56v170h271v-930q0 -89 12 -114t47 -25q34 0 44.5 24.5t10.5 114.5v930h217z" />
    <glyph glyph-name="uni0444" unicode="&#x3c6;" horiz-adv-x="907" 
d="M346 1606h-59v174h278v-553h94q113 0 163 -44.5t50 -146.5v-819q0 -217 -213 -217h-94v-143h53v-172h-331v172h59v143h-94q-213 0 -213 217v819q0 102 50 146.5t163 44.5h94v379zM602 1069h-37v-897h37q30 0 41.5 16t11.5 52v768q0 35 -11 48t-42 13zM346 1069h-37
q-31 0 -42 -13t-11 -48v-768q0 -36 11.5 -52t41.5 -16h37v897z" />
    <glyph glyph-name="uni0444" unicode="&#x444;" horiz-adv-x="907" 
d="M346 1606h-59v174h278v-553h94q113 0 163 -44.5t50 -146.5v-819q0 -217 -213 -217h-94v-143h53v-172h-331v172h59v143h-94q-213 0 -213 217v819q0 102 50 146.5t163 44.5h94v379zM602 1069h-37v-897h37q30 0 41.5 16t11.5 52v768q0 35 -11 48t-42 13zM346 1069h-37
q-31 0 -42 -13t-11 -48v-768q0 -36 11.5 -52t41.5 -16h37v897z" />
    <glyph glyph-name="psi" unicode="&#x3c8;" horiz-adv-x="980" 
d="M68 217v840h-54v170h271v-987q0 -36 11.5 -52t41.5 -16h39v1055h215v-1055h41q29 0 40 16t11 52v987h270v-170h-53v-840q0 -217 -213 -217h-96v-315h-215v315h-96q-213 0 -213 217z" />
    <glyph glyph-name="omega" unicode="&#x3c9;" horiz-adv-x="946" 
d="M907 1227v-951q0 -166 -51 -229t-170 -63q-90 0 -129.5 27.5t-62.5 84.5h-9q-26 -57 -69 -84.5t-131 -27.5q-115 0 -166 63.5t-51 228.5v781h-56v170h271v-930q0 -89 11.5 -114t43.5 -25q29 0 38 20t9 94v955h205v-955q0 -73 10 -93.5t39 -20.5q31 0 41 24.5t10 114.5
v930h217z" />
    <glyph glyph-name="iotadieresis" unicode="&#x3ca;" horiz-adv-x="479" 
d="M66 1227h270v-987q0 -52 8 -67t35 -15q34 0 59 14v-164q-60 -24 -137 -24q-104 0 -143 42.5t-39 155.5v875h-53v170zM289 1391v217h186v-217h-186zM0 1391v217h182v-217h-182z" />
    <glyph glyph-name="upsilondieresis" unicode="&#x3cb;" horiz-adv-x="653" 
d="M614 1227v-951q0 -120 -26.5 -182.5t-82.5 -86t-163 -23.5t-163.5 23.5t-83.5 86t-27 182.5v781h-56v170h271v-930q0 -89 12 -114t47 -25q34 0 44.5 24.5t10.5 114.5v930h217zM377 1391v217h186v-217h-186zM88 1391v217h182v-217h-182z" />
    <glyph glyph-name="omicrontonos" unicode="&#x3cc;" horiz-adv-x="622" 
d="M311 1073q-34 0 -45.5 -25.5t-11.5 -115.5v-635q0 -90 11.5 -114.5t45.5 -24.5q24 0 35 8.5t17 38.5t6 92v635q0 90 -12 115.5t-46 25.5zM311 -16q-107 0 -163 23.5t-82.5 86t-26.5 182.5v674q0 91 13 147t46.5 89.5t83 46t129.5 12.5q107 0 164 -24.5t84 -87.5t27 -183
v-674q0 -119 -27 -182t-84 -86.5t-164 -23.5zM236 1804h186l-55 -458h-131v458z" />
    <glyph glyph-name="upsilontonos" unicode="&#x3cd;" horiz-adv-x="653" 
d="M268 1804h187l-56 -458h-131v458zM614 1227v-951q0 -120 -26.5 -182.5t-82.5 -86t-163 -23.5t-163.5 23.5t-83.5 86t-27 182.5v781h-56v170h271v-930q0 -89 12 -114t47 -25q34 0 44.5 24.5t10.5 114.5v930h217z" />
    <glyph glyph-name="omegatonos" unicode="&#x3ce;" horiz-adv-x="946" 
d="M907 1227v-951q0 -166 -51 -229t-170 -63q-90 0 -129.5 27.5t-62.5 84.5h-9q-26 -57 -69 -84.5t-131 -27.5q-115 0 -166 63.5t-51 228.5v781h-56v170h271v-930q0 -89 11.5 -114t43.5 -25q29 0 38 20t9 94v955h205v-955q0 -73 10 -93.5t39 -20.5q31 0 41 24.5t10 114.5
v930h217zM414 1804h186l-55 -458h-131v458z" />
    <glyph glyph-name="uni0402" unicode="&#x402;" horiz-adv-x="905" 
d="M866 858v-856q0 -105 -12 -167t-47 -101t-90 -52.5t-148 -13.5q-183 0 -295 43v176q112 -39 222 -39q80 0 106.5 22.5t26.5 94.5v873q0 51 -12.5 70.5t-43.5 19.5q-50 0 -69 -45v-703h51v-180h-354v180h63v1422h-71v-371h-177v549h807v-549h-200v371h-119v-566
q47 68 170 68q45 0 77.5 -10.5t59.5 -36t41 -75.5t14 -124z" />
    <glyph glyph-name="uni0403" unicode="&#x403;" horiz-adv-x="671" 
d="M25 1780h618v-549h-201v371h-118v-1422h73v-180h-372v180h59v1422h-59v178zM518 2118l-145 -275h-129l82 275h192z" />
    <glyph glyph-name="uni0404" unicode="&#x404;" horiz-adv-x="622" 
d="M233 1796q115 0 164 -82v66h197v-549h-199v250q-2 66 -9 99t-18 42.5t-32 9.5q-25 0 -36.5 -10.5t-17.5 -47t-6 -112.5v-430h230v-180h-230v-526q0 -79 6 -117.5t18 -51t36 -12.5t35.5 12.5t17.5 51t6 117.5v311h199v-299q0 -146 -26 -221t-83.5 -104t-169.5 -29
q-110 0 -167 29t-83 104.5t-26 220.5v1165q0 165 47 229t147 64z" />
    <glyph glyph-name="uni0409" unicode="&#x409;" horiz-adv-x="1069" 
d="M125 1602v178h604v-178h-51v-549h121q125 0 180 -56t55 -186v-571q0 -127 -55 -183.5t-180 -56.5h-420v180h59v1422h-41l-100 -1422h39v-180h-324v180h62l114 1422h-63zM743 872h-65v-692h65q32 0 45 18t13 62v535q0 45 -12.5 61t-45.5 16z" />
    <glyph glyph-name="uni040A" unicode="&#x40a;" horiz-adv-x="1077" 
d="M418 1780h321v-178h-53v-549h123q124 0 178.5 -56t54.5 -186v-571q0 -127 -55 -183.5t-178 -56.5h-391v180h28v672h-122v-672h28v-180h-327v180h59v1422h-59v178h327v-178h-28v-570h122v570h-28v178zM752 872h-66v-692h66q33 0 45 17.5t12 62.5v535q0 46 -11.5 61.5
t-45.5 15.5z" />
    <glyph glyph-name="uni040B" unicode="&#x40b;" horiz-adv-x="931" 
d="M629 180v658q0 51 -12.5 70.5t-43.5 19.5q-50 0 -69 -45v-703h28v-180h-331v180h63v1422h-71v-371h-177v549h807v-549h-200v371h-119v-558q45 60 170 60q45 0 77.5 -10.5t59.5 -36t41 -75.5t14 -124v-678h54v-180h-322v180h31z" />
    <glyph glyph-name="uni040C" unicode="&#x40c;" horiz-adv-x="782" 
d="M324 180h41v-180h-340v180h59v1422h-59v178h340v-178h-41v-576l155 576h-47v178h320v-178h-68l-168 -596l203 -826h53v-180h-338v180h49l-159 656v-656zM578 2118l-146 -275h-129l82 275h193z" />
    <glyph glyph-name="uni040D" unicode="&#x40d;" horiz-adv-x="772" 
d="M283 0h-258v180h57v1422h-57v178h329v-178h-51v-787h8l172 965h265v-178h-62v-1422h62v-180h-338v180h57v846h-8zM346 1843l-145 275h192l84 -275h-131z" />
    <glyph glyph-name="uni040E" unicode="&#x40e;" horiz-adv-x="763" 
d="M414 1780h336v-178h-78l-221 -1315q-26 -156 -101.5 -221.5t-228.5 -65.5h-60v180h35q64 0 92 24t37 81l45 252l-209 1065h-49v178h334v-178h-49l82 -564h8l78 564h-51v178zM377 1847q-134 0 -182 48t-48 173v33h91v-26q0 -53 27.5 -74t111.5 -21t110.5 21t26.5 74v26h92
v-33q0 -125 -48 -173t-181 -48z" />
    <glyph glyph-name="uni040F" unicode="&#x40f;" horiz-adv-x="772" 
d="M25 180h59v1422h-59v178h327v-178h-28v-1422h122v1422h-28v178h330v-178h-62v-1422h62v-180h-285v-217h-160v217h-278v180z" />
    <glyph glyph-name="uni0411" unicode="&#x411;" horiz-adv-x="714" 
d="M25 1780h618v-549h-201v371h-118v-549h120q125 0 180.5 -56t55.5 -186v-571q0 -127 -55.5 -183.5t-180.5 -56.5h-419v180h59v1422h-59v178zM389 872h-65v-692h65q32 0 44.5 17.5t12.5 62.5v535q0 45 -12 61t-45 16z" />
    <glyph glyph-name="uni0414" unicode="&#x414;" horiz-adv-x="800" 
d="M12 180h86l115 1422h-61v178h497v-178h-63l114 -1422h88v-397h-159v217h-457v-217h-160v397zM322 180h149l-70 1256h-10z" />
    <glyph glyph-name="uni0416" unicode="&#x416;" horiz-adv-x="1075" 
d="M1042 1602h-67l-144 -619l181 -803h53v-180h-322v180h50l-144 654v-654h41v-180h-305v180h41v654l-143 -654h49v-180h-320v180h51l181 803l-144 619h-67v178h299v-178h-47l141 -576v576h-43v178h307v-178h-41v-576l142 576h-48v178h299v-178z" />
    <glyph glyph-name="uni0417" unicode="&#x417;" horiz-adv-x="620" 
d="M223 1780v-66q45 82 168 82q98 0 142.5 -63.5t44.5 -229.5v-354q0 -165 -84 -201v-10q90 -38 90 -201v-399q0 -143 -30.5 -220t-91.5 -105.5t-173 -28.5q-83 0 -131 14t-78.5 56t-40.5 107t-10 177v299h198v-295q0 -79 6 -117.5t18 -50.5t36 -12t35.5 12t17.5 50.5
t6 117.5v436q0 42 -11.5 59t-39.5 17h-154v180h154q28 0 38.5 15.5t10.5 58.5v338q0 76 -6 112t-17 47t-34 11q-33 0 -46.5 -28t-13.5 -124v-233h-198v549h194z" />
    <glyph glyph-name="uni0418" unicode="&#x418;" horiz-adv-x="772" 
d="M283 0h-258v180h57v1422h-57v178h329v-178h-51v-787h8l172 965h265v-178h-62v-1422h62v-180h-338v180h57v846h-8z" />
    <glyph glyph-name="uni0419" unicode="&#x419;" horiz-adv-x="772" 
d="M283 0h-258v180h57v1422h-57v178h329v-178h-51v-787h8l172 965h265v-178h-62v-1422h62v-180h-338v180h57v846h-8zM385 1847q-134 0 -181.5 48t-47.5 173v33h90v-26q0 -53 27.5 -74t111.5 -21t110.5 21t26.5 74v26h92v-33q0 -125 -48 -173t-181 -48z" />
    <glyph glyph-name="uni0423" unicode="&#x423;" horiz-adv-x="763" 
d="M414 1780h336v-178h-78l-221 -1315q-26 -156 -101.5 -221.5t-228.5 -65.5h-60v180h35q64 0 92 24t37 81l45 252l-209 1065h-49v178h334v-178h-49l82 -564h8l78 564h-51v178z" />
    <glyph glyph-name="uni0426" unicode="&#x426;" horiz-adv-x="784" 
d="M25 180h59v1422h-59v178h327v-178h-28v-1422h122v1422h-28v178h330v-178h-62v-1422h88v-397h-160v217h-589v180z" />
    <glyph glyph-name="uni0427" unicode="&#x427;" horiz-adv-x="751" 
d="M303 1602v-562q0 -50 13 -69t42 -19q41 0 68 27v623h-29v178h332v-178h-63v-1422h63v-180h-367v180h64v654q-21 -27 -65.5 -43.5t-104.5 -16.5q-90 0 -140 52t-50 192v584h-56v178h324v-178h-31z" />
    <glyph glyph-name="uni0428" unicode="&#x428;" horiz-adv-x="1112" 
d="M25 1780h329v-178h-28v-1422h110v1422h-30v178h299v-178h-29v-1422h110v1422h-28v178h329v-178h-63v-1422h63v-180h-1062v180h61v1422h-61v178z" />
    <glyph glyph-name="uni0429" unicode="&#x429;" horiz-adv-x="1124" 
d="M25 1780h329v-178h-28v-1422h110v1422h-30v178h299v-178h-29v-1422h110v1422h-28v178h329v-178h-63v-1422h88v-397h-158v217h-929v180h61v1422h-61v178z" />
    <glyph glyph-name="uni042A" unicode="&#x42a;" horiz-adv-x="897" 
d="M10 1231v549h547v-178h-51v-549h121q125 0 180 -56t55 -186v-571q0 -127 -55 -183.5t-180 -56.5h-420v180h59v1422h-80v-371h-176zM571 872h-65v-692h65q32 0 45 18t13 62v535q0 45 -12.5 61t-45.5 16z" />
    <glyph glyph-name="uni042B" unicode="&#x42b;" horiz-adv-x="1087" 
d="M1001 180h64v-180h-363v180h60v1422h-60v178h363v-178h-64v-1422zM389 872h-65v-692h65q32 0 44.5 17.5t12.5 62.5v535q0 45 -12 61t-45 16zM25 1780h350v-178h-51v-549h120q125 0 180.5 -56t55.5 -186v-571q0 -127 -55.5 -183.5t-180.5 -56.5h-419v180h59v1422h-59v178z
" />
    <glyph glyph-name="uni042C" unicode="&#x42c;" horiz-adv-x="714" 
d="M389 872h-65v-692h65q32 0 44.5 17.5t12.5 62.5v535q0 45 -12 61t-45 16zM25 1780h350v-178h-51v-549h120q125 0 180.5 -56t55.5 -186v-571q0 -127 -55.5 -183.5t-180.5 -56.5h-419v180h59v1422h-59v178z" />
    <glyph glyph-name="uni042D" unicode="&#x42d;" horiz-adv-x="622" 
d="M389 1796q100 0 147.5 -64t47.5 -229v-1165q0 -109 -13 -176.5t-47 -108t-84.5 -55t-132.5 -14.5q-112 0 -169.5 29t-83 104t-25.5 221v299h198v-311q0 -79 6 -117.5t18 -51t36 -12.5q23 0 35 12t18 51.5t6 117.5v526h-242v180h242v430q0 75 -6.5 112t-17.5 47.5
t-35 10.5q-33 0 -46.5 -28.5t-13.5 -122.5v-250h-198v549h194v-66q51 82 166 82z" />
    <glyph glyph-name="uni042E" unicode="&#x42e;" horiz-adv-x="1052" 
d="M324 180h53v-180h-352v180h59v1422h-59v178h352v-178h-53v-570h88v408q0 145 28 221t90 105.5t181 29.5t181.5 -29.5t91 -105.5t28.5 -221v-1104q0 -145 -28.5 -220.5t-91 -104.5t-181.5 -29t-181 29t-90 104.5t-28 220.5v516h-88v-672zM649 1436v-1096q0 -78 6.5 -117
t19 -51t36.5 -12q37 0 49 32.5t12 147.5v1096q0 80 -6 118.5t-18 50t-37 11.5t-37 -11.5t-18.5 -50.5t-6.5 -118z" />
    <glyph glyph-name="uni042F" unicode="&#x42f;" horiz-adv-x="763" 
d="M313 1780h426v-178h-59v-1422h59v-180h-344v180h45v625h-59l-96 -625h43v-180h-316v180h43l117 662q-51 30 -72.5 90.5t-21.5 161.5v446q0 127 55 183.5t180 56.5zM381 979h59v623h-67q-32 0 -45 -18t-13 -62v-457q0 -50 14 -68t52 -18z" />
    <glyph glyph-name="uni0431" unicode="&#x431;" horiz-adv-x="624" 
d="M309 1780h99q36 0 36 32v66h144v-127q0 -81 -32 -112t-112 -31h-108q-50 0 -68 -24t-18 -83v-330q48 74 162 74q86 0 130 -51t44 -188v-730q0 -119 -27 -182t-84 -86.5t-164 -23.5t-163 23.5t-82.5 86t-26.5 182.5v1240q0 149 59.5 206.5t210.5 57.5zM317 1073
q-46 0 -63 -43v-733q0 -90 11.5 -114.5t45.5 -24.5t45 24.5t11 114.5v690q0 48 -10.5 67t-39.5 19z" />
    <glyph glyph-name="uni0432" unicode="&#x432;" horiz-adv-x="649" 
d="M293 727h65q25 0 34 10t9 39v225q0 31 -10 43.5t-39 12.5h-59v-330zM84 172v885h-59v170h372q113 0 163 -38.5t50 -125.5v-270q0 -60 -18.5 -92t-56.5 -46v-8q79 -26 79 -139v-342q0 -89 -51 -127.5t-164 -38.5h-374v172h59zM358 575h-65v-403h59q29 0 39 10.5t10 40.5
v303q0 28 -9 38.5t-34 10.5z" />
    <glyph glyph-name="uni0433" unicode="&#x433;" horiz-adv-x="581" 
d="M25 1057v170h540v-408h-157v238h-107v-885h53v-172h-329v172h59v885h-59z" />
    <glyph glyph-name="uni0434" unicode="&#x434;" horiz-adv-x="757" 
d="M10 172h90l101 885h-58v170h475v-170h-59l103 -885h83v-389h-159v217h-416v-217h-160v389zM299 172h143l-67 809h-10z" />
    <glyph glyph-name="uni0436" unicode="&#x436;" horiz-adv-x="974" 
d="M94 1057h-65v170h299v-170h-54l107 -342v512h211v-512l106 342h-53v170h297v-170h-63l-115 -379l147 -506h52v-172h-291v172h30l-110 391v-391h33v-172h-277v172h33v391l-111 -391h31v-172h-291v172h51l148 506z" />
    <glyph glyph-name="uni0437" unicode="&#x437;" horiz-adv-x="567" 
d="M207 1227v-70q46 88 155 88q78 0 121 -51.5t43 -155.5v-241q0 -113 -88 -142v-8q92 -31 92 -145v-273q0 -137 -57 -191t-203 -54q-144 0 -192.5 58.5t-48.5 229.5v183h176v-162q0 -85 12.5 -110t44.5 -25q34 0 47 23.5t13 105.5v229q0 30 -12 43.5t-46 13.5h-160v162h160
q33 0 45.5 11.5t12.5 41.5v177q0 66 -13 87t-45 21q-33 0 -46 -23t-13 -92v-98h-176v367h178z" />
    <glyph glyph-name="uni0438" unicode="&#x438;" horiz-adv-x="712" 
d="M688 1227v-170h-57v-885h57v-172h-315v172h53v504h-8l-154 -676h-239v172h57v885h-57v170h315v-170h-55v-471h8l160 641h235z" />
    <glyph glyph-name="uni0439" unicode="&#x439;" horiz-adv-x="712" 
d="M354 1341q-133 0 -181 56.5t-48 204.5v57h90v-53q0 -59 29 -88t110 -29q82 0 110 28.5t28 88.5v53h94v-57q0 -148 -48.5 -204.5t-183.5 -56.5zM688 1227v-170h-57v-885h57v-172h-315v172h53v504h-8l-154 -676h-239v172h57v885h-57v170h315v-170h-55v-471h8l160 641h235z
" />
    <glyph glyph-name="uni043B" unicode="&#x43b;" horiz-adv-x="710" 
d="M377 172h39l-68 809h-10l-66 -809h43v-172h-303v172h62l102 885h-59v170h475v-170h-60l103 -885h61v-172h-319v172z" />
    <glyph glyph-name="uni043C" unicode="&#x43c;" horiz-adv-x="948" 
d="M270 172h49v-172h-294v172h57v885h-57v170h337l105 -609h8l107 609h342v-170h-60v-885h60v-172h-308v172h50v565h-9l-129 -737h-120l-129 737h-9v-565z" />
    <glyph glyph-name="uni043D" unicode="&#x43d;" horiz-adv-x="712" 
d="M688 1227v-170h-57v-885h57v-172h-301v172h27v401h-115v-401h29v-172h-303v172h57v885h-57v170h303v-170h-29v-314h115v314h-27v170h301z" />
    <glyph glyph-name="uni043F" unicode="&#x43f;" horiz-adv-x="712" 
d="M688 1227v-170h-57v-885h57v-172h-301v172h27v885h-115v-885h29v-172h-303v172h57v885h-57v170h663z" />
    <glyph glyph-name="uni0442" unicode="&#x442;" horiz-adv-x="702" 
d="M166 1057v-236h-150v406h668v-406h-149v236h-80v-885h59v-172h-330v172h62v885h-80z" />
    <glyph glyph-name="uni0446" unicode="&#x446;" horiz-adv-x="727" 
d="M688 1227v-170h-57v-885h84v-389h-160v217h-530v172h57v885h-57v170h303v-170h-29v-885h115v885h-27v170h301z" />
    <glyph glyph-name="uni0447" unicode="&#x447;" horiz-adv-x="696" 
d="M371 1227h301v-170h-58v-885h58v-172h-334v172h59v354q-50 -47 -159 -47q-81 0 -126.5 39.5t-45.5 147.5v391h-54v170h297v-170h-26v-342q0 -38 11.5 -53t37.5 -15q37 0 65 21v389h-26v170z" />
    <glyph glyph-name="uni0448" unicode="&#x448;" horiz-adv-x="993" 
d="M629 1227v-170h-29v-885h100v885h-26v170h295v-170h-58v-885h58v-172h-944v172h57v885h-57v170h294v-170h-26v-885h100v885h-26v170h262z" />
    <glyph glyph-name="uni0449" unicode="&#x449;" horiz-adv-x="1005" 
d="M629 1227v-170h-29v-885h100v885h-26v170h295v-170h-58v-885h82v-389h-157v217h-811v172h57v885h-57v170h294v-170h-26v-885h100v885h-26v170h262z" />
    <glyph glyph-name="uni044A" unicode="&#x44a;" horiz-adv-x="841" 
d="M12 1227h523v-170h-58v-307h119q113 0 163 -45t50 -146v-344q0 -215 -213 -215h-395v172h59v885h-92v-226h-156v396zM539 590h-62v-418h62q30 0 41.5 15.5t11.5 50.5v292q0 34 -11 47t-42 13z" />
    <glyph glyph-name="uni044B" unicode="&#x44b;" horiz-adv-x="1013" 
d="M653 1227h338v-170h-59v-885h59v-172h-329v172h53v885h-62v170zM362 590h-61v-418h61q30 0 42 15.5t12 50.5v292q0 34 -11.5 47t-42.5 13zM25 1227h333v-170h-57v-307h119q113 0 163 -45t50 -146v-344q0 -215 -213 -215h-395v172h59v885h-59v170z" />
    <glyph glyph-name="uni044C" unicode="&#x44c;" horiz-adv-x="667" 
d="M362 590h-61v-418h61q30 0 42 15.5t12 50.5v292q0 34 -11.5 47t-42.5 13zM25 1227h333v-170h-57v-307h119q113 0 163 -45t50 -146v-344q0 -215 -213 -215h-395v172h59v885h-59v170z" />
    <glyph glyph-name="uni044D" unicode="&#x44d;" horiz-adv-x="569" 
d="M104 573v162h218v215q0 73 -13.5 98t-46.5 25q-32 0 -44.5 -23t-12.5 -89v-101h-176v367h178v-70q42 88 153 88q83 0 126.5 -63t43.5 -221v-685q0 -120 -25 -183t-76 -86t-148 -23q-98 0 -150 24t-77 86.5t-25 179.5v181h176v-160q0 -87 12.5 -112t44.5 -25q34 0 47 25.5
t13 113.5v276h-218z" />
    <glyph glyph-name="uni044E" unicode="&#x44e;" horiz-adv-x="964" 
d="M653 -27q-80 0 -129.5 12t-83 45.5t-46.5 89t-13 146.5v307h-80v-401h47v-172h-323v172h59v885h-59v170h323v-170h-47v-314h80v197q0 91 13 147t46.5 89.5t83 46t129.5 12.5q107 0 164 -24.5t84 -87.5t27 -183v-674q0 -120 -27 -182.5t-84 -86.5t-164 -24zM653 1063
q-34 0 -45.5 -25.5t-11.5 -115.5v-635q0 -90 11.5 -115t45.5 -25t46 25t12 115v635q0 90 -12 115.5t-46 25.5z" />
    <glyph glyph-name="uni044F" unicode="&#x44f;" horiz-adv-x="673" 
d="M651 1227v-170h-61v-885h61v-172h-307v172h29v328h-72l-49 -328h35v-172h-275v172h39l68 352q-76 39 -76 166v320q0 217 211 217h397zM311 657h62v400h-62q-30 0 -41.5 -16t-11.5 -54v-266q0 -37 11 -50.5t42 -13.5z" />
    <glyph glyph-name="uni0452" unicode="&#x452;" horiz-adv-x="669" 
d="M4 1409v166h80v31h-59v174h276v-205h178v-166h-178v-235q43 71 160 71q85 0 128.5 -51t43.5 -188v-1121q0 -122 -45 -169.5t-164 -47.5q-78 0 -158 31v170q40 -21 86 -21q38 0 51 20t13 81v1036q0 50 -11 69t-40 19q-47 0 -64 -43v-858h45v-172h-321v172h59v1237h-80z
" />
    <glyph glyph-name="uni0453" unicode="&#x453;" horiz-adv-x="581" 
d="M309 1679h193l-172 -342h-127zM25 1057v170h540v-408h-157v238h-107v-885h53v-172h-329v172h59v885h-59z" />
    <glyph glyph-name="uni0454" unicode="&#x454;" horiz-adv-x="569" 
d="M467 735v-162h-219v-276q0 -61 7 -91.5t18 -39t34 -8.5t34 8.5t17.5 38.5t6.5 90v160h178v-181q0 -117 -25 -179.5t-77.5 -86.5t-151.5 -24q-73 0 -117.5 12t-76 44.5t-44 88.5t-12.5 147v685q0 158 43.5 221t126.5 63q111 0 153 -88v70h181v-367h-178v101q0 65 -13 88.5
t-45 23.5t-45.5 -25t-13.5 -98v-215h219z" />
    <glyph glyph-name="uni0459" unicode="&#x459;" horiz-adv-x="999" 
d="M117 1227h575v-170h-57v-307h119q113 0 163 -45t50 -146v-344q0 -215 -213 -215h-396v172h60v885h-53l-93 -885h43v-172h-303v172h62l104 885h-61v170zM696 590h-61v-418h61q30 0 42 15.5t12 50.5v292q0 34 -11.5 47t-42.5 13z" />
    <glyph glyph-name="uni045A" unicode="&#x45a;" horiz-adv-x="997" 
d="M381 1227h307v-170h-57v-307h119q113 0 163 -45t50 -146v-344q0 -215 -213 -215h-369v172h33v401h-115v-401h29v-172h-303v172h57v885h-57v170h303v-170h-29v-314h115v314h-33v170zM692 590h-61v-418h61q30 0 41.5 15.5t11.5 50.5v292q0 34 -11.5 47t-41.5 13z" />
    <glyph glyph-name="uni045C" unicode="&#x45c;" horiz-adv-x="716" 
d="M369 1679h192l-172 -342h-127zM686 1057h-78l-127 -363l160 -522h64v-172h-312v172h31l-123 397v-397h33v-172h-309v172h59v885h-59v170h276v-518l119 348h-53v170h319v-170z" />
    <glyph glyph-name="uni045D" unicode="&#x45d;" horiz-adv-x="712" 
d="M354 1681l109 -344h-129l-172 344h192zM688 1227v-170h-57v-885h57v-172h-315v172h53v504h-8l-154 -676h-239v172h57v885h-57v170h315v-170h-55v-471h8l160 641h235z" />
    <glyph glyph-name="uni045E" unicode="&#x45e;" horiz-adv-x="710" 
d="M12 1227h322v-170h-58l78 -533h8l87 533h-54v170h301v-170h-61l-195 -1125q-29 -147 -82.5 -205.5t-154.5 -58.5q-56 0 -146 29v170q42 -19 99 -19q45 0 69 26t37 103l14 84l-204 996h-60v170zM358 1341q-133 0 -181 56.5t-48 204.5v57h90v-53q0 -59 29 -88t110 -29
q82 0 110 28.5t28 88.5v53h94v-57q0 -148 -48.5 -204.5t-183.5 -56.5z" />
    <glyph glyph-name="uni045F" unicode="&#x45f;" horiz-adv-x="712" 
d="M688 1227v-170h-57v-885h57v-172h-254v-217h-160v217h-249v172h57v885h-57v170h303v-170h-29v-885h115v885h-27v170h301z" />
    <glyph glyph-name="uni0490" unicode="&#x490;" horiz-adv-x="671" 
d="M442 1999h201v-397h-319v-1422h73v-180h-372v180h59v1422h-59v178h417v219z" />
    <glyph glyph-name="uni0491" unicode="&#x491;" horiz-adv-x="581" 
d="M408 1427h157v-370h-264v-885h53v-172h-329v172h59v885h-59v170h383v200z" />
    <glyph glyph-name="uni0492" unicode="&#x492;" horiz-adv-x="671" 
d="M25 1780h618v-549h-201v371h-118v-576h161v-166h-161v-680h73v-180h-372v180h59v680h-74v166h74v576h-59v178z" />
    <glyph glyph-name="uni0493" unicode="&#x493;" horiz-adv-x="581" 
d="M25 1057v170h540v-408h-157v238h-107v-383h180v-166h-180v-336h53v-172h-329v172h59v336h-78v166h78v383h-59z" />
    <glyph glyph-name="uni0496" unicode="&#x496;" horiz-adv-x="1101" 
d="M1042 1602h-67l-144 -619l181 -803h78v-397h-160v217h-187v180h50l-144 654v-654h41v-180h-305v180h41v654l-143 -654h49v-180h-320v180h51l181 803l-144 619h-67v178h299v-178h-47l141 -576v576h-43v178h307v-178h-41v-576l142 576h-48v178h299v-178z" />
    <glyph glyph-name="uni0497" unicode="&#x497;" horiz-adv-x="1001" 
d="M942 1057h-63l-115 -379l147 -506h76v-389h-160v217h-155v172h30l-110 391v-391h33v-172h-277v172h33v391l-111 -391h31v-172h-291v172h51l148 506l-115 379h-65v170h299v-170h-54l107 -342v512h211v-512l106 342h-53v170h297v-170z" />
    <glyph glyph-name="uni0498" unicode="&#x498;" horiz-adv-x="620" 
d="M223 1780v-66q45 82 168 82q98 0 142.5 -63.5t44.5 -229.5v-354q0 -165 -84 -201v-10q90 -38 90 -201v-399q0 -170 -41.5 -247.5t-139.5 -96.5v-74q0 -142 -41 -200t-147 -58q-37 0 -67.5 7t-42 12.5t-33.5 17.5v162q66 -27 121 -27q51 0 67 18.5t16 67.5v64
q-79 2 -125 17t-74.5 57t-38 106t-9.5 174v299h198v-295q0 -79 6 -117.5t18 -50.5t36 -12t35.5 12t17.5 50.5t6 117.5v436q0 42 -11.5 59t-39.5 17h-154v180h154q28 0 38.5 15.5t10.5 58.5v338q0 76 -6 112t-17 47t-34 11q-33 0 -46.5 -28t-13.5 -124v-233h-198v549h194z
" />
    <glyph glyph-name="uni0499" unicode="&#x499;" horiz-adv-x="567" 
d="M207 1227v-70q46 88 155 88q78 0 121 -51.5t43 -155.5v-241q0 -113 -88 -142v-8q92 -31 92 -145v-273q0 -108 -34 -163t-115 -72v-74q0 -142 -40 -200t-146 -58q-38 0 -69 7t-43 12.5t-34 17.5v162q69 -27 123 -27q49 0 65.5 18.5t16.5 67.5v64q-133 3 -179 62.5
t-46 225.5v183h176v-162q0 -85 12.5 -110t44.5 -25q34 0 47 23.5t13 105.5v229q0 30 -12 43.5t-46 13.5h-160v162h160q33 0 45.5 11.5t12.5 41.5v177q0 66 -13 87t-45 21q-33 0 -46 -23t-13 -92v-98h-176v367h178z" />
    <glyph glyph-name="uni049A" unicode="&#x49a;" horiz-adv-x="808" 
d="M752 1602h-68l-168 -596l203 -826h78v-397h-160v217h-203v180h49l-159 656v-656h41v-180h-340v180h59v1422h-59v178h340v-178h-41v-576l155 576h-47v178h320v-178z" />
    <glyph glyph-name="uni049B" unicode="&#x49b;" horiz-adv-x="741" 
d="M686 1057h-78l-127 -363l160 -522h90v-389h-160v217h-178v172h31l-123 397v-397h33v-172h-309v172h59v885h-59v170h276v-518l119 348h-53v170h319v-170z" />
    <glyph glyph-name="uni04A0" unicode="&#x4a0;" horiz-adv-x="960" 
d="M500 180h41v-180h-340v180h59v1422h-76v-371h-176v549h533v-178h-41v-576l155 576h-47v178h320v-178h-68l-168 -596l203 -826h53v-180h-338v180h49l-159 656v-656z" />
    <glyph glyph-name="uni04A1" unicode="&#x4a1;" horiz-adv-x="890" 
d="M862 1057h-78l-127 -363l160 -522h64v-172h-312v172h31l-123 397v-397h33v-172h-309v172h59v885h-92v-226h-156v396h465v-518l119 348h-53v170h319v-170z" />
    <glyph glyph-name="uni04A2" unicode="&#x4a2;" horiz-adv-x="784" 
d="M324 180h28v-180h-327v180h59v1422h-59v178h327v-178h-28v-570h122v570h-28v178h330v-178h-62v-1422h88v-397h-160v217h-196v180h28v672h-122v-672z" />
    <glyph glyph-name="uni04A3" unicode="&#x4a3;" horiz-adv-x="729" 
d="M688 1227v-170h-57v-885h84v-389h-160v217h-168v172h27v401h-115v-401h29v-172h-303v172h57v885h-57v170h303v-170h-29v-314h115v314h-27v170h301z" />
    <glyph glyph-name="uni04AA" unicode="&#x4aa;" horiz-adv-x="622" 
d="M233 1796q115 0 164 -82v66h197v-549h-199v250q-2 66 -9 99t-18 42.5t-32 9.5q-25 0 -36.5 -10.5t-17.5 -47t-6 -112.5v-1136q0 -79 6 -117.5t18 -51t36 -12.5t35.5 12.5t17.5 51t6 117.5v311h199v-299q0 -175 -37 -251t-133 -95v-72q0 -142 -41 -200t-147 -58
q-37 0 -68.5 7t-42 12t-35.5 18v162q69 -27 123 -27q49 0 65.5 18.5t16.5 67.5v64q-101 2 -154.5 32.5t-77.5 105.5t-24 216v1165q0 165 47 229t147 64z" />
    <glyph glyph-name="uni04AB" unicode="&#x4ab;" horiz-adv-x="569" 
d="M211 1245q111 0 151 -88v70h181v-408h-178v123q0 80 -11.5 105.5t-44.5 25.5q-32 0 -43.5 -26.5t-11.5 -112.5v-637q0 -89 11 -114t44 -25t44.5 25t11.5 114v176h178v-197q0 -148 -38 -211t-132 -75v-70q0 -141 -41.5 -199.5t-147.5 -58.5q-38 0 -69 7t-42.5 12.5
t-33.5 17.5v162q69 -27 123 -27q49 0 65.5 18.5t16.5 67.5v66q-78 5 -121 31.5t-63.5 87.5t-20.5 171v685q0 82 12 138.5t35.5 87.5t53.5 44.5t71 13.5z" />
    <glyph glyph-name="uni04AF" unicode="&#x4af;" horiz-adv-x="710" 
d="M248 0l-174 1057h-62v170h320v-170h-41l69 -629h9l65 629h-43v170h305v-170h-63l-170 -1057v-143h57v-172h-334v172h62v143z" />
    <glyph glyph-name="uni04B0" unicode="&#x4b0;" 
d="M350 1602h-47l74 -498h10l76 498h-47v178h319v-178h-59l-176 -832h198v-170h-202v-420h73v-180h-381v180h74v420h-211v170h209l-186 832h-62v178h338v-178z" />
    <glyph glyph-name="uni04B1" unicode="&#x4b1;" horiz-adv-x="710" 
d="M248 0h-225v172h196l-145 885h-62v170h320v-170h-41l69 -629h9l65 629h-43v170h305v-170h-63l-144 -885h191v-172h-217v-143h57v-172h-334v172h62v143z" />
    <glyph glyph-name="uni04B2" unicode="&#x4b2;" horiz-adv-x="815" 
d="M803 -217h-160v217h-240v180h60l-94 389l-93 -389h60v-180h-311v180h59l197 729l-207 693h-49v178h335v-178h-49l84 -351l84 351h-53v178h324v-178h-78l-189 -701l217 -721h103v-397z" />
    <glyph glyph-name="uni04B3" unicode="&#x4b3;" horiz-adv-x="733" 
d="M721 -217h-158v217h-196v172h36l-65 219l-66 -219h35v-172h-282v172h77l160 457l-166 428h-71v170h323v-170h-37l64 -209l69 209h-36v170h290v-170h-90l-155 -439l174 -446h94v-389z" />
    <glyph glyph-name="uni04B6" unicode="&#x4b6;" horiz-adv-x="765" 
d="M303 1602v-562q0 -50 13 -69t42 -19q41 0 68 27v623h-29v178h332v-178h-63v-1422h88v-397h-160v217h-232v180h64v654q-21 -27 -65.5 -43.5t-104.5 -16.5q-90 0 -140 52t-50 192v584h-56v178h324v-178h-31z" />
    <glyph glyph-name="uni04B7" unicode="&#x4b7;" horiz-adv-x="710" 
d="M371 1227h301v-170h-58v-885h82v-389h-157v217h-201v172h59v354q-50 -47 -159 -47q-81 0 -126.5 39.5t-45.5 147.5v391h-54v170h297v-170h-26v-342q0 -38 11.5 -53t37.5 -15q37 0 65 21v389h-26v170z" />
    <glyph glyph-name="uni04BA" unicode="&#x4ba;" horiz-adv-x="751" 
d="M449 180v608q0 50 -13 70.5t-41 20.5q-40 0 -69 -29v-670h28v-180h-329v180h61v1422h-61v178h366v-178h-65v-605q53 60 170 60q42 0 74.5 -10.5t60 -37t42.5 -77t15 -123.5v-629h53v-180h-321v180h29z" />
    <glyph glyph-name="uni04C3" unicode="&#x4c3;" horiz-adv-x="782" 
d="M752 1602h-68l-168 -596l203 -826h53v-260q0 -142 -41 -200t-147 -58q-38 0 -69 7t-43 12.5t-34 17.5v162q69 -27 123 -27q49 0 65.5 18.5t16.5 67.5v80h-209v180h49l-159 656v-656h41v-180h-340v180h59v1422h-59v178h340v-178h-41v-576l155 576h-47v178h320v-178z" />
    <glyph glyph-name="uni04C4" unicode="&#x4c4;" horiz-adv-x="716" 
d="M686 1057h-78l-127 -363l160 -522h64v-252q0 -142 -40.5 -200t-146.5 -58q-38 0 -69 7t-42.5 12.5t-33.5 17.5v162q69 -27 123 -27q49 0 65.5 18.5t16.5 67.5v80h-185v172h31l-123 397v-397h33v-172h-309v172h59v885h-59v170h276v-518l119 348h-53v170h319v-170z" />
    <glyph glyph-name="uni04C7" unicode="&#x4c7;" horiz-adv-x="772" 
d="M324 180h28v-180h-327v180h59v1422h-59v178h327v-178h-28v-570h122v570h-28v178h330v-178h-62v-1422h62v-260q0 -142 -40.5 -200t-146.5 -58q-38 0 -69 7t-42.5 12.5t-33.5 17.5v162q69 -27 123 -27q49 0 65.5 18.5t16.5 67.5v80h-203v180h28v672h-122v-672z" />
    <glyph glyph-name="uni04C8" unicode="&#x4c8;" horiz-adv-x="712" 
d="M688 1227v-170h-57v-885h57v-252q0 -142 -41 -200t-147 -58q-37 0 -68.5 7t-42 12t-35.5 18v162q69 -27 123 -27q51 0 67.5 18.5t16.5 67.5v80h-174v172h27v401h-115v-401h29v-172h-303v172h57v885h-57v170h303v-170h-29v-314h115v314h-27v170h301z" />
    <glyph glyph-name="uni04E2" unicode="&#x4e2;" horiz-adv-x="772" 
d="M283 0h-258v180h57v1422h-57v178h329v-178h-51v-787h8l172 965h265v-178h-62v-1422h62v-180h-338v180h57v846h-8zM143 1935v156h478v-156h-478z" />
    <glyph glyph-name="uni04E3" unicode="&#x4e3;" horiz-adv-x="712" 
d="M119 1409v166h475v-166h-475zM688 1227v-170h-57v-885h57v-172h-315v172h53v504h-8l-154 -676h-239v172h57v885h-57v170h315v-170h-55v-471h8l160 641h235z" />
    <glyph glyph-name="uni04E9" unicode="&#x4e9;" horiz-adv-x="622" 
d="M311 -16q-107 0 -163 23.5t-82.5 86t-26.5 182.5v674q0 91 13 147t46.5 89.5t83 46t129.5 12.5q107 0 164 -24.5t84 -87.5t27 -183v-674q0 -119 -27 -182t-84 -86.5t-164 -23.5zM311 158q24 0 35 8.5t17 38.5t6 92v256h-115v-256q0 -90 11.5 -114.5t45.5 -24.5zM311 1073
q-34 0 -45.5 -25.5t-11.5 -115.5v-213h115v213q0 90 -12 115.5t-46 25.5z" />
    <glyph glyph-name="uni04EE" unicode="&#x4ee;" horiz-adv-x="763" 
d="M414 1780h336v-178h-78l-221 -1315q-26 -156 -101.5 -221.5t-228.5 -65.5h-60v180h35q64 0 92 24t37 81l45 252l-209 1065h-49v178h334v-178h-49l82 -564h8l78 564h-51v178zM139 1935v156h477v-156h-477z" />
    <glyph glyph-name="uni04EF" unicode="&#x4ef;" horiz-adv-x="710" 
d="M12 1227h322v-170h-58l78 -533h8l87 533h-54v170h301v-170h-61l-195 -1125q-29 -147 -82.5 -205.5t-154.5 -58.5q-56 0 -146 29v170q42 -19 99 -19q45 0 69 26t37 103l14 84l-204 996h-60v170zM111 1409v166h475v-166h-475z" />
    <glyph glyph-name="uni0512" unicode="&#x512;" 
d="M125 1602v178h498v-178h-62l115 -1422h59v-260q0 -142 -40 -200t-146 -58q-38 0 -69 7t-43 12.5t-34 17.5v162q69 -27 123 -27q49 0 65.5 18.5t16.5 67.5v80h-205v180h41l-69 1256h-8l-70 -1256h39v-180h-324v180h62l114 1422h-63z" />
    <glyph glyph-name="uni0513" unicode="&#x513;" horiz-adv-x="708" 
d="M377 172h39l-68 809h-10l-66 -809h43v-172h-303v172h62l102 885h-59v170h475v-170h-60l103 -885h61v-252q0 -142 -41 -200t-147 -58q-37 0 -68.5 7t-42 12t-35.5 18v162q69 -27 123 -27q49 0 65.5 18.5t16.5 67.5v80h-190v172z" />
    <glyph glyph-name="uni058F" unicode="&#x58f;" horiz-adv-x="704" 
d="M178 889v145h168v404q0 79 -6 117.5t-17.5 50.5t-35.5 12t-35.5 -12t-17 -50t-5.5 -118v-207h-200v211q0 145 26 220.5t84 104.5t170 29q82 0 132 -14.5t84 -55t47.5 -108t13.5 -176.5v-408h102v-145h-102v-168h102v-148h-102v-393h53v-180h-354v180h61v393h-168v148h168
v168h-168z" />
    <glyph glyph-name="uni1E0C" unicode="&#x1e0c;" horiz-adv-x="722" 
d="M324 1602v-1422h63q34 0 46.5 21t12.5 82v1214q0 60 -12.5 82.5t-46.5 22.5h-63zM25 1780h395q149 0 207.5 -67.5t58.5 -250.5v-1149q0 -123 -26.5 -191t-82.5 -95t-157 -27h-395v180h59v1422h-59v178zM250 -309v188h192v-188h-192z" />
    <glyph glyph-name="uni1E0D" unicode="&#x1e0d;" horiz-adv-x="651" 
d="M369 197v833q-17 43 -62 43q-31 0 -42 -19t-11 -69v-741q0 -51 11 -68.5t42 -17.5q47 0 62 39zM369 1174v432h-62v174h279v-1608h53v-172h-264v66q-31 -82 -162 -82q-86 0 -130 50.5t-44 186.5v785q0 137 44 188t130 51q116 0 156 -71zM244 -309v188h192v-188h-192z" />
    <glyph glyph-name="uni1E12" unicode="&#x1e12;" horiz-adv-x="722" 
d="M324 1602v-1422h63q34 0 46.5 21t12.5 82v1214q0 60 -12.5 82.5t-46.5 22.5h-63zM25 1780h395q149 0 207.5 -67.5t58.5 -250.5v-1149q0 -123 -26.5 -191t-82.5 -95t-157 -27h-395v180h59v1422h-59v178zM424 -336l-78 156h-8l-76 -156h-121l105 275h194l105 -275h-121z
" />
    <glyph glyph-name="uni1E13" unicode="&#x1e13;" horiz-adv-x="651" 
d="M369 197v833q-17 43 -62 43q-31 0 -42 -19t-11 -69v-741q0 -51 11 -68.5t42 -17.5q47 0 62 39zM369 1174v432h-62v174h279v-1608h53v-172h-264v66q-31 -82 -162 -82q-86 0 -130 50.5t-44 186.5v785q0 137 44 188t130 51q116 0 156 -71zM420 -336l-78 156h-8l-76 -156
h-121l105 275h194l105 -275h-121z" />
    <glyph glyph-name="uni1E24" unicode="&#x1e24;" horiz-adv-x="772" 
d="M324 180h28v-180h-327v180h59v1422h-59v178h327v-178h-28v-570h122v570h-28v178h330v-178h-62v-1422h62v-180h-330v180h28v672h-122v-672zM291 -309v188h192v-188h-192z" />
    <glyph glyph-name="uni1E25" unicode="&#x1e25;" horiz-adv-x="708" 
d="M301 1030v-858h45v-172h-321v172h59v1434h-59v174h276v-606q41 71 158 71q86 0 130 -51t44 -188v-834h53v-172h-270v985q0 50 -11 69t-40 19q-47 0 -64 -43zM256 -309v188h193v-188h-193z" />
    <glyph glyph-name="uni1E3C" unicode="&#x1e3c;" horiz-adv-x="671" 
d="M397 1780v-178h-73v-1422h118v457h201v-637h-618v180h59v1422h-59v178h372zM418 -336l-78 156h-8l-76 -156h-121l105 275h194l105 -275h-121z" />
    <glyph glyph-name="uni1E3D" unicode="&#x1e3d;" horiz-adv-x="366" 
d="M25 1780h276v-1608h53v-172h-329v172h59v1434h-59v174zM264 -336l-78 156h-8l-76 -156h-120l104 275h195l104 -275h-121z" />
    <glyph glyph-name="uni1E44" unicode="&#x1e44;" horiz-adv-x="782" 
d="M535 1602h-60v178h297v-178h-55v-1602h-197l-235 1063h-9v-883h70v-180h-321v180h57v1422h-57v178h321l178 -908h11v730zM295 1907v188h194v-188h-194z" />
    <glyph glyph-name="uni1E45" unicode="&#x1e45;" horiz-adv-x="698" 
d="M25 1227h268v-66q41 84 166 84q86 0 130 -51t44 -188v-834h53v-172h-270v985q0 50 -11 69t-40 19q-47 0 -64 -43v-858h45v-172h-321v172h59v885h-59v170zM254 1391v217h192v-217h-192z" />
    <glyph glyph-name="uni1E4A" unicode="&#x1e4a;" horiz-adv-x="782" 
d="M535 1602h-60v178h297v-178h-55v-1602h-197l-235 1063h-9v-883h70v-180h-321v180h57v1422h-57v178h321l178 -908h11v730zM473 -336l-78 156h-8l-76 -156h-121l105 275h194l105 -275h-121z" />
    <glyph glyph-name="uni1E4B" unicode="&#x1e4b;" horiz-adv-x="698" 
d="M25 1227h268v-66q41 84 166 84q86 0 130 -51t44 -188v-834h53v-172h-270v985q0 50 -11 69t-40 19q-47 0 -64 -43v-858h45v-172h-321v172h59v885h-59v170zM430 -336l-78 156h-8l-76 -156h-121l105 275h194l105 -275h-121z" />
    <glyph glyph-name="uni1E5A" unicode="&#x1e5a;" horiz-adv-x="757" 
d="M25 1780h426q123 0 179 -56.5t56 -183.5v-418q0 -168 -90 -204v-11q84 -37 90 -180l6 -508q0 -39 33 -39h20v-180h-122q-90 0 -129 47.5t-41 151.5l-7 553q0 41 -11 56t-42 15h-69v-643h51v-180h-350v180h59v1422h-59v178zM324 999h73q27 0 38 16t11 58v449
q0 45 -12.5 62.5t-44.5 17.5h-65v-603zM272 -309v188h193v-188h-193z" />
    <glyph glyph-name="uni1E5B" unicode="&#x1e5b;" horiz-adv-x="606" 
d="M25 1227h268v-66q32 84 149 84q71 0 109.5 -42.5t38.5 -155.5v-228h-178v174q0 45 -11 62.5t-36 17.5q-47 0 -64 -43v-858h47v-172h-323v172h59v885h-59v170zM98 -309v188h193v-188h-193z" />
    <glyph glyph-name="uni1E62" unicode="&#x1e62;" horiz-adv-x="630" 
d="M276 1473v-211q0 -47 20 -88t66 -97l115 -139q68 -84 91.5 -148.5t23.5 -177.5v-342q0 -159 -47.5 -222.5t-147.5 -63.5q-126 0 -166 86v-70h-194v637h199v-320q0 -68 7 -102t18 -43.5t34 -9.5q35 0 47 28.5t12 126.5v271q0 80 -17 120t-71 107l-112 141
q-64 81 -87.5 145.5t-23.5 166.5v276q0 137 45.5 194.5t142.5 57.5q126 0 166 -82v66h197v-549h-199v242q0 63 -7 95t-18 40t-32 8q-25 0 -37 -8.5t-18.5 -39.5t-6.5 -95zM219 -309v188h193v-188h-193z" />
    <glyph glyph-name="uni1E63" unicode="&#x1e63;" horiz-adv-x="577" 
d="M252 1001v-106q0 -36 20.5 -69t61.5 -76l104 -111q58 -63 81.5 -118t23.5 -142v-182q0 -118 -42.5 -165.5t-129.5 -47.5q-123 0 -162 77v-61h-172v424h176v-186q0 -50 12 -65t41 -15q31 0 44.5 16t13.5 64v135q0 52 -15.5 84t-60.5 80l-105 110q-58 59 -77.5 109.5
t-18.5 138.5v164q0 99 40 142.5t120 43.5q110 0 153 -80v62h181v-398h-179v175q0 41 -13 55t-40 14q-32 0 -44.5 -14t-12.5 -58zM195 -309v188h192v-188h-192z" />
    <glyph glyph-name="uni1E6C" unicode="&#x1e6c;" horiz-adv-x="823" 
d="M215 1604v-373h-186v549h768v-549h-189v373h-78v-1424h74v-180h-383v180h74v1424h-80zM315 -309v188h193v-188h-193z" />
    <glyph glyph-name="uni1E6D" unicode="&#x1e6d;" horiz-adv-x="464" 
d="M25 1227h59v282h217v-282h133v-170h-133v-801q0 -60 13.5 -79t52.5 -19q48 0 84 16v-164q-75 -26 -156 -26q-119 0 -165 45t-46 155v873h-59v170zM180 -309v188h193v-188h-193z" />
    <glyph glyph-name="Wgrave" unicode="&#x1e80;" horiz-adv-x="1142" 
d="M854 1602h-51v178h321v-178h-55l-113 -1602h-280l-101 1292h-10l-96 -1292h-287l-112 1602h-58v178h324v-178h-49l51 -1170h8l103 1348h243l103 -1348h8zM530 1843l-145 275h193l84 -275h-132z" />
    <glyph glyph-name="wgrave" unicode="&#x1e81;" horiz-adv-x="1032" 
d="M770 1057h-47v170h293v-170h-49l-90 -1057h-273l-80 868h-10l-82 -868h-280l-91 1057h-49v170h303v-170h-49l41 -740h10l84 910h232l84 -910h8zM510 1681l108 -344h-129l-172 344h193z" />
    <glyph glyph-name="Wacute" unicode="&#x1e82;" horiz-adv-x="1142" 
d="M854 1602h-51v178h321v-178h-55l-113 -1602h-280l-101 1292h-10l-96 -1292h-287l-112 1602h-58v178h324v-178h-49l51 -1170h8l103 1348h243l103 -1348h8zM752 2118l-146 -275h-129l82 275h193z" />
    <glyph glyph-name="wacute" unicode="&#x1e83;" horiz-adv-x="1032" 
d="M770 1057h-47v170h293v-170h-49l-90 -1057h-273l-80 868h-10l-82 -868h-280l-91 1057h-49v170h303v-170h-49l41 -740h10l84 910h232l84 -910h8zM516 1679h193l-172 -342h-127z" />
    <glyph glyph-name="Wdieresis" unicode="&#x1e84;" horiz-adv-x="1142" 
d="M854 1602h-51v178h321v-178h-55l-113 -1602h-280l-101 1292h-10l-96 -1292h-287l-112 1602h-58v178h324v-178h-49l51 -1170h8l103 1348h243l103 -1348h8zM621 1903v188h184v-188h-184zM330 1903v188h184v-188h-184z" />
    <glyph glyph-name="wdieresis" unicode="&#x1e85;" horiz-adv-x="1032" 
d="M770 1057h-47v170h293v-170h-49l-90 -1057h-273l-80 868h-10l-82 -868h-280l-91 1057h-49v170h303v-170h-49l41 -740h10l84 910h232l84 -910h8zM565 1391v217h187v-217h-187zM276 1391v217h183v-217h-183z" />
    <glyph glyph-name="uni1E92" unicode="&#x1e92;" horiz-adv-x="698" 
d="M233 1602v-371h-202v549h637v-170l-396 -1430h195v457h201v-637h-637v193l389 1409h-187zM256 -309v188h193v-188h-193z" />
    <glyph glyph-name="uni1E93" unicode="&#x1e93;" horiz-adv-x="600" 
d="M209 1061v-217h-178v383h536v-152l-321 -907h145v240h176v-408h-536v162l319 899h-141zM203 -309v188h192v-188h-192z" />
    <glyph glyph-name="uni1E9E" unicode="&#x1e9e;" horiz-adv-x="831" 
d="M743 1780v-170l-168 -486q42 11 70 11q78 0 116 -49t38 -160v-617q0 -180 -57 -252.5t-191 -72.5q-123 0 -211 63v189q37 -37 70.5 -53.5t83.5 -16.5t64.5 30.5t14.5 135.5v504q0 81 -16.5 107t-64.5 26q-63 0 -132 -39v164l177 508h-146q-55 0 -69.5 -31.5t-14.5 -149.5
v-1421h-295v178h56v1245q0 146 27.5 221.5t90.5 105.5t185 30h372z" />
    <glyph glyph-name="uni1EA0" unicode="&#x1ea0;" 
d="M125 1602v178h498v-178h-62l115 -1422h59v-180h-332v180h41l-18 301h-113l-16 -301h39v-180h-324v180h62l114 1422h-63zM367 1434l-45 -783h96l-43 783h-8zM279 -309v188h192v-188h-192z" />
    <glyph glyph-name="uni1EA1" unicode="&#x1ea1;" horiz-adv-x="645" 
d="M578 928v-756h53v-172h-262v66q-36 -82 -164 -82q-85 0 -129.5 48.5t-44.5 172.5v309q0 125 45 171t137 46q111 0 147 -41v264q0 70 -12.5 94.5t-44.5 24.5q-31 0 -43 -20t-12 -74v-160h-211v207q0 116 61.5 167.5t225.5 51.5q55 0 93.5 -5.5t68 -21t46.5 -37.5t28 -59.5
t14.5 -82.5t3.5 -111zM297 580q-29 0 -40 -18t-11 -66v-260q0 -49 11 -67.5t40 -18.5q49 0 63 43v356q-19 31 -63 31zM215 -309v188h193v-188h-193z" />
    <glyph glyph-name="uni1EA2" unicode="&#x1ea2;" 
d="M125 1602v178h498v-178h-62l115 -1422h59v-180h-332v180h41l-18 301h-113l-16 -301h39v-180h-324v180h62l114 1422h-63zM367 1434l-45 -783h96l-43 783h-8zM371 2189q82 0 112.5 -22t30.5 -78v-33q0 -32 -16 -58.5t-35 -41.5t-35 -37.5t-16 -46.5v-27h-93v25
q0 31 12.5 57.5t27.5 41t27.5 32.5t12.5 35v37q0 29 -4.5 39t-21.5 10q-19 0 -24 -9.5t-5 -41.5v-43h-108v53q0 61 26.5 84.5t108.5 23.5z" />
    <glyph glyph-name="uni1EA3" unicode="&#x1ea3;" horiz-adv-x="645" 
d="M578 928v-756h53v-172h-262v66q-36 -82 -164 -82q-85 0 -129.5 48.5t-44.5 172.5v309q0 125 45 171t137 46q111 0 147 -41v264q0 70 -12.5 94.5t-44.5 24.5q-31 0 -43 -20t-12 -74v-160h-211v207q0 116 61.5 167.5t225.5 51.5q55 0 93.5 -5.5t68 -21t46.5 -37.5t28 -59.5
t14.5 -82.5t3.5 -111zM297 580q-29 0 -40 -18t-11 -66v-260q0 -49 11 -67.5t40 -18.5q49 0 63 43v356q-19 31 -63 31zM311 1651q82 0 113 -22.5t31 -78.5v-32q0 -27 -10.5 -49t-25.5 -37t-30.5 -29t-26 -32t-10.5 -38v-26h-92v24q0 31 12.5 57.5t27.5 41t27.5 32.5t12.5 35
v37q0 29 -5 39t-22 10q-18 0 -23 -9t-5 -42v-43h-109v53q0 61 26.5 85t108.5 24z" />
    <glyph glyph-name="uni1EA4" unicode="&#x1ea4;" 
d="M125 1602v178h498v-178h-62l115 -1422h59v-180h-332v180h41l-18 301h-113l-16 -301h39v-180h-324v180h62l114 1422h-63zM367 1434l-45 -783h96l-43 783h-8zM799 2312l-146 -274h-129l82 274h193zM446 1843l-79 146h-7l-77 -146h-119l104 275h193l104 -275h-119z" />
    <glyph glyph-name="uni1EA5" unicode="&#x1ea5;" horiz-adv-x="645" 
d="M578 928v-756h53v-172h-262v66q-36 -82 -164 -82q-85 0 -129.5 48.5t-44.5 172.5v309q0 125 45 171t137 46q111 0 147 -41v264q0 70 -12.5 94.5t-44.5 24.5q-31 0 -43 -20t-12 -74v-160h-211v207q0 116 61.5 167.5t225.5 51.5q55 0 93.5 -5.5t68 -21t46.5 -37.5t28 -59.5
t14.5 -82.5t3.5 -111zM297 580q-29 0 -40 -18t-11 -66v-260q0 -49 11 -67.5t40 -18.5q49 0 63 43v356q-19 31 -63 31zM483 1913l-145 -275h-129l82 275h192zM385 1303l-80 145h-6l-78 -145h-119l105 274h192l105 -274h-119z" />
    <glyph glyph-name="uni1EA6" unicode="&#x1ea6;" 
d="M125 1602v178h498v-178h-62l115 -1422h59v-180h-332v180h41l-18 301h-113l-16 -301h39v-180h-324v180h62l114 1422h-63zM367 1434l-45 -783h96l-43 783h-8zM586 2038l-146 274h193l84 -274h-131zM455 1843l-80 146h-6l-78 -146h-119l104 275h193l104 -275h-118z" />
    <glyph glyph-name="uni1EA7" unicode="&#x1ea7;" horiz-adv-x="645" 
d="M578 928v-756h53v-172h-262v66q-36 -82 -164 -82q-85 0 -129.5 48.5t-44.5 172.5v309q0 125 45 171t137 46q111 0 147 -41v264q0 70 -12.5 94.5t-44.5 24.5q-31 0 -43 -20t-12 -74v-160h-211v207q0 116 61.5 167.5t225.5 51.5q55 0 93.5 -5.5t68 -21t46.5 -37.5t28 -59.5
t14.5 -82.5t3.5 -111zM297 580q-29 0 -40 -18t-11 -66v-260q0 -49 11 -67.5t40 -18.5q49 0 63 43v356q-19 31 -63 31zM246 1638l-146 275h193l84 -275h-131zM385 1303l-80 145h-6l-78 -145h-119l105 274h192l105 -274h-119z" />
    <glyph glyph-name="uni1EA8" unicode="&#x1ea8;" 
d="M125 1602v178h498v-178h-62l115 -1422h59v-180h-332v180h41l-18 301h-113l-16 -301h39v-180h-324v180h62l114 1422h-63zM367 1434l-45 -783h96l-43 783h-8zM606 2306q82 0 113 -22t31 -78v-33q0 -27 -10.5 -48.5t-26 -36.5t-30.5 -29t-25.5 -32t-10.5 -38v-27h-92v25
q0 31 12.5 57t27.5 41t27.5 32.5t12.5 34.5v37q0 29 -5 39t-22 10q-18 0 -23 -9t-5 -42v-43h-109v54q0 61 26.5 84.5t108.5 23.5zM449 1843l-80 146h-7l-77 -146h-119l104 275h193l104 -275h-118z" />
    <glyph glyph-name="uni1EA9" unicode="&#x1ea9;" horiz-adv-x="645" 
d="M578 928v-756h53v-172h-262v66q-36 -82 -164 -82q-85 0 -129.5 48.5t-44.5 172.5v309q0 125 45 171t137 46q111 0 147 -41v264q0 70 -12.5 94.5t-44.5 24.5q-31 0 -43 -20t-12 -74v-160h-211v207q0 116 61.5 167.5t225.5 51.5q55 0 93.5 -5.5t68 -21t46.5 -37.5t28 -59.5
t14.5 -82.5t3.5 -111zM297 580q-29 0 -40 -18t-11 -66v-260q0 -49 11 -67.5t40 -18.5q49 0 63 43v356q-19 31 -63 31zM301 1987q82 0 112.5 -22.5t30.5 -78.5v-33q0 -32 -16 -58.5t-35 -41.5t-35 -37.5t-16 -46.5v-27h-92v25q0 31 12.5 57.5t27.5 41t27.5 32.5t12.5 35v37
q0 29 -5 39t-22 10q-19 0 -24 -9.5t-5 -41.5v-43h-108v53q0 61 26.5 85t108.5 24zM387 1303l-80 145h-6l-78 -145h-119l105 274h192l105 -274h-119z" />
    <glyph glyph-name="uni1EAA" unicode="&#x1eaa;" 
d="M125 1602v178h498v-178h-62l115 -1422h59v-180h-332v180h41l-18 301h-113l-16 -301h39v-180h-324v180h62l114 1422h-63zM367 1434l-45 -783h96l-43 783h-8zM498 2163q-49 0 -125 39t-107 39q-23 0 -33 -12.5t-10 -41.5v-22h-94v76q0 71 32 108t93 37q46 0 120 -38
t111 -38q24 0 33.5 11t9.5 42v23h93v-76q0 -147 -123 -147zM455 1843l-80 146h-6l-78 -146h-119l104 275h193l104 -275h-118z" />
    <glyph glyph-name="uni1EAB" unicode="&#x1eab;" horiz-adv-x="645" 
d="M578 928v-756h53v-172h-262v66q-36 -82 -164 -82q-85 0 -129.5 48.5t-44.5 172.5v309q0 125 45 171t137 46q111 0 147 -41v264q0 70 -12.5 94.5t-44.5 24.5q-31 0 -43 -20t-12 -74v-160h-211v207q0 116 61.5 167.5t225.5 51.5q55 0 93.5 -5.5t68 -21t46.5 -37.5t28 -59.5
t14.5 -82.5t3.5 -111zM297 580q-29 0 -40 -18t-11 -66v-260q0 -49 11 -67.5t40 -18.5q49 0 63 43v356q-19 31 -63 31zM426 1667q-49 0 -124.5 39t-106.5 39q-23 0 -33 -12t-10 -41v-23h-95v76q0 71 32 108t93 37q46 0 121 -37.5t111 -37.5q24 0 33.5 11t9.5 42v22h92v-75
q0 -148 -123 -148zM387 1303l-80 145h-6l-78 -145h-119l105 274h192l105 -274h-119z" />
    <glyph glyph-name="uni1EAC" unicode="&#x1eac;" 
d="M125 1602v178h498v-178h-62l115 -1422h59v-180h-332v180h41l-18 301h-113l-16 -301h39v-180h-324v180h62l114 1422h-63zM367 1434l-45 -783h96l-43 783h-8zM279 -309v188h192v-188h-192zM455 1843l-80 146h-6l-78 -146h-119l104 275h193l104 -275h-118z" />
    <glyph glyph-name="uni1EAD" unicode="&#x1ead;" horiz-adv-x="645" 
d="M578 928v-756h53v-172h-262v66q-36 -82 -164 -82q-85 0 -129.5 48.5t-44.5 172.5v309q0 125 45 171t137 46q111 0 147 -41v264q0 70 -12.5 94.5t-44.5 24.5q-31 0 -43 -20t-12 -74v-160h-211v207q0 116 61.5 167.5t225.5 51.5q55 0 93.5 -5.5t68 -21t46.5 -37.5t28 -59.5
t14.5 -82.5t3.5 -111zM297 580q-29 0 -40 -18t-11 -66v-260q0 -49 11 -67.5t40 -18.5q49 0 63 43v356q-19 31 -63 31zM387 1337l-80 195h-8l-76 -195h-119l103 342h192l107 -342h-119zM207 -309v188h192v-188h-192z" />
    <glyph glyph-name="uni1EAE" unicode="&#x1eae;" 
d="M125 1602v178h498v-178h-62l115 -1422h59v-180h-332v180h41l-18 301h-113l-16 -301h39v-180h-324v180h62l114 1422h-63zM367 1434l-45 -783h96l-43 783h-8zM573 2353l-145 -274h-129l82 274h192zM375 1847q-134 0 -182 48t-48 173v33h91v-26q0 -53 27.5 -74t111.5 -21
t110.5 21t26.5 74v26h92v-33q0 -125 -48 -173t-181 -48z" />
    <glyph glyph-name="uni1EAF" unicode="&#x1eaf;" horiz-adv-x="645" 
d="M578 928v-756h53v-172h-262v66q-36 -82 -164 -82q-85 0 -129.5 48.5t-44.5 172.5v309q0 125 45 171t137 46q111 0 147 -41v264q0 70 -12.5 94.5t-44.5 24.5q-31 0 -43 -20t-12 -74v-160h-211v207q0 116 61.5 167.5t225.5 51.5q55 0 93.5 -5.5t68 -21t46.5 -37.5t28 -59.5
t14.5 -82.5t3.5 -111zM297 580q-29 0 -40 -18t-11 -66v-260q0 -49 11 -67.5t40 -18.5q49 0 63 43v356q-19 31 -63 31zM489 1913l-145 -275h-129l82 275h192zM305 1307q-134 0 -181.5 48t-47.5 173v33h90v-27q0 -52 27.5 -73t111.5 -21t110.5 20.5t26.5 73.5v27h93v-33
q0 -125 -48.5 -173t-181.5 -48z" />
    <glyph glyph-name="uni1EB0" unicode="&#x1eb0;" 
d="M125 1602v178h498v-178h-62l115 -1422h59v-180h-332v180h41l-18 301h-113l-16 -301h39v-180h-324v180h62l114 1422h-63zM367 1434l-45 -783h96l-43 783h-8zM375 1847q-134 0 -182 48t-48 173v33h91v-26q0 -53 27.5 -74t111.5 -21t110.5 21t26.5 74v26h92v-33
q0 -125 -48 -173t-181 -48zM326 2079l-146 274h193l84 -274h-131z" />
    <glyph glyph-name="uni1EB1" unicode="&#x1eb1;" horiz-adv-x="645" 
d="M578 928v-756h53v-172h-262v66q-36 -82 -164 -82q-85 0 -129.5 48.5t-44.5 172.5v309q0 125 45 171t137 46q111 0 147 -41v264q0 70 -12.5 94.5t-44.5 24.5q-31 0 -43 -20t-12 -74v-160h-211v207q0 116 61.5 167.5t225.5 51.5q55 0 93.5 -5.5t68 -21t46.5 -37.5t28 -59.5
t14.5 -82.5t3.5 -111zM297 580q-29 0 -40 -18t-11 -66v-260q0 -49 11 -67.5t40 -18.5q49 0 63 43v356q-19 31 -63 31zM305 1307q-134 0 -181.5 48t-47.5 173v33h90v-27q0 -52 27.5 -73t111.5 -21t110.5 20.5t26.5 73.5v27h93v-33q0 -125 -48.5 -173t-181.5 -48zM266 1638
l-145 275h192l84 -275h-131z" />
    <glyph glyph-name="uni1EB2" unicode="&#x1eb2;" 
d="M125 1602v178h498v-178h-62l115 -1422h59v-180h-332v180h41l-18 301h-113l-16 -301h39v-180h-324v180h62l114 1422h-63zM367 1434l-45 -783h96l-43 783h-8zM375 1847q-134 0 -182 48t-48 173v33h91v-26q0 -53 27.5 -74t111.5 -21t110.5 21t26.5 74v26h92v-33
q0 -125 -48 -173t-181 -48zM371 2398q82 0 112.5 -22t30.5 -78v-33q0 -32 -16 -58.5t-35 -41.5t-35 -37.5t-16 -46.5v-27h-93v25q0 31 12.5 57.5t27.5 41t27.5 32.5t12.5 35v36q0 29 -4.5 39.5t-21.5 10.5q-19 0 -24 -9.5t-5 -42.5v-43h-108v54q0 61 26.5 84.5t108.5 23.5z
" />
    <glyph glyph-name="uni1EB3" unicode="&#x1eb3;" horiz-adv-x="645" 
d="M578 928v-756h53v-172h-262v66q-36 -82 -164 -82q-85 0 -129.5 48.5t-44.5 172.5v309q0 125 45 171t137 46q111 0 147 -41v264q0 70 -12.5 94.5t-44.5 24.5q-31 0 -43 -20t-12 -74v-160h-211v207q0 116 61.5 167.5t225.5 51.5q55 0 93.5 -5.5t68 -21t46.5 -37.5t28 -59.5
t14.5 -82.5t3.5 -111zM297 580q-29 0 -40 -18t-11 -66v-260q0 -49 11 -67.5t40 -18.5q49 0 63 43v356q-19 31 -63 31zM305 1307q-134 0 -181.5 48t-47.5 173v33h90v-27q0 -52 27.5 -73t111.5 -21t110.5 20.5t26.5 73.5v27h93v-33q0 -125 -48.5 -173t-181.5 -48zM303 1976
q82 0 112.5 -22t30.5 -78v-33q0 -32 -16 -58.5t-35 -41.5t-35 -37.5t-16 -46.5v-27h-92v25q0 31 12.5 57.5t27.5 41t27.5 32.5t12.5 35v37q0 29 -5 39t-22 10q-19 0 -24 -9.5t-5 -41.5v-43h-108v53q0 61 26.5 84.5t108.5 23.5z" />
    <glyph glyph-name="uni1EB4" unicode="&#x1eb4;" 
d="M125 1602v178h498v-178h-62l115 -1422h59v-180h-332v180h41l-18 301h-113l-16 -301h39v-180h-324v180h62l114 1422h-63zM367 1434l-45 -783h96l-43 783h-8zM375 1847q-134 0 -182 48t-48 173v33h91v-26q0 -53 27.5 -74t111.5 -21t110.5 21t26.5 74v26h92v-33
q0 -125 -48 -173t-181 -48zM498 2171q-49 0 -125 39t-107 39q-23 0 -33 -12.5t-10 -41.5v-22h-94v76q0 71 32 108t93 37q46 0 120 -38t111 -38q24 0 33.5 11.5t9.5 42.5v22h93v-76q0 -147 -123 -147z" />
    <glyph glyph-name="uni1EB5" unicode="&#x1eb5;" horiz-adv-x="645" 
d="M578 928v-756h53v-172h-262v66q-36 -82 -164 -82q-85 0 -129.5 48.5t-44.5 172.5v309q0 125 45 171t137 46q111 0 147 -41v264q0 70 -12.5 94.5t-44.5 24.5q-31 0 -43 -20t-12 -74v-160h-211v207q0 116 61.5 167.5t225.5 51.5q55 0 93.5 -5.5t68 -21t46.5 -37.5t28 -59.5
t14.5 -82.5t3.5 -111zM297 580q-29 0 -40 -18t-11 -66v-260q0 -49 11 -67.5t40 -18.5q49 0 63 43v356q-19 31 -63 31zM305 1307q-134 0 -181.5 48t-47.5 173v33h90v-27q0 -52 27.5 -73t111.5 -21t110.5 20.5t26.5 73.5v27h93v-33q0 -125 -48.5 -173t-181.5 -48zM426 1667
q-49 0 -124.5 39t-106.5 39q-23 0 -33 -12t-10 -41v-23h-95v76q0 71 32 108t93 37q46 0 121 -37.5t111 -37.5q24 0 33.5 11t9.5 42v22h92v-75q0 -148 -123 -148z" />
    <glyph glyph-name="uni1EB6" unicode="&#x1eb6;" 
d="M125 1602v178h498v-178h-62l115 -1422h59v-180h-332v180h41l-18 301h-113l-16 -301h39v-180h-324v180h62l114 1422h-63zM367 1434l-45 -783h96l-43 783h-8zM279 -309v188h192v-188h-192zM375 1847q-134 0 -182 48t-48 173v33h91v-26q0 -53 27.5 -74t111.5 -21t110.5 21
t26.5 74v26h92v-33q0 -125 -48 -173t-181 -48z" />
    <glyph glyph-name="uni1EB7" unicode="&#x1eb7;" horiz-adv-x="645" 
d="M578 928v-756h53v-172h-262v66q-36 -82 -164 -82q-85 0 -129.5 48.5t-44.5 172.5v309q0 125 45 171t137 46q111 0 147 -41v264q0 70 -12.5 94.5t-44.5 24.5q-31 0 -43 -20t-12 -74v-160h-211v207q0 116 61.5 167.5t225.5 51.5q55 0 93.5 -5.5t68 -21t46.5 -37.5t28 -59.5
t14.5 -82.5t3.5 -111zM297 580q-29 0 -40 -18t-11 -66v-260q0 -49 11 -67.5t40 -18.5q49 0 63 43v356q-19 31 -63 31zM303 1341q-133 0 -181 56.5t-48 204.5v57h90v-53q0 -59 29 -88t110 -29q82 0 109.5 28.5t27.5 88.5v53h95v-57q0 -148 -48.5 -204.5t-183.5 -56.5z
M207 -309v188h192v-188h-192z" />
    <glyph glyph-name="uni1EB8" unicode="&#x1eb8;" horiz-adv-x="677" 
d="M442 1231v371h-118v-568h231v-180h-231v-674h118v457h201v-637h-618v180h59v1422h-59v178h618v-549h-201zM244 -309v188h192v-188h-192z" />
    <glyph glyph-name="uni1EB9" unicode="&#x1eb9;" horiz-adv-x="581" 
d="M543 569h-295v-272q0 -90 11.5 -114.5t47.5 -24.5q24 0 35 8.5t17 38t6 90.5v139h178v-160q0 -172 -52.5 -231t-201.5 -59q-72 0 -116.5 12t-76 44.5t-44.5 89t-13 146.5v674q0 120 25.5 184t77.5 87.5t147 23.5q148 0 201 -60.5t53 -234.5v-381zM248 932v-211h117v211
q0 89 -12 115t-46 26q-24 0 -35.5 -9t-17.5 -39t-6 -93zM193 -309v188h192v-188h-192z" />
    <glyph glyph-name="uni1EBA" unicode="&#x1eba;" horiz-adv-x="677" 
d="M442 1231v371h-118v-568h231v-180h-231v-674h118v457h201v-637h-618v180h59v1422h-59v178h618v-549h-201zM336 2189q82 0 112.5 -22t30.5 -78v-33q0 -32 -16 -58.5t-35 -41.5t-35 -37.5t-16 -46.5v-27h-92v25q0 31 12.5 57.5t27.5 41t27.5 32.5t12.5 35v37q0 29 -5 39
t-22 10q-19 0 -24 -9.5t-5 -41.5v-43h-108v53q0 61 26.5 84.5t108.5 23.5z" />
    <glyph glyph-name="uni1EBB" unicode="&#x1ebb;" horiz-adv-x="581" 
d="M543 569h-295v-272q0 -90 11.5 -114.5t47.5 -24.5q24 0 35 8.5t17 38t6 90.5v139h178v-160q0 -172 -52.5 -231t-201.5 -59q-72 0 -116.5 12t-76 44.5t-44.5 89t-13 146.5v674q0 120 25.5 184t77.5 87.5t147 23.5q148 0 201 -60.5t53 -234.5v-381zM248 932v-211h117v211
q0 89 -12 115t-46 26q-24 0 -35.5 -9t-17.5 -39t-6 -93zM291 1651q82 0 112.5 -22.5t30.5 -78.5v-32q0 -32 -16 -59t-35 -42t-35 -37.5t-16 -46.5v-26h-92v24q0 39 20 70t39.5 53.5t19.5 42.5v37q0 29 -4.5 39t-21.5 10q-19 0 -24 -9.5t-5 -41.5v-43h-108v53q0 61 26.5 85
t108.5 24z" />
    <glyph glyph-name="uni1EBC" unicode="&#x1ebc;" horiz-adv-x="677" 
d="M442 1231v371h-118v-568h231v-180h-231v-674h118v457h201v-637h-618v180h59v1422h-59v178h618v-549h-201zM463 1884q-49 0 -125 39t-107 39q-23 0 -33 -12t-10 -41v-23h-94v76q0 71 32 108t93 37q45 0 120 -37.5t112 -37.5q24 0 33.5 11t9.5 42v22h92v-75
q0 -148 -123 -148z" />
    <glyph glyph-name="uni1EBD" unicode="&#x1ebd;" horiz-adv-x="581" 
d="M543 569h-295v-272q0 -90 11.5 -114.5t47.5 -24.5q24 0 35 8.5t17 38t6 90.5v139h178v-160q0 -172 -52.5 -231t-201.5 -59q-72 0 -116.5 12t-76 44.5t-44.5 89t-13 146.5v674q0 120 25.5 184t77.5 87.5t147 23.5q148 0 201 -60.5t53 -234.5v-381zM248 932v-211h117v211
q0 89 -12 115t-46 26q-24 0 -35.5 -9t-17.5 -39t-6 -93zM412 1364q-40 0 -83 21.5t-81.5 43t-67.5 21.5q-24 0 -34.5 -12.5t-10.5 -46.5v-27h-90v92q0 176 125 176q41 0 118 -45t111 -45q24 0 33.5 13t9.5 49v26h95v-94q0 -172 -125 -172z" />
    <glyph glyph-name="uni1EBE" unicode="&#x1ebe;" horiz-adv-x="677" 
d="M442 1231v371h-118v-568h231v-180h-231v-674h118v457h201v-637h-618v180h59v1422h-59v178h618v-549h-201zM758 2312l-146 -274h-129l82 274h193zM408 1843l-80 146h-6l-78 -146h-119l104 275h193l104 -275h-118z" />
    <glyph glyph-name="uni1EBF" unicode="&#x1ebf;" horiz-adv-x="581" 
d="M543 569h-295v-272q0 -90 11.5 -114.5t47.5 -24.5q24 0 35 8.5t17 38t6 90.5v139h178v-160q0 -172 -52.5 -231t-201.5 -59q-72 0 -116.5 12t-76 44.5t-44.5 89t-13 146.5v674q0 120 25.5 184t77.5 87.5t147 23.5q148 0 201 -60.5t53 -234.5v-381zM248 932v-211h117v211
q0 89 -12 115t-46 26q-24 0 -35.5 -9t-17.5 -39t-6 -93zM483 1913l-145 -275h-129l82 275h192zM371 1303l-80 145h-6l-78 -145h-119l105 274h192l104 -274h-118z" />
    <glyph glyph-name="uni1EC0" unicode="&#x1ec0;" horiz-adv-x="677" 
d="M442 1231v371h-118v-568h231v-180h-231v-674h118v457h201v-637h-618v180h59v1422h-59v178h618v-549h-201zM539 2038l-146 274h193l84 -274h-131zM408 1843l-80 146h-6l-78 -146h-119l104 275h193l104 -275h-118z" />
    <glyph glyph-name="uni1EC1" unicode="&#x1ec1;" horiz-adv-x="581" 
d="M543 569h-295v-272q0 -90 11.5 -114.5t47.5 -24.5q24 0 35 8.5t17 38t6 90.5v139h178v-160q0 -172 -52.5 -231t-201.5 -59q-72 0 -116.5 12t-76 44.5t-44.5 89t-13 146.5v674q0 120 25.5 184t77.5 87.5t147 23.5q148 0 201 -60.5t53 -234.5v-381zM248 932v-211h117v211
q0 89 -12 115t-46 26q-24 0 -35.5 -9t-17.5 -39t-6 -93zM246 1638l-146 275h193l84 -275h-131zM371 1303l-80 145h-6l-78 -145h-119l105 274h192l104 -274h-118z" />
    <glyph glyph-name="uni1EC2" unicode="&#x1ec2;" horiz-adv-x="677" 
d="M442 1231v371h-118v-568h231v-180h-231v-674h118v457h201v-637h-618v180h59v1422h-59v178h618v-549h-201zM567 2306q82 0 113 -22t31 -78v-33q0 -27 -10.5 -48.5t-25.5 -36.5t-30.5 -29t-26 -32t-10.5 -38v-27h-92v25q0 31 12.5 57t27.5 41t27.5 32.5t12.5 34.5v37
q0 29 -5 39t-22 10q-18 0 -23 -9t-5 -42v-43h-109v54q0 61 26.5 84.5t108.5 23.5zM408 1843l-80 146h-6l-78 -146h-119l104 275h193l104 -275h-118z" />
    <glyph glyph-name="uni1EC3" unicode="&#x1ec3;" horiz-adv-x="581" 
d="M543 569h-295v-272q0 -90 11.5 -114.5t47.5 -24.5q24 0 35 8.5t17 38t6 90.5v139h178v-160q0 -172 -52.5 -231t-201.5 -59q-72 0 -116.5 12t-76 44.5t-44.5 89t-13 146.5v674q0 120 25.5 184t77.5 87.5t147 23.5q148 0 201 -60.5t53 -234.5v-381zM248 932v-211h117v211
q0 89 -12 115t-46 26q-24 0 -35.5 -9t-17.5 -39t-6 -93zM291 1987q82 0 112.5 -22.5t30.5 -78.5v-33q0 -32 -16 -58.5t-35 -41.5t-35 -37.5t-16 -46.5v-27h-92v25q0 39 20 70t39.5 53.5t19.5 42.5v37q0 29 -4.5 39t-21.5 10q-19 0 -24 -9.5t-5 -41.5v-43h-108v53
q0 61 26.5 85t108.5 24zM371 1303l-80 145h-6l-78 -145h-119l105 274h192l104 -274h-118z" />
    <glyph glyph-name="uni1EC4" unicode="&#x1ec4;" horiz-adv-x="677" 
d="M442 1231v371h-118v-568h231v-180h-231v-674h118v457h201v-637h-618v180h59v1422h-59v178h618v-549h-201zM463 2163q-49 0 -125 39t-107 39q-23 0 -33 -12.5t-10 -41.5v-22h-94v76q0 71 32 108t93 37q45 0 120 -38t112 -38q24 0 33.5 11t9.5 42v23h92v-76
q0 -147 -123 -147zM422 1843l-80 146h-6l-78 -146h-119l105 275h192l105 -275h-119z" />
    <glyph glyph-name="uni1EC5" unicode="&#x1ec5;" horiz-adv-x="581" 
d="M543 569h-295v-272q0 -90 11.5 -114.5t47.5 -24.5q24 0 35 8.5t17 38t6 90.5v139h178v-160q0 -172 -52.5 -231t-201.5 -59q-72 0 -116.5 12t-76 44.5t-44.5 89t-13 146.5v674q0 120 25.5 184t77.5 87.5t147 23.5q148 0 201 -60.5t53 -234.5v-381zM248 932v-211h117v211
q0 89 -12 115t-46 26q-24 0 -35.5 -9t-17.5 -39t-6 -93zM412 1667q-49 0 -125 39t-107 39q-23 0 -33 -12t-10 -41v-23h-94v76q0 71 32 108t93 37q45 0 119.5 -37.5t111.5 -37.5q24 0 33.5 11t9.5 42v22h93v-75q0 -148 -123 -148zM371 1303l-80 145h-6l-78 -145h-119l105 274
h192l104 -274h-118z" />
    <glyph glyph-name="uni1EC6" unicode="&#x1ec6;" horiz-adv-x="677" 
d="M442 1231v371h-118v-568h231v-180h-231v-674h118v457h201v-637h-618v180h59v1422h-59v178h618v-549h-201zM244 -309v188h192v-188h-192zM422 1843l-80 146h-6l-78 -146h-119l105 275h192l105 -275h-119z" />
    <glyph glyph-name="uni1EC7" unicode="&#x1ec7;" horiz-adv-x="581" 
d="M543 569h-295v-272q0 -90 11.5 -114.5t47.5 -24.5q24 0 35 8.5t17 38t6 90.5v139h178v-160q0 -172 -52.5 -231t-201.5 -59q-72 0 -116.5 12t-76 44.5t-44.5 89t-13 146.5v674q0 120 25.5 184t77.5 87.5t147 23.5q148 0 201 -60.5t53 -234.5v-381zM248 932v-211h117v211
q0 89 -12 115t-46 26q-24 0 -35.5 -9t-17.5 -39t-6 -93zM373 1337l-80 195h-8l-76 -195h-119l103 342h192l107 -342h-119zM193 -309v188h192v-188h-192z" />
    <glyph glyph-name="uni1EC8" unicode="&#x1ec8;" horiz-adv-x="409" 
d="M324 180h63v-180h-362v180h59v1422h-59v178h362v-178h-63v-1422zM201 2189q82 0 112.5 -22t30.5 -78v-33q0 -32 -16 -58.5t-35 -41.5t-35 -37.5t-16 -46.5v-27h-92v25q0 39 20 70t39.5 53.5t19.5 42.5v37q0 29 -4.5 39t-21.5 10q-19 0 -24 -9.5t-5 -41.5v-43h-108v53
q0 61 26.5 84.5t108.5 23.5z" />
    <glyph glyph-name="uni1EC9" unicode="&#x1ec9;" horiz-adv-x="366" 
d="M25 1227h276v-1055h53v-172h-329v172h59v885h-59v170zM178 1651q82 0 113 -22.5t31 -78.5v-32q0 -27 -10.5 -49t-26 -37t-30.5 -29t-25.5 -32t-10.5 -38v-26h-92v24q0 31 12.5 57.5t27.5 41t27.5 32.5t12.5 35v37q0 29 -5 39t-22 10q-18 0 -23 -9t-5 -42v-43h-109v53
q0 61 26.5 85t108.5 24z" />
    <glyph glyph-name="uni1ECA" unicode="&#x1eca;" horiz-adv-x="409" 
d="M324 180h63v-180h-362v180h59v1422h-59v178h362v-178h-63v-1422zM109 -309v188h192v-188h-192z" />
    <glyph glyph-name="uni1ECB" unicode="&#x1ecb;" horiz-adv-x="366" 
d="M25 1227h276v-1055h53v-172h-329v172h59v885h-59v170zM90 1391v217h193v-217h-193zM90 -309v188h193v-188h-193z" />
    <glyph glyph-name="uni1ECC" unicode="&#x1ecc;" horiz-adv-x="675" 
d="M276 1438v-1096q0 -78 6.5 -117t19 -51t36.5 -12q37 0 49 32.5t12 147.5v1096q0 80 -6 118.5t-18 50t-37 11.5t-37 -11.5t-18.5 -50.5t-6.5 -118zM338 1798q119 0 181.5 -29.5t91 -105.5t28.5 -221v-1104q0 -145 -28.5 -220.5t-91 -104.5t-181.5 -29t-181 29t-90 104.5
t-28 220.5v1104q0 145 28 221t90 105.5t181 29.5zM242 -309v188h192v-188h-192z" />
    <glyph glyph-name="uni1ECD" unicode="&#x1ecd;" horiz-adv-x="622" 
d="M311 1073q-34 0 -45.5 -25.5t-11.5 -115.5v-635q0 -90 11.5 -114.5t45.5 -24.5q24 0 35 8.5t17 38.5t6 92v635q0 90 -12 115.5t-46 25.5zM311 -16q-107 0 -163 23.5t-82.5 86t-26.5 182.5v674q0 91 13 147t46.5 89.5t83 46t129.5 12.5q107 0 164 -24.5t84 -87.5t27 -183
v-674q0 -119 -27 -182t-84 -86.5t-164 -23.5zM215 -309v188h193v-188h-193z" />
    <glyph glyph-name="uni1ECE" unicode="&#x1ece;" horiz-adv-x="675" 
d="M276 1438v-1096q0 -78 6.5 -117t19 -51t36.5 -12q37 0 49 32.5t12 147.5v1096q0 80 -6 118.5t-18 50t-37 11.5t-37 -11.5t-18.5 -50.5t-6.5 -118zM338 1798q119 0 181.5 -29.5t91 -105.5t28.5 -221v-1104q0 -145 -28.5 -220.5t-91 -104.5t-181.5 -29t-181 29t-90 104.5
t-28 220.5v1104q0 145 28 221t90 105.5t181 29.5zM334 2189q82 0 112.5 -22t30.5 -78v-33q0 -32 -16 -58.5t-35 -41.5t-35 -37.5t-16 -46.5v-27h-92v25q0 31 12.5 57.5t27 41t27 32.5t12.5 35v37q0 29 -4.5 39t-21.5 10q-19 0 -24 -9.5t-5 -41.5v-43h-108v53q0 61 26.5 84.5
t108.5 23.5z" />
    <glyph glyph-name="uni1ECF" unicode="&#x1ecf;" horiz-adv-x="622" 
d="M311 1073q-34 0 -45.5 -25.5t-11.5 -115.5v-635q0 -90 11.5 -114.5t45.5 -24.5q24 0 35 8.5t17 38.5t6 92v635q0 90 -12 115.5t-46 25.5zM311 -16q-107 0 -163 23.5t-82.5 86t-26.5 182.5v674q0 91 13 147t46.5 89.5t83 46t129.5 12.5q107 0 164 -24.5t84 -87.5t27 -183
v-674q0 -119 -27 -182t-84 -86.5t-164 -23.5zM311 1651q82 0 113 -22.5t31 -78.5v-32q0 -27 -10.5 -49t-25.5 -37t-30.5 -29t-26 -32t-10.5 -38v-26h-92v24q0 31 12.5 57.5t27.5 41t27.5 32.5t12.5 35v37q0 29 -5 39t-22 10q-18 0 -23 -9t-5 -42v-43h-109v53q0 61 26.5 85
t108.5 24z" />
    <glyph glyph-name="uni1ED0" unicode="&#x1ed0;" horiz-adv-x="675" 
d="M276 1438v-1096q0 -78 6.5 -117t19 -51t36.5 -12q37 0 49 32.5t12 147.5v1096q0 80 -6 118.5t-18 50t-37 11.5t-37 -11.5t-18.5 -50.5t-6.5 -118zM338 1798q119 0 181.5 -29.5t91 -105.5t28.5 -221v-1104q0 -145 -28.5 -220.5t-91 -104.5t-181.5 -29t-181 29t-90 104.5
t-28 220.5v1104q0 145 28 221t90 105.5t181 29.5zM764 2312l-146 -274h-129l82 274h193zM412 1843l-80 146h-6l-78 -146h-119l104 275h193l104 -275h-118z" />
    <glyph glyph-name="uni1ED1" unicode="&#x1ed1;" horiz-adv-x="622" 
d="M311 1073q-34 0 -45.5 -25.5t-11.5 -115.5v-635q0 -90 11.5 -114.5t45.5 -24.5q24 0 35 8.5t17 38.5t6 92v635q0 90 -12 115.5t-46 25.5zM311 -16q-107 0 -163 23.5t-82.5 86t-26.5 182.5v674q0 91 13 147t46.5 89.5t83 46t129.5 12.5q107 0 164 -24.5t84 -87.5t27 -183
v-674q0 -119 -27 -182t-84 -86.5t-164 -23.5zM496 1913l-146 -275h-129l82 275h193zM393 1303l-80 145h-6l-78 -145h-118l104 274h193l104 -274h-119z" />
    <glyph glyph-name="uni1ED2" unicode="&#x1ed2;" horiz-adv-x="675" 
d="M276 1438v-1096q0 -78 6.5 -117t19 -51t36.5 -12q37 0 49 32.5t12 147.5v1096q0 80 -6 118.5t-18 50t-37 11.5t-37 -11.5t-18.5 -50.5t-6.5 -118zM338 1798q119 0 181.5 -29.5t91 -105.5t28.5 -221v-1104q0 -145 -28.5 -220.5t-91 -104.5t-181.5 -29t-181 29t-90 104.5
t-28 220.5v1104q0 145 28 221t90 105.5t181 29.5zM543 2038l-146 274h193l84 -274h-131zM412 1843l-80 146h-6l-78 -146h-119l104 275h193l104 -275h-118z" />
    <glyph glyph-name="uni1ED3" unicode="&#x1ed3;" horiz-adv-x="622" 
d="M311 1073q-34 0 -45.5 -25.5t-11.5 -115.5v-635q0 -90 11.5 -114.5t45.5 -24.5q24 0 35 8.5t17 38.5t6 92v635q0 90 -12 115.5t-46 25.5zM311 -16q-107 0 -163 23.5t-82.5 86t-26.5 182.5v674q0 91 13 147t46.5 89.5t83 46t129.5 12.5q107 0 164 -24.5t84 -87.5t27 -183
v-674q0 -119 -27 -182t-84 -86.5t-164 -23.5zM276 1638l-145 275h193l84 -275h-132zM393 1303l-80 145h-6l-78 -145h-118l104 274h193l104 -274h-119z" />
    <glyph glyph-name="uni1ED4" unicode="&#x1ed4;" horiz-adv-x="675" 
d="M276 1438v-1096q0 -78 6.5 -117t19 -51t36.5 -12q37 0 49 32.5t12 147.5v1096q0 80 -6 118.5t-18 50t-37 11.5t-37 -11.5t-18.5 -50.5t-6.5 -118zM338 1798q119 0 181.5 -29.5t91 -105.5t28.5 -221v-1104q0 -145 -28.5 -220.5t-91 -104.5t-181.5 -29t-181 29t-90 104.5
t-28 220.5v1104q0 145 28 221t90 105.5t181 29.5zM571 2308q82 0 113 -22t31 -78v-33q0 -27 -10.5 -48.5t-25.5 -36.5t-30.5 -29t-26 -32t-10.5 -38v-27h-92v25q0 31 12.5 57t27.5 41t27.5 32.5t12.5 34.5v37q0 29 -5 39.5t-22 10.5q-18 0 -23 -9.5t-5 -42.5v-43h-109v54
q0 61 26.5 84.5t108.5 23.5zM412 1843l-80 146h-6l-78 -146h-119l104 275h193l104 -275h-118z" />
    <glyph glyph-name="uni1ED5" unicode="&#x1ed5;" horiz-adv-x="622" 
d="M311 1073q-34 0 -45.5 -25.5t-11.5 -115.5v-635q0 -90 11.5 -114.5t45.5 -24.5q24 0 35 8.5t17 38.5t6 92v635q0 90 -12 115.5t-46 25.5zM311 -16q-107 0 -163 23.5t-82.5 86t-26.5 182.5v674q0 91 13 147t46.5 89.5t83 46t129.5 12.5q107 0 164 -24.5t84 -87.5t27 -183
v-674q0 -119 -27 -182t-84 -86.5t-164 -23.5zM313 1987q82 0 113 -22.5t31 -78.5v-33q0 -27 -10.5 -48.5t-25.5 -36.5t-30.5 -29t-26 -32t-10.5 -38v-27h-92v25q0 31 12.5 57.5t27.5 41t27.5 32.5t12.5 35v37q0 29 -5 39t-22 10q-18 0 -23 -9t-5 -42v-43h-109v53
q0 61 26.5 85t108.5 24zM393 1303l-80 145h-6l-78 -145h-118l104 274h193l104 -274h-119z" />
    <glyph glyph-name="uni1ED6" unicode="&#x1ed6;" horiz-adv-x="675" 
d="M276 1438v-1096q0 -78 6.5 -117t19 -51t36.5 -12q37 0 49 32.5t12 147.5v1096q0 80 -6 118.5t-18 50t-37 11.5t-37 -11.5t-18.5 -50.5t-6.5 -118zM338 1798q119 0 181.5 -29.5t91 -105.5t28.5 -221v-1104q0 -145 -28.5 -220.5t-91 -104.5t-181.5 -29t-181 29t-90 104.5
t-28 220.5v1104q0 145 28 221t90 105.5t181 29.5zM461 2163q-49 0 -125 39t-107 39q-23 0 -33 -12.5t-10 -41.5v-22h-94v76q0 71 32 108t93 37q46 0 120.5 -38t111.5 -38q24 0 33.5 11t9.5 42v23h92v-76q0 -147 -123 -147zM418 1843l-80 146h-6l-78 -146h-119l105 275h192
l105 -275h-119z" />
    <glyph glyph-name="uni1ED7" unicode="&#x1ed7;" horiz-adv-x="622" 
d="M311 1073q-34 0 -45.5 -25.5t-11.5 -115.5v-635q0 -90 11.5 -114.5t45.5 -24.5q24 0 35 8.5t17 38.5t6 92v635q0 90 -12 115.5t-46 25.5zM311 -16q-107 0 -163 23.5t-82.5 86t-26.5 182.5v674q0 91 13 147t46.5 89.5t83 46t129.5 12.5q107 0 164 -24.5t84 -87.5t27 -183
v-674q0 -119 -27 -182t-84 -86.5t-164 -23.5zM432 1667q-49 0 -124.5 39t-106.5 39q-23 0 -33 -12t-10 -41v-23h-95v76q0 71 32 108t93 37q46 0 121 -37.5t111 -37.5q24 0 33.5 11t9.5 42v22h92v-75q0 -148 -123 -148zM393 1303l-80 145h-6l-78 -145h-118l104 274h193
l104 -274h-119z" />
    <glyph glyph-name="uni1ED8" unicode="&#x1ed8;" horiz-adv-x="675" 
d="M276 1438v-1096q0 -78 6.5 -117t19 -51t36.5 -12q37 0 49 32.5t12 147.5v1096q0 80 -6 118.5t-18 50t-37 11.5t-37 -11.5t-18.5 -50.5t-6.5 -118zM338 1798q119 0 181.5 -29.5t91 -105.5t28.5 -221v-1104q0 -145 -28.5 -220.5t-91 -104.5t-181.5 -29t-181 29t-90 104.5
t-28 220.5v1104q0 145 28 221t90 105.5t181 29.5zM242 -309v188h192v-188h-192zM420 1843l-80 146h-6l-78 -146h-119l105 275h192l105 -275h-119z" />
    <glyph glyph-name="uni1ED9" unicode="&#x1ed9;" horiz-adv-x="622" 
d="M311 1073q-34 0 -45.5 -25.5t-11.5 -115.5v-635q0 -90 11.5 -114.5t45.5 -24.5q24 0 35 8.5t17 38.5t6 92v635q0 90 -12 115.5t-46 25.5zM311 -16q-107 0 -163 23.5t-82.5 86t-26.5 182.5v674q0 91 13 147t46.5 89.5t83 46t129.5 12.5q107 0 164 -24.5t84 -87.5t27 -183
v-674q0 -119 -27 -182t-84 -86.5t-164 -23.5zM393 1337l-80 195h-8l-76 -195h-118l102 342h193l106 -342h-119zM203 -309v188h192v-188h-192z" />
    <glyph glyph-name="uni1EDA" unicode="&#x1eda;" horiz-adv-x="706" 
d="M541 1868v139h159v-192q0 -157 -75 -197q14 -66 14 -176v-1104q0 -145 -28.5 -220.5t-91 -104.5t-181.5 -29t-181 29t-90 104.5t-28 220.5v1104q0 145 28 220.5t90 104.5t181 29q81 0 147 -16h2q33 0 43.5 16.5t10.5 71.5zM276 1436v-1094q0 -78 6.5 -117t19 -51
t36.5 -12q37 0 49 32.5t12 147.5v1094q0 80 -6 118.5t-18 50t-37 11.5t-37 -11.5t-18.5 -50.5t-6.5 -118zM522 2118l-145 -275h-129l82 275h192z" />
    </font>
</defs>
</svg>
