<svg xmlns="http://www.w3.org/2000/svg" viewBox="0 0 228.89 202.13">
  <title>boxxerAsset 1</title>
  <g>
    <path d="M181.13,99.68,226.3,29.34S190.76,43,164.1,43.78L153.74,58.21,114.76,0,75.15,59.32,67,46S25.91,41.19,0,29.34l47.76,71.45L2.59,171.12s35.54-13.69,62.2-14.43l10.36-14.44,39.3,59.88,39.29-61,8.14,13.32s41.1,4.82,67,16.66Zm-24.06,24.06-6.4-10.83L150.3,124l-35.85,53.31-39.3-59.5L59.23,143s-20.35,2.59-25.17,4.44l30-47.2-30-46.83s14.44,3.7,25.17,3.7L71.82,76.72v9.63l42.94-60.81,39,57.11,15.92-25.18S190,54.88,194.83,53l-30,47.2,30,46.83s-14.43-3.7-25.17-3.7Z" fill="#fff"/>
    <path d="M114.45,59.6,85.89,101.43l28.56,39.62,27.74-39.59Zm-13.8,41.86,13.8-18.63,13,18.63-13,16.58Z" fill="#fff"/>
  </g>
</svg>
