<svg xmlns="http://www.w3.org/2000/svg" viewBox="0 0 250 73.8">
  <title>boxxerAsset 4</title>
  <g>
    <path d="M37.11,46.22v.49c-.46,13.21-15.23,13.67-15.23,13.67H3V13H22.8c9,1.31,12,6,12,12.73a10.76,10.76,0,0,1-5.45,9.46s7.76,1.63,7.76,11M14.4,41.1v8.42h6.31s4.81.11,5-4.21c0-.11,0-.21,0-.31,0-4-4.36-3.9-4.36-3.9h-7M14.4,24v7h5.08s3.87.09,4.06-3.52c0-.08,0-.17,0-.25C23.55,23.88,20,24,20,24H14.4M40.07,46.22c0-5.86-2.59-9.56-5.39-11.69a13.57,13.57,0,0,0,3.07-8.79c0-9-4.88-14.28-14.53-15.69L23,10H0V63.38H22a24.2,24.2,0,0,0,8.59-2.16,15.69,15.69,0,0,0,9.5-14.4c0-.21,0-.41,0-.6ZM21.46,44.09c1.35,0,1.35.64,1.35.91a.76.76,0,0,1,0,.15c-.06,1.2-1.32,1.38-2.06,1.38H17.35V44.09h4.11Zm-.88-17a.66.66,0,0,1,0,.15v.1c0,.2,0,.65-1.06.67H17.35V27h2.71a1.91,1.91,0,0,1,.52.11Z" fill="#fff"/>
    <path d="M91.57,36.74A24.14,24.14,0,1,1,67.43,12.26,24.32,24.32,0,0,1,91.57,36.74m-37.38,0A13.25,13.25,0,1,0,67.43,23.31,13.34,13.34,0,0,0,54.19,36.74m40.33,0A27.09,27.09,0,1,0,67.43,64.22,27.31,27.31,0,0,0,94.52,36.74Zm-37.38,0A10.29,10.29,0,1,1,67.43,47.18,10.38,10.38,0,0,1,57.14,36.74Z" fill="#fff"/>
    <path d="M200.13,60.2H174.37V13.39h25.76V23.68H185.45v7.5h14.68V41.66H185.45V50.4h14.68v9.8m3,3V47.41H188.4V44.66h14.68V28.18H188.4v-1.5h14.68V10.39H171.42v52.8h31.66Z" fill="#fff"/>
    <path d="M243.88,60.2l-14.49.47-9.6-15.55V60.67H208.25V13.39h18.92s15.6.28,15.7,15.72v.3c0,12.84-11.82,15.06-11.82,15.06L243.88,60.2M219.51,23.68V36.79h7s5.47-1.3,5.47-6a5.4,5.4,0,0,0,0-.56c-.46-5.15-5.9-6.56-5.9-6.56h-6.56M250,63l-3.84-4.71L236,45.85c4.67-2.37,9.81-7.42,9.81-16.44v-.34c-.06-9.47-5.2-14.08-9.5-16.29a22.94,22.94,0,0,0-9.09-2.39H205.3V63.66h17.44V55.55l4.15,6.7.9,1.46,1.69-.05,14.5-.47,6-.19ZM225.62,26.68c.83.3,3.19,1.37,3.41,3.83,0,.1,0,.2,0,.29,0,1.86-2.15,2.74-2.93,3h-3.65V26.68Z" fill="#fff"/>
    <path d="M137.65,37.05l-9.47-14.49L118.43,37l9.75,13.72Zm-9.44-8.32L134,37.09l-5.75,7.44-6.11-7.44Z" fill="#fff"/>
    <path d="M152.2,36.4l15.94-25.18c-4.08,1.44-13.37,4.44-21,4.74l-4.27,6L128.31,0,113.49,22.5,110,16.77c-2.23-.29-13.78-1.88-22.59-5.35L104.18,36.8,88.24,62c4.07-1.44,13.37-4.43,21-4.74l4.29-6,11.31,17.49.47.72,2.86,4.41,14.68-23.13,3.47,5.76c2.22.29,13.77,1.88,22.59,5.35Zm-3.4,17.28h-.4l-4.92-7.78L142.36,44l-.06,1.85-14.11,21.3-14.66-22.5L108,53.49l-.35,0c-2.09.27-7.82,1.09-9.22,1.64L96.36,56,108.5,36.6l-12-18.93,1.82.48a46,46,0,0,0,9.21,1.37h.4l5,8V29l15.3-22,14.51,21.57,5.53-8.87.35,0c2.09-.27,7.82-1.09,9.22-1.64l2.09-.81L147.88,36.6l12,18.93L158,55.05A46,46,0,0,0,148.8,53.68Z" fill="#fff"/>
  </g>
</svg>
